<svg width="48" height="50" viewBox="0 0 48 50" fill="none" xmlns="http://www.w3.org/2000/svg">
<path d="M10.1462 29.5496C10.6368 29.9754 10.6275 30.5216 10.1462 30.8734C9.79437 31.1326 9.46109 31.0678 9.15559 30.7993C7.73919 29.5958 6.32278 28.3831 4.91563 27.1611C4.5083 26.8186 4.49905 26.2909 4.90638 25.9391C6.32278 24.7079 7.7577 23.4951 9.18336 22.2731C9.45183 22.0417 9.73882 21.9954 10.0536 22.162C10.3406 22.3102 10.4887 22.5416 10.5072 22.8656C10.535 23.1896 10.3406 23.384 10.1184 23.5692C9.08154 24.4672 8.05395 25.3744 6.98008 26.2446C6.63755 26.5223 6.72086 26.6427 7.00785 26.8741C8.06321 27.7536 9.10931 28.6516 10.1462 29.5496Z" fill="#2D0C3E"/>
<path d="M17.0724 29.4952C17.3223 29.921 17.1927 30.3283 16.7946 30.569C16.3873 30.8097 15.9337 30.7079 15.6745 30.2728C14.3969 28.0695 13.1194 25.857 11.8604 23.6444C11.5178 23.0427 11.9067 22.3854 12.6287 22.3946C12.8602 22.4131 13.0824 22.5613 13.2305 22.8205C14.508 25.0423 15.7948 27.2641 17.0724 29.4952Z" fill="#2D0C3E"/>
<path d="M23.6717 25.8909C24.1438 26.2983 24.1438 26.7796 23.6717 27.1962C22.2831 28.3997 20.8759 29.5939 19.4688 30.7974C19.2003 31.0288 18.8948 31.1214 18.5615 30.9363C18.2838 30.7789 18.1264 30.5475 18.1172 30.1957C18.0894 29.8809 18.3116 29.6865 18.543 29.4829C19.5891 28.5941 20.6167 27.6869 21.6813 26.8167C21.9498 26.5945 21.922 26.4834 21.6721 26.2797C20.6075 25.391 19.5521 24.4838 18.4967 23.5673C18.0061 23.1507 17.9783 22.5952 18.4319 22.2434C18.7652 21.9842 19.1077 21.9935 19.4317 22.262C20.8481 23.4654 22.2646 24.6689 23.6717 25.8909Z" fill="#2D0C3E"/>
<path d="M37.669 10.8591C38.28 10.0722 38.0393 9.39641 37.0765 9.17423C36.4378 9.02611 35.7897 8.89651 35.1417 8.77616C34.7992 8.71136 34.5492 8.57249 34.3733 8.24847C34.0678 7.70228 33.716 7.18386 33.3828 6.65618C32.8458 5.83225 32.1793 5.80448 31.5961 6.60989C31.2258 7.12831 30.874 7.66525 30.5685 8.22996C30.3741 8.58174 30.1149 8.71135 29.7538 8.78541C29.0965 8.91502 28.4207 9.01685 27.7727 9.202C26.8562 9.46121 26.6711 10.1278 27.2728 10.8591C27.7172 11.4053 28.1523 11.9422 28.6151 12.4699C28.7818 12.6551 28.8095 12.831 28.7725 13.0809C28.6707 13.8215 28.6059 14.5621 28.5133 15.3675C28.5133 16.1266 29.0317 16.5525 29.8001 16.3025C30.5129 16.0711 31.2072 15.8026 31.883 15.4879C32.3181 15.2935 32.707 15.312 33.1236 15.4971C33.7901 15.7841 34.4381 16.1266 35.1417 16.3211C35.9471 16.534 36.5211 16.0248 36.4192 15.2009C36.3267 14.4788 36.2433 13.7567 36.1508 13.0346C36.1137 12.8032 36.1785 12.6365 36.3267 12.4699C36.7803 11.9422 37.2339 11.4146 37.669 10.8591ZM34.7066 14.4325C33.1976 13.5068 31.7442 13.5068 30.2445 14.4418C30.6703 12.8958 30.4296 11.609 29.041 10.6184C29.8279 10.3222 30.624 10.4147 31.2165 10.0074C31.7997 9.60007 32.0126 8.85948 32.4755 8.23922C32.7533 8.67433 33.0402 9.06314 33.2624 9.48898C33.5124 9.9426 33.8734 10.1648 34.3733 10.2481C34.8455 10.3314 35.3176 10.4425 35.9471 10.5814C34.5307 11.5905 34.2159 12.868 34.7066 14.4325ZM37.669 10.8591C38.28 10.0722 38.0393 9.39641 37.0765 9.17423C36.4378 9.02611 35.7897 8.89651 35.1417 8.77616C34.7992 8.71136 34.5492 8.57249 34.3733 8.24847C34.0678 7.70228 33.716 7.18386 33.3828 6.65618C32.8458 5.83225 32.1793 5.80448 31.5961 6.60989C31.2258 7.12831 30.874 7.66525 30.5685 8.22996C30.3741 8.58174 30.1149 8.71135 29.7538 8.78541C29.0965 8.91502 28.4207 9.01685 27.7727 9.202C26.8562 9.46121 26.6711 10.1278 27.2728 10.8591C27.7172 11.4053 28.1523 11.9422 28.6151 12.4699C28.7818 12.6551 28.8095 12.831 28.7725 13.0809C28.6707 13.8215 28.6059 14.5621 28.5133 15.3675C28.5133 16.1266 29.0317 16.5525 29.8001 16.3025C30.5129 16.0711 31.2072 15.8026 31.883 15.4879C32.3181 15.2935 32.707 15.312 33.1236 15.4971C33.7901 15.7841 34.4381 16.1266 35.1417 16.3211C35.9471 16.534 36.5211 16.0248 36.4192 15.2009C36.3267 14.4788 36.2433 13.7567 36.1508 13.0346C36.1137 12.8032 36.1785 12.6365 36.3267 12.4699C36.7803 11.9422 37.2339 11.4146 37.669 10.8591ZM34.7066 14.4325C33.1976 13.5068 31.7442 13.5068 30.2445 14.4418C30.6703 12.8958 30.4296 11.609 29.041 10.6184C29.8279 10.3222 30.624 10.4147 31.2165 10.0074C31.7997 9.60007 32.0126 8.85948 32.4755 8.23922C32.7533 8.67433 33.0402 9.06314 33.2624 9.48898C33.5124 9.9426 33.8734 10.1648 34.3733 10.2481C34.8455 10.3314 35.3176 10.4425 35.9471 10.5814C34.5307 11.5905 34.2159 12.868 34.7066 14.4325ZM37.669 10.8591C38.28 10.0722 38.0393 9.39641 37.0765 9.17423C36.4378 9.02611 35.7897 8.89651 35.1417 8.77616C34.7992 8.71136 34.5492 8.57249 34.3733 8.24847C34.0678 7.70228 33.716 7.18386 33.3828 6.65618C32.8458 5.83225 32.1793 5.80448 31.5961 6.60989C31.2258 7.12831 30.874 7.66525 30.5685 8.22996C30.3741 8.58174 30.1149 8.71135 29.7538 8.78541C29.0965 8.91502 28.4207 9.01685 27.7727 9.202C26.8562 9.46121 26.6711 10.1278 27.2728 10.8591C27.7172 11.4053 28.1523 11.9422 28.6151 12.4699C28.7818 12.6551 28.8095 12.831 28.7725 13.0809C28.6707 13.8215 28.6059 14.5621 28.5133 15.3675C28.5133 16.1266 29.0317 16.5525 29.8001 16.3025C30.5129 16.0711 31.2072 15.8026 31.883 15.4879C32.3181 15.2935 32.707 15.312 33.1236 15.4971C33.7901 15.7841 34.4381 16.1266 35.1417 16.3211C35.9471 16.534 36.5211 16.0248 36.4192 15.2009C36.3267 14.4788 36.2433 13.7567 36.1508 13.0346C36.1137 12.8032 36.1785 12.6365 36.3267 12.4699C36.7803 11.9422 37.2339 11.4146 37.669 10.8591ZM34.7066 14.4325C33.1976 13.5068 31.7442 13.5068 30.2445 14.4418C30.6703 12.8958 30.4296 11.609 29.041 10.6184C29.8279 10.3222 30.624 10.4147 31.2165 10.0074C31.7997 9.60007 32.0126 8.85948 32.4755 8.23922C32.7533 8.67433 33.0402 9.06314 33.2624 9.48898C33.5124 9.9426 33.8734 10.1648 34.3733 10.2481C34.8455 10.3314 35.3176 10.4425 35.9471 10.5814C34.5307 11.5905 34.2159 12.868 34.7066 14.4325ZM37.669 10.8591C38.28 10.0722 38.0393 9.39641 37.0765 9.17423C36.4378 9.02611 35.7897 8.89651 35.1417 8.77616C34.7992 8.71136 34.5492 8.57249 34.3733 8.24847C34.0678 7.70228 33.716 7.18386 33.3828 6.65618C32.8458 5.83225 32.1793 5.80448 31.5961 6.60989C31.2258 7.12831 30.874 7.66525 30.5685 8.22996C30.3741 8.58174 30.1149 8.71135 29.7538 8.78541C29.0965 8.91502 28.4207 9.01685 27.7727 9.202C26.8562 9.46121 26.6711 10.1278 27.2728 10.8591C27.7172 11.4053 28.1523 11.9422 28.6151 12.4699C28.7818 12.6551 28.8095 12.831 28.7725 13.0809C28.6707 13.8215 28.6059 14.5621 28.5133 15.3675C28.5133 16.1266 29.0317 16.5525 29.8001 16.3025C30.5129 16.0711 31.2072 15.8026 31.883 15.4879C32.3181 15.2935 32.707 15.312 33.1236 15.4971C33.7901 15.7841 34.4381 16.1266 35.1417 16.3211C35.9471 16.534 36.5211 16.0248 36.4192 15.2009C36.3267 14.4788 36.2433 13.7567 36.1508 13.0346C36.1137 12.8032 36.1785 12.6365 36.3267 12.4699C36.7803 11.9422 37.2339 11.4146 37.669 10.8591ZM34.7066 14.4325C33.1976 13.5068 31.7442 13.5068 30.2445 14.4418C30.6703 12.8958 30.4296 11.609 29.041 10.6184C29.8279 10.3222 30.624 10.4147 31.2165 10.0074C31.7997 9.60007 32.0126 8.85948 32.4755 8.23922C32.7533 8.67433 33.0402 9.06314 33.2624 9.48898C33.5124 9.9426 33.8734 10.1648 34.3733 10.2481C34.8455 10.3314 35.3176 10.4425 35.9471 10.5814C34.5307 11.5905 34.2159 12.868 34.7066 14.4325ZM37.669 10.8591C38.28 10.0722 38.0393 9.39641 37.0765 9.17423C36.4378 9.02611 35.7897 8.89651 35.1417 8.77616C34.7992 8.71136 34.5492 8.57249 34.3733 8.24847C34.0678 7.70228 33.716 7.18386 33.3828 6.65618C32.8458 5.83225 32.1793 5.80448 31.5961 6.60989C31.2258 7.12831 30.874 7.66525 30.5685 8.22996C30.3741 8.58174 30.1149 8.71135 29.7538 8.78541C29.0965 8.91502 28.4207 9.01685 27.7727 9.202C26.8562 9.46121 26.6711 10.1278 27.2728 10.8591C27.7172 11.4053 28.1523 11.9422 28.6151 12.4699C28.7818 12.6551 28.8095 12.831 28.7725 13.0809C28.6707 13.8215 28.6059 14.5621 28.5133 15.3675C28.5133 16.1266 29.0317 16.5525 29.8001 16.3025C30.5129 16.0711 31.2072 15.8026 31.883 15.4879C32.3181 15.2935 32.707 15.312 33.1236 15.4971C33.7901 15.7841 34.4381 16.1266 35.1417 16.3211C35.9471 16.534 36.5211 16.0248 36.4192 15.2009C36.3267 14.4788 36.2433 13.7567 36.1508 13.0346C36.1137 12.8032 36.1785 12.6365 36.3267 12.4699C36.7803 11.9422 37.2339 11.4146 37.669 10.8591ZM34.7066 14.4325C33.1976 13.5068 31.7442 13.5068 30.2445 14.4418C30.6703 12.8958 30.4296 11.609 29.041 10.6184C29.8279 10.3222 30.624 10.4147 31.2165 10.0074C31.7997 9.60007 32.0126 8.85948 32.4755 8.23922C32.7533 8.67433 33.0402 9.06314 33.2624 9.48898C33.5124 9.9426 33.8734 10.1648 34.3733 10.2481C34.8455 10.3314 35.3176 10.4425 35.9471 10.5814C34.5307 11.5905 34.2159 12.868 34.7066 14.4325ZM37.669 10.8591C38.28 10.0722 38.0393 9.39641 37.0765 9.17423C36.4378 9.02611 35.7897 8.89651 35.1417 8.77616C34.7992 8.71136 34.5492 8.57249 34.3733 8.24847C34.0678 7.70228 33.716 7.18386 33.3828 6.65618C32.8458 5.83225 32.1793 5.80448 31.5961 6.60989C31.2258 7.12831 30.874 7.66525 30.5685 8.22996C30.3741 8.58174 30.1149 8.71135 29.7538 8.78541C29.0965 8.91502 28.4207 9.01685 27.7727 9.202C26.8562 9.46121 26.6711 10.1278 27.2728 10.8591C27.7172 11.4053 28.1523 11.9422 28.6151 12.4699C28.7818 12.6551 28.8095 12.831 28.7725 13.0809C28.6707 13.8215 28.6059 14.5621 28.5133 15.3675C28.5133 16.1266 29.0317 16.5525 29.8001 16.3025C30.5129 16.0711 31.2072 15.8026 31.883 15.4879C32.3181 15.2935 32.707 15.312 33.1236 15.4971C33.7901 15.7841 34.4381 16.1266 35.1417 16.3211C35.9471 16.534 36.5211 16.0248 36.4192 15.2009C36.3267 14.4788 36.2433 13.7567 36.1508 13.0346C36.1137 12.8032 36.1785 12.6365 36.3267 12.4699C36.7803 11.9422 37.2339 11.4146 37.669 10.8591ZM34.7066 14.4325C33.1976 13.5068 31.7442 13.5068 30.2445 14.4418C30.6703 12.8958 30.4296 11.609 29.041 10.6184C29.8279 10.3222 30.624 10.4147 31.2165 10.0074C31.7997 9.60007 32.0126 8.85948 32.4755 8.23922C32.7533 8.67433 33.0402 9.06314 33.2624 9.48898C33.5124 9.9426 33.8734 10.1648 34.3733 10.2481C34.8455 10.3314 35.3176 10.4425 35.9471 10.5814C34.5307 11.5905 34.2159 12.868 34.7066 14.4325ZM37.669 10.8591C38.28 10.0722 38.0393 9.39641 37.0765 9.17423C36.4378 9.02611 35.7897 8.89651 35.1417 8.77616C34.7992 8.71136 34.5492 8.57249 34.3733 8.24847C34.0678 7.70228 33.716 7.18386 33.3828 6.65618C32.8458 5.83225 32.1793 5.80448 31.5961 6.60989C31.2258 7.12831 30.874 7.66525 30.5685 8.22996C30.3741 8.58174 30.1149 8.71135 29.7538 8.78541C29.0965 8.91502 28.4207 9.01685 27.7727 9.202C26.8562 9.46121 26.6711 10.1278 27.2728 10.8591C27.7172 11.4053 28.1523 11.9422 28.6151 12.4699C28.7818 12.6551 28.8095 12.831 28.7725 13.0809C28.6707 13.8215 28.6059 14.5621 28.5133 15.3675C28.5133 16.1266 29.0317 16.5525 29.8001 16.3025C30.5129 16.0711 31.2072 15.8026 31.883 15.4879C32.3181 15.2935 32.707 15.312 33.1236 15.4971C33.7901 15.7841 34.4381 16.1266 35.1417 16.3211C35.9471 16.534 36.5211 16.0248 36.4192 15.2009C36.3267 14.4788 36.2433 13.7567 36.1508 13.0346C36.1137 12.8032 36.1785 12.6365 36.3267 12.4699C36.7803 11.9422 37.2339 11.4146 37.669 10.8591ZM34.7066 14.4325C33.1976 13.5068 31.7442 13.5068 30.2445 14.4418C30.6703 12.8958 30.4296 11.609 29.041 10.6184C29.8279 10.3222 30.624 10.4147 31.2165 10.0074C31.7997 9.60007 32.0126 8.85948 32.4755 8.23922C32.7533 8.67433 33.0402 9.06314 33.2624 9.48898C33.5124 9.9426 33.8734 10.1648 34.3733 10.2481C34.8455 10.3314 35.3176 10.4425 35.9471 10.5814C34.5307 11.5905 34.2159 12.868 34.7066 14.4325ZM37.669 10.8591C38.28 10.0722 38.0393 9.39641 37.0765 9.17423C36.4378 9.02611 35.7897 8.89651 35.1417 8.77616C34.7992 8.71136 34.5492 8.57249 34.3733 8.24847C34.0678 7.70228 33.716 7.18386 33.3828 6.65618C32.8458 5.83225 32.1793 5.80448 31.5961 6.60989C31.2258 7.12831 30.874 7.66525 30.5685 8.22996C30.3741 8.58174 30.1149 8.71135 29.7538 8.78541C29.0965 8.91502 28.4207 9.01685 27.7727 9.202C26.8562 9.46121 26.6711 10.1278 27.2728 10.8591C27.7172 11.4053 28.1523 11.9422 28.6151 12.4699C28.7818 12.6551 28.8095 12.831 28.7725 13.0809C28.6707 13.8215 28.6059 14.5621 28.5133 15.3675C28.5133 16.1266 29.0317 16.5525 29.8001 16.3025C30.5129 16.0711 31.2072 15.8026 31.883 15.4879C32.3181 15.2935 32.707 15.312 33.1236 15.4971C33.7901 15.7841 34.4381 16.1266 35.1417 16.3211C35.9471 16.534 36.5211 16.0248 36.4192 15.2009C36.3267 14.4788 36.2433 13.7567 36.1508 13.0346C36.1137 12.8032 36.1785 12.6365 36.3267 12.4699C36.7803 11.9422 37.2339 11.4146 37.669 10.8591ZM34.7066 14.4325C33.1976 13.5068 31.7442 13.5068 30.2445 14.4418C30.6703 12.8958 30.4296 11.609 29.041 10.6184C29.8279 10.3222 30.624 10.4147 31.2165 10.0074C31.7997 9.60007 32.0126 8.85948 32.4755 8.23922C32.7533 8.67433 33.0402 9.06314 33.2624 9.48898C33.5124 9.9426 33.8734 10.1648 34.3733 10.2481C34.8455 10.3314 35.3176 10.4425 35.9471 10.5814C34.5307 11.5905 34.2159 12.868 34.7066 14.4325ZM37.669 10.8591C38.28 10.0722 38.0393 9.39641 37.0765 9.17423C36.4378 9.02611 35.7897 8.89651 35.1417 8.77616C34.7992 8.71136 34.5492 8.57249 34.3733 8.24847C34.0678 7.70228 33.716 7.18386 33.3828 6.65618C32.8458 5.83225 32.1793 5.80448 31.5961 6.60989C31.2258 7.12831 30.874 7.66525 30.5685 8.22996C30.3741 8.58174 30.1149 8.71135 29.7538 8.78541C29.0965 8.91502 28.4207 9.01685 27.7727 9.202C26.8562 9.46121 26.6711 10.1278 27.2728 10.8591C27.7172 11.4053 28.1523 11.9422 28.6151 12.4699C28.7818 12.6551 28.8095 12.831 28.7725 13.0809C28.6707 13.8215 28.6059 14.5621 28.5133 15.3675C28.5133 16.1266 29.0317 16.5525 29.8001 16.3025C30.5129 16.0711 31.2072 15.8026 31.883 15.4879C32.3181 15.2935 32.707 15.312 33.1236 15.4971C33.7901 15.7841 34.4381 16.1266 35.1417 16.3211C35.9471 16.534 36.5211 16.0248 36.4192 15.2009C36.3267 14.4788 36.2433 13.7567 36.1508 13.0346C36.1137 12.8032 36.1785 12.6365 36.3267 12.4699C36.7803 11.9422 37.2339 11.4146 37.669 10.8591ZM34.7066 14.4325C33.1976 13.5068 31.7442 13.5068 30.2445 14.4418C30.6703 12.8958 30.4296 11.609 29.041 10.6184C29.8279 10.3222 30.624 10.4147 31.2165 10.0074C31.7997 9.60007 32.0126 8.85948 32.4755 8.23922C32.7533 8.67433 33.0402 9.06314 33.2624 9.48898C33.5124 9.9426 33.8734 10.1648 34.3733 10.2481C34.8455 10.3314 35.3176 10.4425 35.9471 10.5814C34.5307 11.5905 34.2159 12.868 34.7066 14.4325ZM37.669 10.8591C38.28 10.0722 38.0393 9.39641 37.0765 9.17423C36.4378 9.02611 35.7897 8.89651 35.1417 8.77616C34.7992 8.71136 34.5492 8.57249 34.3733 8.24847C34.0678 7.70228 33.716 7.18386 33.3828 6.65618C32.8458 5.83225 32.1793 5.80448 31.5961 6.60989C31.2258 7.12831 30.874 7.66525 30.5685 8.22996C30.3741 8.58174 30.1149 8.71135 29.7538 8.78541C29.0965 8.91502 28.4207 9.01685 27.7727 9.202C26.8562 9.46121 26.6711 10.1278 27.2728 10.8591C27.7172 11.4053 28.1523 11.9422 28.6151 12.4699C28.7818 12.6551 28.8095 12.831 28.7725 13.0809C28.6707 13.8215 28.6059 14.5621 28.5133 15.3675C28.5133 16.1266 29.0317 16.5525 29.8001 16.3025C30.5129 16.0711 31.2072 15.8026 31.883 15.4879C32.3181 15.2935 32.707 15.312 33.1236 15.4971C33.7901 15.7841 34.4381 16.1266 35.1417 16.3211C35.9471 16.534 36.5211 16.0248 36.4192 15.2009C36.3267 14.4788 36.2433 13.7567 36.1508 13.0346C36.1137 12.8032 36.1785 12.6365 36.3267 12.4699C36.7803 11.9422 37.2339 11.4146 37.669 10.8591ZM34.7066 14.4325C33.1976 13.5068 31.7442 13.5068 30.2445 14.4418C30.6703 12.8958 30.4296 11.609 29.041 10.6184C29.8279 10.3222 30.624 10.4147 31.2165 10.0074C31.7997 9.60007 32.0126 8.85948 32.4755 8.23922C32.7533 8.67433 33.0402 9.06314 33.2624 9.48898C33.5124 9.9426 33.8734 10.1648 34.3733 10.2481C34.8455 10.3314 35.3176 10.4425 35.9471 10.5814C34.5307 11.5905 34.2159 12.868 34.7066 14.4325ZM47.9634 10.1092C47.8153 8.11886 46.8525 6.72098 44.9917 5.95261C44.066 5.56379 43.0847 5.4527 42.0941 5.36938C41.8997 5.36012 41.7608 5.34161 41.7794 5.0824C41.7886 4.86947 41.7979 4.70283 42.0756 4.70283C42.2145 4.70283 42.3533 4.67506 42.4829 4.62877C43.6031 4.26773 44.2511 3.1846 44.0845 1.96261C43.9364 0.870219 42.8903 0.00926658 41.6683 0.00926658C35.5676 9.04078e-06 29.4576 0 23.3568 0C21.9775 0.00925754 20.9684 0.870216 20.8388 2.14776C20.7092 3.4253 21.5053 4.43436 22.894 4.70283C23.1161 4.74912 23.1624 4.8417 23.1717 5.05462C23.1717 5.26755 23.1162 5.35086 22.8847 5.36938C22.3663 5.40641 21.8479 5.47121 21.3295 5.54527C19.0614 5.90632 17.5153 7.29495 17.0525 9.47048C16.7562 10.8591 17.0154 12.1922 17.6542 13.553H17.1636C12.2385 13.553 7.32279 13.5716 2.40703 13.5345C0.972113 13.5253 -0.0091926 14.4233 6.49438e-05 15.9508C0.0370951 23.9585 0.018584 31.9571 0.018584 39.9648C0.018584 41.5756 0.805472 42.3625 2.41628 42.3625C7.44313 42.3625 12.4607 42.3718 17.4783 42.3533C17.8116 42.3533 17.969 42.4366 18.0615 42.7699C18.1819 43.279 18.3578 43.7697 18.5429 44.2511C18.691 44.6584 18.7003 44.862 18.1449 44.8343C17.3302 44.7787 16.5063 44.8158 15.6916 44.8158C14.9232 44.825 14.2104 44.9824 13.5716 45.436C12.4144 46.2507 11.8127 48.0466 12.2293 49.4075C12.3589 49.8426 12.6551 50 13.0902 50H33.1236C33.5957 50 33.8827 49.7871 33.966 49.3149C34.0863 48.6021 34.0586 47.8893 33.8549 47.195C33.4198 45.7045 32.1978 44.8436 30.5037 44.825C29.5131 44.8065 28.5226 44.8158 27.4672 44.8158C27.6894 44.1215 27.9208 43.4919 28.0967 42.8439C28.1985 42.4551 28.393 42.3533 28.791 42.3533C33.7901 42.3718 38.7984 42.3625 43.7975 42.3625C45.3528 42.3625 46.1767 41.5386 46.1767 39.9741C46.1767 31.8552 46.1767 23.7271 46.1674 15.599C46.1674 15.2935 46.2507 15.0528 46.4452 14.8028C47.5561 13.442 48.093 11.8774 47.9634 10.1092ZM22.4866 2.66618C22.3108 2.2033 22.5607 1.72191 23.0514 1.63859C23.2365 1.61082 23.4309 1.61082 23.6253 1.61082H41.298C41.5109 1.61082 41.7238 1.61082 41.9275 1.65711C42.3163 1.73117 42.5292 2.00888 42.5107 2.3977C42.4922 2.80503 42.2607 3.0735 41.8349 3.13831C41.696 3.15682 41.5572 3.13831 41.4183 3.13831H32.4755C29.4391 3.13831 26.4118 3.13832 23.3754 3.14757C22.9773 3.14757 22.6533 3.08277 22.4866 2.66618ZM38.2337 31.2627C38.2707 31.633 38.2059 31.8089 37.7523 31.7997C35.9749 31.7719 34.1974 31.7904 32.42 31.7904C30.6796 31.7904 28.9391 31.7626 27.1987 31.7997C26.6896 31.8089 26.6803 31.5775 26.7081 31.2164C26.7359 30.9109 26.6062 30.5962 27.171 30.6054C30.7073 30.6332 34.2345 30.6332 37.7708 30.6054C38.3911 30.5962 38.2059 30.9572 38.2337 31.2627ZM30.3 28.9854C30.6425 27.8189 30.948 26.671 31.1517 25.5045C31.3739 24.2362 31.559 22.968 31.6331 21.6812C31.6516 21.2553 31.7442 21.0702 32.2256 21.0979C33.2439 21.135 33.2254 21.1072 33.3272 22.1255C33.5587 24.3196 33.8642 26.5043 34.5492 28.6151C34.5863 28.7262 34.6048 28.8465 34.6418 28.9854H30.3ZM34.1049 19.3483C29.7723 20.1907 25.7545 17.5153 24.8751 13.192C24.7732 12.7013 24.7455 12.1922 24.7455 11.6923C24.727 9.52602 24.7455 7.36901 24.727 5.20275C24.727 4.8417 24.8195 4.73987 25.1898 4.73987C27.6061 4.75839 30.0315 4.74912 32.457 4.74912H39.7242C39.9649 4.74912 40.2056 4.68432 40.1963 5.09165C40.15 7.60044 40.2981 10.1092 40.1223 12.618C39.9093 15.7656 37.2246 18.7465 34.1049 19.3483ZM21.746 7.1098C21.8294 7.09129 21.9219 7.09128 22.0052 7.07276C23.181 6.8691 23.1717 6.8691 23.1717 8.06333C23.1717 8.35957 23.1347 8.50768 22.7829 8.48917C22.4403 8.47065 22.0886 8.5262 21.746 8.591C20.6074 8.78541 19.9316 9.86854 20.1815 11.0628C20.487 12.5069 21.4128 13.516 22.5051 14.4233C22.57 14.4788 22.644 14.5343 22.7181 14.5714C23.7364 15.0435 24.2178 15.9415 24.6622 17.0061C23.2458 16.534 22.0145 15.886 20.9314 14.9787C19.7834 14.0252 18.8762 12.9235 18.6262 11.3775C18.2559 8.98908 19.3483 7.47084 21.746 7.1098ZM23.1717 10.8591V12.8958C22.5329 12.294 22.0423 11.6923 21.7923 10.9332C21.6164 10.3962 21.7553 10.1926 22.3107 10.1278C22.32 10.1278 22.3385 10.1278 22.357 10.1185C23.1624 10.0352 23.1624 10.0352 23.1717 10.8591ZM30.6796 46.4451C31.5683 46.4544 32.2904 47.0931 32.3737 47.8985C32.4107 48.241 32.3459 48.3799 31.9479 48.3707C28.9854 48.3521 26.023 48.3614 23.0606 48.3614C20.1352 48.3614 17.2098 48.3521 14.2845 48.3707C13.8308 48.3799 13.729 48.2596 13.8123 47.8152C13.9882 46.9913 14.6177 46.4451 15.525 46.4451H25.5046C27.2358 46.4451 28.9577 46.4358 30.6796 46.4451ZM19.5983 42.3625C21.8479 42.3625 24.0604 42.3718 26.273 42.3625C26.5507 42.3625 26.5507 42.4736 26.4859 42.6773C26.2822 43.2975 26.0786 43.927 25.8842 44.5566C25.8194 44.751 25.7083 44.825 25.5046 44.825C23.903 44.8158 22.2922 44.8158 20.6907 44.8158C20.5055 44.8158 20.3852 44.788 20.3111 44.5658C20.0982 43.8345 19.8482 43.1216 19.5983 42.3625ZM43.1865 40.7332C29.6798 40.7424 16.173 40.7332 2.66624 40.7332C1.63865 40.7332 1.60162 40.6962 1.60162 39.6871C1.60162 38.8169 1.60162 38.8169 2.46257 38.8169H23.1162C30.0871 38.8169 37.058 38.8169 44.0382 38.7984C44.4826 38.7984 44.5751 38.9187 44.5751 39.3446C44.5474 40.8906 44.6492 40.7332 43.1865 40.7332ZM43.9641 37.2338C30.0315 37.2153 16.1082 37.2153 2.17559 37.2338C1.74049 37.2338 1.59236 37.169 1.59236 36.6784C1.61088 29.7723 1.61088 22.8661 1.61088 15.96C1.61088 15.2101 1.66643 15.1546 2.40703 15.1546C7.7116 15.1546 13.0069 15.1639 18.3115 15.1546C18.654 15.1454 18.8762 15.2564 19.1169 15.4971C21.1443 17.4782 23.6253 18.5799 26.3655 19.1353C26.6433 19.1909 26.9025 19.2557 27.1339 19.4316C27.9301 19.9963 28.8003 20.4314 29.7446 20.6999C30.013 20.7832 30.1056 20.8943 30.0778 21.172C29.8742 23.7271 29.5131 26.2451 28.6799 28.6891C28.6059 28.9113 28.4948 29.0039 28.2448 29.0039C27.532 28.9854 26.8099 28.9854 26.0971 28.9946C25.4028 29.0039 25.125 29.2816 25.1158 29.9852C25.1065 30.7906 25.1065 31.5867 25.1158 32.3921C25.125 33.105 25.3935 33.3735 26.0878 33.3735H38.854C39.5298 33.3735 39.8168 33.105 39.826 32.4384C39.8353 31.6053 39.8353 30.7628 39.826 29.9297C39.8168 29.3001 39.5205 29.0131 38.8817 28.9946C38.1689 28.9854 37.4561 28.9761 36.7433 29.0039C36.4378 29.0131 36.3267 28.8928 36.2341 28.6336C35.549 26.6247 35.1973 24.5603 34.9843 22.4681C34.938 22.033 34.9195 21.5978 34.864 21.1627C34.8362 20.922 34.901 20.7832 35.151 20.7091C36.1508 20.4314 37.058 19.9685 37.9004 19.3575C38.1689 19.1724 38.4837 19.1631 38.7892 19.0983C40.8351 18.6447 42.7607 17.8763 44.5566 16.5988V17.1357C44.5566 23.6345 44.5566 30.1426 44.5751 36.6414C44.5751 37.1413 44.427 37.2338 43.9641 37.2338ZM46.2322 11.7849C45.9823 12.6643 45.5194 13.4327 44.9084 14.1178C43.6401 15.5342 42.0386 16.4044 40.2241 17.0246C40.5111 16.4784 40.7888 15.997 41.011 15.4971C41.1128 15.275 41.298 15.2009 41.4646 15.0991C42.557 14.4418 43.4735 13.5993 44.1585 12.5255C44.4733 12.0348 44.677 11.5071 44.7695 10.9332C44.9732 9.82225 44.3067 8.82244 43.205 8.591C43.0199 8.55397 42.8255 8.53546 42.6403 8.49843C42.3626 8.43363 41.909 8.61878 41.8256 8.37808C41.696 8.00778 41.7886 7.55416 41.7886 7.13757C41.7886 6.93391 41.9367 6.98945 42.0478 6.98945C42.9088 6.99871 43.742 7.13757 44.5289 7.49862C46.1026 8.2207 46.7692 9.91484 46.2322 11.7849ZM41.7794 10.3407C41.7794 10.137 41.8627 10.063 42.0571 10.0907C42.0756 10.0907 42.0941 10.0815 42.1126 10.0907C42.4552 10.1555 42.9088 9.98889 43.1217 10.3407C43.3346 10.7202 43.1124 11.1183 42.9088 11.4608C42.6125 11.9793 42.2515 12.4329 41.7886 12.8772C41.7886 11.9978 41.7886 11.1646 41.7794 10.3407ZM37.669 10.8591C38.28 10.0722 38.0393 9.39641 37.0765 9.17423C36.4378 9.02611 35.7897 8.89651 35.1417 8.77616C34.7992 8.71136 34.5492 8.57249 34.3733 8.24847C34.0678 7.70228 33.716 7.18386 33.3828 6.65618C32.8458 5.83225 32.1793 5.80448 31.5961 6.60989C31.2258 7.12831 30.874 7.66525 30.5685 8.22996C30.3741 8.58174 30.1149 8.71135 29.7538 8.78541C29.0965 8.91502 28.4207 9.01685 27.7727 9.202C26.8562 9.46121 26.6711 10.1278 27.2728 10.8591C27.7172 11.4053 28.1523 11.9422 28.6151 12.4699C28.7818 12.6551 28.8095 12.831 28.7725 13.0809C28.6707 13.8215 28.6059 14.5621 28.5133 15.3675C28.5133 16.1266 29.0317 16.5525 29.8001 16.3025C30.5129 16.0711 31.2072 15.8026 31.883 15.4879C32.3181 15.2935 32.707 15.312 33.1236 15.4971C33.7901 15.7841 34.4381 16.1266 35.1417 16.3211C35.9471 16.534 36.5211 16.0248 36.4192 15.2009C36.3267 14.4788 36.2433 13.7567 36.1508 13.0346C36.1137 12.8032 36.1785 12.6365 36.3267 12.4699C36.7803 11.9422 37.2339 11.4146 37.669 10.8591ZM34.7066 14.4325C33.1976 13.5068 31.7442 13.5068 30.2445 14.4418C30.6703 12.8958 30.4296 11.609 29.041 10.6184C29.8279 10.3222 30.624 10.4147 31.2165 10.0074C31.7997 9.60007 32.0126 8.85948 32.4755 8.23922C32.7533 8.67433 33.0402 9.06314 33.2624 9.48898C33.5124 9.9426 33.8734 10.1648 34.3733 10.2481C34.8455 10.3314 35.3176 10.4425 35.9471 10.5814C34.5307 11.5905 34.2159 12.868 34.7066 14.4325ZM37.669 10.8591C38.28 10.0722 38.0393 9.39641 37.0765 9.17423C36.4378 9.02611 35.7897 8.89651 35.1417 8.77616C34.7992 8.71136 34.5492 8.57249 34.3733 8.24847C34.0678 7.70228 33.716 7.18386 33.3828 6.65618C32.8458 5.83225 32.1793 5.80448 31.5961 6.60989C31.2258 7.12831 30.874 7.66525 30.5685 8.22996C30.3741 8.58174 30.1149 8.71135 29.7538 8.78541C29.0965 8.91502 28.4207 9.01685 27.7727 9.202C26.8562 9.46121 26.6711 10.1278 27.2728 10.8591C27.7172 11.4053 28.1523 11.9422 28.6151 12.4699C28.7818 12.6551 28.8095 12.831 28.7725 13.0809C28.6707 13.8215 28.6059 14.5621 28.5133 15.3675C28.5133 16.1266 29.0317 16.5525 29.8001 16.3025C30.5129 16.0711 31.2072 15.8026 31.883 15.4879C32.3181 15.2935 32.707 15.312 33.1236 15.4971C33.7901 15.7841 34.4381 16.1266 35.1417 16.3211C35.9471 16.534 36.5211 16.0248 36.4192 15.2009C36.3267 14.4788 36.2433 13.7567 36.1508 13.0346C36.1137 12.8032 36.1785 12.6365 36.3267 12.4699C36.7803 11.9422 37.2339 11.4146 37.669 10.8591ZM34.7066 14.4325C33.1976 13.5068 31.7442 13.5068 30.2445 14.4418C30.6703 12.8958 30.4296 11.609 29.041 10.6184C29.8279 10.3222 30.624 10.4147 31.2165 10.0074C31.7997 9.60007 32.0126 8.85948 32.4755 8.23922C32.7533 8.67433 33.0402 9.06314 33.2624 9.48898C33.5124 9.9426 33.8734 10.1648 34.3733 10.2481C34.8455 10.3314 35.3176 10.4425 35.9471 10.5814C34.5307 11.5905 34.2159 12.868 34.7066 14.4325ZM37.669 10.8591C38.28 10.0722 38.0393 9.39641 37.0765 9.17423C36.4378 9.02611 35.7897 8.89651 35.1417 8.77616C34.7992 8.71136 34.5492 8.57249 34.3733 8.24847C34.0678 7.70228 33.716 7.18386 33.3828 6.65618C32.8458 5.83225 32.1793 5.80448 31.5961 6.60989C31.2258 7.12831 30.874 7.66525 30.5685 8.22996C30.3741 8.58174 30.1149 8.71135 29.7538 8.78541C29.0965 8.91502 28.4207 9.01685 27.7727 9.202C26.8562 9.46121 26.6711 10.1278 27.2728 10.8591C27.7172 11.4053 28.1523 11.9422 28.6151 12.4699C28.7818 12.6551 28.8095 12.831 28.7725 13.0809C28.6707 13.8215 28.6059 14.5621 28.5133 15.3675C28.5133 16.1266 29.0317 16.5525 29.8001 16.3025C30.5129 16.0711 31.2072 15.8026 31.883 15.4879C32.3181 15.2935 32.707 15.312 33.1236 15.4971C33.7901 15.7841 34.4381 16.1266 35.1417 16.3211C35.9471 16.534 36.5211 16.0248 36.4192 15.2009C36.3267 14.4788 36.2433 13.7567 36.1508 13.0346C36.1137 12.8032 36.1785 12.6365 36.3267 12.4699C36.7803 11.9422 37.2339 11.4146 37.669 10.8591ZM34.7066 14.4325C33.1976 13.5068 31.7442 13.5068 30.2445 14.4418C30.6703 12.8958 30.4296 11.609 29.041 10.6184C29.8279 10.3222 30.624 10.4147 31.2165 10.0074C31.7997 9.60007 32.0126 8.85948 32.4755 8.23922C32.7533 8.67433 33.0402 9.06314 33.2624 9.48898C33.5124 9.9426 33.8734 10.1648 34.3733 10.2481C34.8455 10.3314 35.3176 10.4425 35.9471 10.5814C34.5307 11.5905 34.2159 12.868 34.7066 14.4325ZM37.669 10.8591C38.28 10.0722 38.0393 9.39641 37.0765 9.17423C36.4378 9.02611 35.7897 8.89651 35.1417 8.77616C34.7992 8.71136 34.5492 8.57249 34.3733 8.24847C34.0678 7.70228 33.716 7.18386 33.3828 6.65618C32.8458 5.83225 32.1793 5.80448 31.5961 6.60989C31.2258 7.12831 30.874 7.66525 30.5685 8.22996C30.3741 8.58174 30.1149 8.71135 29.7538 8.78541C29.0965 8.91502 28.4207 9.01685 27.7727 9.202C26.8562 9.46121 26.6711 10.1278 27.2728 10.8591C27.7172 11.4053 28.1523 11.9422 28.6151 12.4699C28.7818 12.6551 28.8095 12.831 28.7725 13.0809C28.6707 13.8215 28.6059 14.5621 28.5133 15.3675C28.5133 16.1266 29.0317 16.5525 29.8001 16.3025C30.5129 16.0711 31.2072 15.8026 31.883 15.4879C32.3181 15.2935 32.707 15.312 33.1236 15.4971C33.7901 15.7841 34.4381 16.1266 35.1417 16.3211C35.9471 16.534 36.5211 16.0248 36.4192 15.2009C36.3267 14.4788 36.2433 13.7567 36.1508 13.0346C36.1137 12.8032 36.1785 12.6365 36.3267 12.4699C36.7803 11.9422 37.2339 11.4146 37.669 10.8591ZM34.7066 14.4325C33.1976 13.5068 31.7442 13.5068 30.2445 14.4418C30.6703 12.8958 30.4296 11.609 29.041 10.6184C29.8279 10.3222 30.624 10.4147 31.2165 10.0074C31.7997 9.60007 32.0126 8.85948 32.4755 8.23922C32.7533 8.67433 33.0402 9.06314 33.2624 9.48898C33.5124 9.9426 33.8734 10.1648 34.3733 10.2481C34.8455 10.3314 35.3176 10.4425 35.9471 10.5814C34.5307 11.5905 34.2159 12.868 34.7066 14.4325ZM37.669 10.8591C38.28 10.0722 38.0393 9.39641 37.0765 9.17423C36.4378 9.02611 35.7897 8.89651 35.1417 8.77616C34.7992 8.71136 34.5492 8.57249 34.3733 8.24847C34.0678 7.70228 33.716 7.18386 33.3828 6.65618C32.8458 5.83225 32.1793 5.80448 31.5961 6.60989C31.2258 7.12831 30.874 7.66525 30.5685 8.22996C30.3741 8.58174 30.1149 8.71135 29.7538 8.78541C29.0965 8.91502 28.4207 9.01685 27.7727 9.202C26.8562 9.46121 26.6711 10.1278 27.2728 10.8591C27.7172 11.4053 28.1523 11.9422 28.6151 12.4699C28.7818 12.6551 28.8095 12.831 28.7725 13.0809C28.6707 13.8215 28.6059 14.5621 28.5133 15.3675C28.5133 16.1266 29.0317 16.5525 29.8001 16.3025C30.5129 16.0711 31.2072 15.8026 31.883 15.4879C32.3181 15.2935 32.707 15.312 33.1236 15.4971C33.7901 15.7841 34.4381 16.1266 35.1417 16.3211C35.9471 16.534 36.5211 16.0248 36.4192 15.2009C36.3267 14.4788 36.2433 13.7567 36.1508 13.0346C36.1137 12.8032 36.1785 12.6365 36.3267 12.4699C36.7803 11.9422 37.2339 11.4146 37.669 10.8591ZM34.7066 14.4325C33.1976 13.5068 31.7442 13.5068 30.2445 14.4418C30.6703 12.8958 30.4296 11.609 29.041 10.6184C29.8279 10.3222 30.624 10.4147 31.2165 10.0074C31.7997 9.60007 32.0126 8.85948 32.4755 8.23922C32.7533 8.67433 33.0402 9.06314 33.2624 9.48898C33.5124 9.9426 33.8734 10.1648 34.3733 10.2481C34.8455 10.3314 35.3176 10.4425 35.9471 10.5814C34.5307 11.5905 34.2159 12.868 34.7066 14.4325ZM37.669 10.8591C38.28 10.0722 38.0393 9.39641 37.0765 9.17423C36.4378 9.02611 35.7897 8.89651 35.1417 8.77616C34.7992 8.71136 34.5492 8.57249 34.3733 8.24847C34.0678 7.70228 33.716 7.18386 33.3828 6.65618C32.8458 5.83225 32.1793 5.80448 31.5961 6.60989C31.2258 7.12831 30.874 7.66525 30.5685 8.22996C30.3741 8.58174 30.1149 8.71135 29.7538 8.78541C29.0965 8.91502 28.4207 9.01685 27.7727 9.202C26.8562 9.46121 26.6711 10.1278 27.2728 10.8591C27.7172 11.4053 28.1523 11.9422 28.6151 12.4699C28.7818 12.6551 28.8095 12.831 28.7725 13.0809C28.6707 13.8215 28.6059 14.5621 28.5133 15.3675C28.5133 16.1266 29.0317 16.5525 29.8001 16.3025C30.5129 16.0711 31.2072 15.8026 31.883 15.4879C32.3181 15.2935 32.707 15.312 33.1236 15.4971C33.7901 15.7841 34.4381 16.1266 35.1417 16.3211C35.9471 16.534 36.5211 16.0248 36.4192 15.2009C36.3267 14.4788 36.2433 13.7567 36.1508 13.0346C36.1137 12.8032 36.1785 12.6365 36.3267 12.4699C36.7803 11.9422 37.2339 11.4146 37.669 10.8591ZM34.7066 14.4325C33.1976 13.5068 31.7442 13.5068 30.2445 14.4418C30.6703 12.8958 30.4296 11.609 29.041 10.6184C29.8279 10.3222 30.624 10.4147 31.2165 10.0074C31.7997 9.60007 32.0126 8.85948 32.4755 8.23922C32.7533 8.67433 33.0402 9.06314 33.2624 9.48898C33.5124 9.9426 33.8734 10.1648 34.3733 10.2481C34.8455 10.3314 35.3176 10.4425 35.9471 10.5814C34.5307 11.5905 34.2159 12.868 34.7066 14.4325ZM37.669 10.8591C38.28 10.0722 38.0393 9.39641 37.0765 9.17423C36.4378 9.02611 35.7897 8.89651 35.1417 8.77616C34.7992 8.71136 34.5492 8.57249 34.3733 8.24847C34.0678 7.70228 33.716 7.18386 33.3828 6.65618C32.8458 5.83225 32.1793 5.80448 31.5961 6.60989C31.2258 7.12831 30.874 7.66525 30.5685 8.22996C30.3741 8.58174 30.1149 8.71135 29.7538 8.78541C29.0965 8.91502 28.4207 9.01685 27.7727 9.202C26.8562 9.46121 26.6711 10.1278 27.2728 10.8591C27.7172 11.4053 28.1523 11.9422 28.6151 12.4699C28.7818 12.6551 28.8095 12.831 28.7725 13.0809C28.6707 13.8215 28.6059 14.5621 28.5133 15.3675C28.5133 16.1266 29.0317 16.5525 29.8001 16.3025C30.5129 16.0711 31.2072 15.8026 31.883 15.4879C32.3181 15.2935 32.707 15.312 33.1236 15.4971C33.7901 15.7841 34.4381 16.1266 35.1417 16.3211C35.9471 16.534 36.5211 16.0248 36.4192 15.2009C36.3267 14.4788 36.2433 13.7567 36.1508 13.0346C36.1137 12.8032 36.1785 12.6365 36.3267 12.4699C36.7803 11.9422 37.2339 11.4146 37.669 10.8591ZM34.7066 14.4325C33.1976 13.5068 31.7442 13.5068 30.2445 14.4418C30.6703 12.8958 30.4296 11.609 29.041 10.6184C29.8279 10.3222 30.624 10.4147 31.2165 10.0074C31.7997 9.60007 32.0126 8.85948 32.4755 8.23922C32.7533 8.67433 33.0402 9.06314 33.2624 9.48898C33.5124 9.9426 33.8734 10.1648 34.3733 10.2481C34.8455 10.3314 35.3176 10.4425 35.9471 10.5814C34.5307 11.5905 34.2159 12.868 34.7066 14.4325ZM37.669 10.8591C38.28 10.0722 38.0393 9.39641 37.0765 9.17423C36.4378 9.02611 35.7897 8.89651 35.1417 8.77616C34.7992 8.71136 34.5492 8.57249 34.3733 8.24847C34.0678 7.70228 33.716 7.18386 33.3828 6.65618C32.8458 5.83225 32.1793 5.80448 31.5961 6.60989C31.2258 7.12831 30.874 7.66525 30.5685 8.22996C30.3741 8.58174 30.1149 8.71135 29.7538 8.78541C29.0965 8.91502 28.4207 9.01685 27.7727 9.202C26.8562 9.46121 26.6711 10.1278 27.2728 10.8591C27.7172 11.4053 28.1523 11.9422 28.6151 12.4699C28.7818 12.6551 28.8095 12.831 28.7725 13.0809C28.6707 13.8215 28.6059 14.5621 28.5133 15.3675C28.5133 16.1266 29.0317 16.5525 29.8001 16.3025C30.5129 16.0711 31.2072 15.8026 31.883 15.4879C32.3181 15.2935 32.707 15.312 33.1236 15.4971C33.7901 15.7841 34.4381 16.1266 35.1417 16.3211C35.9471 16.534 36.5211 16.0248 36.4192 15.2009C36.3267 14.4788 36.2433 13.7567 36.1508 13.0346C36.1137 12.8032 36.1785 12.6365 36.3267 12.4699C36.7803 11.9422 37.2339 11.4146 37.669 10.8591ZM34.7066 14.4325C33.1976 13.5068 31.7442 13.5068 30.2445 14.4418C30.6703 12.8958 30.4296 11.609 29.041 10.6184C29.8279 10.3222 30.624 10.4147 31.2165 10.0074C31.7997 9.60007 32.0126 8.85948 32.4755 8.23922C32.7533 8.67433 33.0402 9.06314 33.2624 9.48898C33.5124 9.9426 33.8734 10.1648 34.3733 10.2481C34.8455 10.3314 35.3176 10.4425 35.9471 10.5814C34.5307 11.5905 34.2159 12.868 34.7066 14.4325ZM37.669 10.8591C38.28 10.0722 38.0393 9.39641 37.0765 9.17423C36.4378 9.02611 35.7897 8.89651 35.1417 8.77616C34.7992 8.71136 34.5492 8.57249 34.3733 8.24847C34.0678 7.70228 33.716 7.18386 33.3828 6.65618C32.8458 5.83225 32.1793 5.80448 31.5961 6.60989C31.2258 7.12831 30.874 7.66525 30.5685 8.22996C30.3741 8.58174 30.1149 8.71135 29.7538 8.78541C29.0965 8.91502 28.4207 9.01685 27.7727 9.202C26.8562 9.46121 26.6711 10.1278 27.2728 10.8591C27.7172 11.4053 28.1523 11.9422 28.6151 12.4699C28.7818 12.6551 28.8095 12.831 28.7725 13.0809C28.6707 13.8215 28.6059 14.5621 28.5133 15.3675C28.5133 16.1266 29.0317 16.5525 29.8001 16.3025C30.5129 16.0711 31.2072 15.8026 31.883 15.4879C32.3181 15.2935 32.707 15.312 33.1236 15.4971C33.7901 15.7841 34.4381 16.1266 35.1417 16.3211C35.9471 16.534 36.5211 16.0248 36.4192 15.2009C36.3267 14.4788 36.2433 13.7567 36.1508 13.0346C36.1137 12.8032 36.1785 12.6365 36.3267 12.4699C36.7803 11.9422 37.2339 11.4146 37.669 10.8591ZM34.7066 14.4325C33.1976 13.5068 31.7442 13.5068 30.2445 14.4418C30.6703 12.8958 30.4296 11.609 29.041 10.6184C29.8279 10.3222 30.624 10.4147 31.2165 10.0074C31.7997 9.60007 32.0126 8.85948 32.4755 8.23922C32.7533 8.67433 33.0402 9.06314 33.2624 9.48898C33.5124 9.9426 33.8734 10.1648 34.3733 10.2481C34.8455 10.3314 35.3176 10.4425 35.9471 10.5814C34.5307 11.5905 34.2159 12.868 34.7066 14.4325ZM37.669 10.8591C38.28 10.0722 38.0393 9.39641 37.0765 9.17423C36.4378 9.02611 35.7897 8.89651 35.1417 8.77616C34.7992 8.71136 34.5492 8.57249 34.3733 8.24847C34.0678 7.70228 33.716 7.18386 33.3828 6.65618C32.8458 5.83225 32.1793 5.80448 31.5961 6.60989C31.2258 7.12831 30.874 7.66525 30.5685 8.22996C30.3741 8.58174 30.1149 8.71135 29.7538 8.78541C29.0965 8.91502 28.4207 9.01685 27.7727 9.202C26.8562 9.46121 26.6711 10.1278 27.2728 10.8591C27.7172 11.4053 28.1523 11.9422 28.6151 12.4699C28.7818 12.6551 28.8095 12.831 28.7725 13.0809C28.6707 13.8215 28.6059 14.5621 28.5133 15.3675C28.5133 16.1266 29.0317 16.5525 29.8001 16.3025C30.5129 16.0711 31.2072 15.8026 31.883 15.4879C32.3181 15.2935 32.707 15.312 33.1236 15.4971C33.7901 15.7841 34.4381 16.1266 35.1417 16.3211C35.9471 16.534 36.5211 16.0248 36.4192 15.2009C36.3267 14.4788 36.2433 13.7567 36.1508 13.0346C36.1137 12.8032 36.1785 12.6365 36.3267 12.4699C36.7803 11.9422 37.2339 11.4146 37.669 10.8591ZM34.7066 14.4325C33.1976 13.5068 31.7442 13.5068 30.2445 14.4418C30.6703 12.8958 30.4296 11.609 29.041 10.6184C29.8279 10.3222 30.624 10.4147 31.2165 10.0074C31.7997 9.60007 32.0126 8.85948 32.4755 8.23922C32.7533 8.67433 33.0402 9.06314 33.2624 9.48898C33.5124 9.9426 33.8734 10.1648 34.3733 10.2481C34.8455 10.3314 35.3176 10.4425 35.9471 10.5814C34.5307 11.5905 34.2159 12.868 34.7066 14.4325ZM37.669 10.8591C38.28 10.0722 38.0393 9.39641 37.0765 9.17423C36.4378 9.02611 35.7897 8.89651 35.1417 8.77616C34.7992 8.71136 34.5492 8.57249 34.3733 8.24847C34.0678 7.70228 33.716 7.18386 33.3828 6.65618C32.8458 5.83225 32.1793 5.80448 31.5961 6.60989C31.2258 7.12831 30.874 7.66525 30.5685 8.22996C30.3741 8.58174 30.1149 8.71135 29.7538 8.78541C29.0965 8.91502 28.4207 9.01685 27.7727 9.202C26.8562 9.46121 26.6711 10.1278 27.2728 10.8591C27.7172 11.4053 28.1523 11.9422 28.6151 12.4699C28.7818 12.6551 28.8095 12.831 28.7725 13.0809C28.6707 13.8215 28.6059 14.5621 28.5133 15.3675C28.5133 16.1266 29.0317 16.5525 29.8001 16.3025C30.5129 16.0711 31.2072 15.8026 31.883 15.4879C32.3181 15.2935 32.707 15.312 33.1236 15.4971C33.7901 15.7841 34.4381 16.1266 35.1417 16.3211C35.9471 16.534 36.5211 16.0248 36.4192 15.2009C36.3267 14.4788 36.2433 13.7567 36.1508 13.0346C36.1137 12.8032 36.1785 12.6365 36.3267 12.4699C36.7803 11.9422 37.2339 11.4146 37.669 10.8591ZM34.7066 14.4325C33.1976 13.5068 31.7442 13.5068 30.2445 14.4418C30.6703 12.8958 30.4296 11.609 29.041 10.6184C29.8279 10.3222 30.624 10.4147 31.2165 10.0074C31.7997 9.60007 32.0126 8.85948 32.4755 8.23922C32.7533 8.67433 33.0402 9.06314 33.2624 9.48898C33.5124 9.9426 33.8734 10.1648 34.3733 10.2481C34.8455 10.3314 35.3176 10.4425 35.9471 10.5814C34.5307 11.5905 34.2159 12.868 34.7066 14.4325Z" fill="#2D0C3E"/>
<path d="M10.1462 29.5496C10.6368 29.9754 10.6275 30.5216 10.1462 30.8734C9.79437 31.1326 9.46109 31.0678 9.15559 30.7993C7.73919 29.5958 6.32278 28.3831 4.91563 27.1611C4.5083 26.8186 4.49905 26.2909 4.90638 25.9391C6.32278 24.7079 7.7577 23.4951 9.18336 22.2731C9.45183 22.0417 9.73882 21.9954 10.0536 22.162C10.3406 22.3102 10.4887 22.5416 10.5072 22.8656C10.535 23.1896 10.3406 23.384 10.1184 23.5692C9.08154 24.4672 8.05395 25.3744 6.98008 26.2446C6.63755 26.5223 6.72086 26.6427 7.00785 26.8741C8.06321 27.7536 9.10931 28.6516 10.1462 29.5496Z" fill="#2D0C3E"/>
<path d="M17.0724 29.4952C17.3223 29.921 17.1927 30.3283 16.7946 30.569C16.3873 30.8097 15.9337 30.7079 15.6745 30.2728C14.3969 28.0695 13.1194 25.857 11.8604 23.6444C11.5178 23.0427 11.9067 22.3854 12.6287 22.3946C12.8602 22.4131 13.0824 22.5613 13.2305 22.8205C14.508 25.0423 15.7948 27.2641 17.0724 29.4952Z" fill="#2D0C3E"/>
<path d="M23.6717 27.1962C22.2831 28.3997 20.8759 29.5939 19.4688 30.7974C19.2003 31.0288 18.8948 31.1214 18.5615 30.9363C18.2838 30.7789 18.1264 30.5475 18.1172 30.1957C18.0894 29.8809 18.3116 29.6865 18.543 29.4829C19.5891 28.5941 20.6167 27.6869 21.6813 26.8167C21.9498 26.5945 21.922 26.4834 21.6721 26.2797C20.6075 25.391 19.5521 24.4838 18.4967 23.5673C18.0061 23.1507 17.9783 22.5952 18.4319 22.2434C18.7652 21.9842 19.1077 21.9935 19.4317 22.262C20.8481 23.4654 22.2646 24.6689 23.6717 25.8909C24.1438 26.2983 24.1438 26.7796 23.6717 27.1962Z" fill="#2D0C3E"/>
<path d="M37.6664 10.8569C38.2774 10.07 38.0367 9.39422 37.0739 9.17204C36.4351 9.02392 35.7871 8.89432 35.1391 8.77398C34.7965 8.70917 34.5466 8.5703 34.3707 8.24629C34.0652 7.70009 33.7134 7.18167 33.3801 6.65399C32.8432 5.83007 32.1767 5.80229 31.5934 6.6077C31.2231 7.12612 30.8713 7.66306 30.5658 8.22777C30.3714 8.57956 30.1122 8.70917 29.7512 8.78323C29.0939 8.91283 28.4181 9.01466 27.7701 9.19981C26.8536 9.45903 26.6684 10.1256 27.2702 10.8569C27.7145 11.4031 28.1496 11.94 28.6125 12.4677C28.7791 12.6529 28.8069 12.8288 28.7699 13.0787C28.668 13.8193 28.6032 14.5599 28.5107 15.3653C28.5107 16.1245 29.0291 16.5503 29.7975 16.3003C30.5103 16.0689 31.2046 15.8005 31.8804 15.4857C32.3155 15.2913 32.7043 15.3098 33.1209 15.4949C33.7875 15.7819 34.4355 16.1245 35.1391 16.3189C35.9445 16.5318 36.5184 16.0226 36.4166 15.1987C36.324 14.4766 36.2407 13.7545 36.1481 13.0324C36.1111 12.801 36.1759 12.6344 36.324 12.4677C36.7777 11.94 37.2313 11.4124 37.6664 10.8569ZM34.704 14.4303C33.195 13.5046 31.7415 13.5046 30.2418 14.4396C30.6677 12.8936 30.427 11.6068 29.0383 10.6162C29.8252 10.32 30.6214 10.4125 31.2139 10.0052C31.7971 9.59788 32.01 8.85729 32.4729 8.23704C32.7506 8.67214 33.0376 9.06095 33.2598 9.4868C33.5097 9.94042 33.8708 10.1626 34.3707 10.2459C34.8428 10.3292 35.315 10.4403 35.9445 10.5792C34.5281 11.5883 34.2133 12.8658 34.704 14.4303Z" fill="#2D0C3E"/>
<path d="M23.6717 27.1962C22.2831 28.3997 20.8759 29.5939 19.4688 30.7974C19.2003 31.0288 18.8948 31.1214 18.5615 30.9363C18.2838 30.7789 18.1264 30.5475 18.1172 30.1957C18.0894 29.8809 18.3116 29.6865 18.543 29.4829C19.5891 28.5941 20.6167 27.6869 21.6813 26.8167C21.9498 26.5945 21.922 26.4834 21.6721 26.2797C20.6075 25.391 19.5521 24.4838 18.4967 23.5673C18.0061 23.1507 17.9783 22.5952 18.4319 22.2434C18.7652 21.9842 19.1077 21.9935 19.4317 22.262C20.8481 23.4654 22.2646 24.6689 23.6717 25.8909C24.1438 26.2983 24.1438 26.7796 23.6717 27.1962Z" fill="#2D0C3E"/>
<path d="M10.1462 30.8734C9.79437 31.1326 9.46109 31.0678 9.15559 30.7993C7.73919 29.5958 6.32278 28.3831 4.91563 27.1611C4.5083 26.8186 4.49905 26.2909 4.90638 25.9391C6.32278 24.7079 7.7577 23.4951 9.18336 22.2731C9.45183 22.0417 9.73882 21.9954 10.0536 22.162C10.3406 22.3102 10.4887 22.5416 10.5072 22.8656C10.535 23.1896 10.3406 23.384 10.1184 23.5692C9.08154 24.4672 8.05395 25.3744 6.98008 26.2446C6.63755 26.5223 6.72086 26.6427 7.00785 26.8741C8.06321 27.7536 9.10931 28.6516 10.1462 29.5496C10.6368 29.9754 10.6275 30.5216 10.1462 30.8734Z" fill="#2D0C3E"/>
<path d="M16.7946 30.569C16.3873 30.8097 15.9337 30.7079 15.6745 30.2728C14.3969 28.0695 13.1194 25.857 11.8604 23.6444C11.5178 23.0427 11.9067 22.3854 12.6287 22.3946C12.8602 22.4131 13.0824 22.5613 13.2305 22.8205C14.508 25.0423 15.7948 27.2641 17.0724 29.4952C17.3223 29.921 17.1927 30.3283 16.7946 30.569Z" fill="#2D0C3E"/>
<path d="M37.6664 10.8569C38.2774 10.07 38.0367 9.39422 37.0739 9.17204C36.4351 9.02392 35.7871 8.89432 35.1391 8.77398C34.7965 8.70917 34.5466 8.5703 34.3707 8.24629C34.0652 7.70009 33.7134 7.18167 33.3801 6.65399C32.8432 5.83007 32.1767 5.80229 31.5934 6.6077C31.2231 7.12612 30.8713 7.66306 30.5658 8.22777C30.3714 8.57956 30.1122 8.70917 29.7512 8.78323C29.0939 8.91283 28.4181 9.01466 27.7701 9.19981C26.8536 9.45903 26.6684 10.1256 27.2702 10.8569C27.7145 11.4031 28.1496 11.94 28.6125 12.4677C28.7791 12.6529 28.8069 12.8288 28.7699 13.0787C28.668 13.8193 28.6032 14.5599 28.5107 15.3653C28.5107 16.1245 29.0291 16.5503 29.7975 16.3003C30.5103 16.0689 31.2046 15.8005 31.8804 15.4857C32.3155 15.2913 32.7043 15.3098 33.1209 15.4949C33.7875 15.7819 34.4355 16.1245 35.1391 16.3189C35.9445 16.5318 36.5184 16.0226 36.4166 15.1987C36.324 14.4766 36.2407 13.7545 36.1481 13.0324C36.1111 12.801 36.1759 12.6344 36.324 12.4677C36.7777 11.94 37.2313 11.4124 37.6664 10.8569ZM34.704 14.4303C33.195 13.5046 31.7415 13.5046 30.2418 14.4396C30.6677 12.8936 30.427 11.6068 29.0383 10.6162C29.8252 10.32 30.6214 10.4125 31.2139 10.0052C31.7971 9.59788 32.01 8.85729 32.4729 8.23704C32.7506 8.67214 33.0376 9.06095 33.2598 9.4868C33.5097 9.94042 33.8708 10.1626 34.3707 10.2459C34.8428 10.3292 35.315 10.4403 35.9445 10.5792C34.5281 11.5883 34.2133 12.8658 34.704 14.4303Z" fill="#2D0C3E"/>
</svg>
