<svg width="48" height="47" viewBox="0 0 48 47" fill="none" xmlns="http://www.w3.org/2000/svg">
<path d="M23.6885 9.7074C21.7174 9.7074 20.0982 11.3353 20.0806 13.3328C20.063 15.3567 21.6734 16.9934 23.6797 16.9934C25.6684 17.0022 27.3051 15.3831 27.3227 13.412C27.3403 11.3793 25.7036 9.7074 23.6885 9.7074ZM23.6797 15.2951C22.5973 15.2951 21.7526 14.4328 21.7526 13.3504C21.7614 12.2681 22.6149 11.4145 23.6885 11.4145C24.7796 11.4145 25.6596 12.2945 25.6508 13.3856C25.642 14.4504 24.762 15.2951 23.6797 15.2951ZM23.6885 9.7074C21.7174 9.7074 20.0982 11.3353 20.0806 13.3328C20.063 15.3567 21.6734 16.9934 23.6797 16.9934C25.6684 17.0022 27.3051 15.3831 27.3227 13.412C27.3403 11.3793 25.7036 9.7074 23.6885 9.7074ZM23.6797 15.2951C22.5973 15.2951 21.7526 14.4328 21.7526 13.3504C21.7614 12.2681 22.6149 11.4145 23.6885 11.4145C24.7796 11.4145 25.6596 12.2945 25.6508 13.3856C25.642 14.4504 24.762 15.2951 23.6797 15.2951ZM23.6885 9.7074C21.7174 9.7074 20.0982 11.3353 20.0806 13.3328C20.063 15.3567 21.6734 16.9934 23.6797 16.9934C25.6684 17.0022 27.3051 15.3831 27.3227 13.412C27.3403 11.3793 25.7036 9.7074 23.6885 9.7074ZM23.6797 15.2951C22.5973 15.2951 21.7526 14.4328 21.7526 13.3504C21.7614 12.2681 22.6149 11.4145 23.6885 11.4145C24.7796 11.4145 25.6596 12.2945 25.6508 13.3856C25.642 14.4504 24.762 15.2951 23.6797 15.2951ZM23.6885 9.7074C21.7174 9.7074 20.0982 11.3353 20.0806 13.3328C20.063 15.3567 21.6734 16.9934 23.6797 16.9934C25.6684 17.0022 27.3051 15.3831 27.3227 13.412C27.3403 11.3793 25.7036 9.7074 23.6885 9.7074ZM23.6797 15.2951C22.5973 15.2951 21.7526 14.4328 21.7526 13.3504C21.7614 12.2681 22.6149 11.4145 23.6885 11.4145C24.7796 11.4145 25.6596 12.2945 25.6508 13.3856C25.642 14.4504 24.762 15.2951 23.6797 15.2951ZM23.6885 9.7074C21.7174 9.7074 20.0982 11.3353 20.0806 13.3328C20.063 15.3567 21.6734 16.9934 23.6797 16.9934C25.6684 17.0022 27.3051 15.3831 27.3227 13.412C27.3403 11.3793 25.7036 9.7074 23.6885 9.7074ZM23.6797 15.2951C22.5973 15.2951 21.7526 14.4328 21.7526 13.3504C21.7614 12.2681 22.6149 11.4145 23.6885 11.4145C24.7796 11.4145 25.6596 12.2945 25.6508 13.3856C25.642 14.4504 24.762 15.2951 23.6797 15.2951ZM23.6885 9.7074C21.7174 9.7074 20.0982 11.3353 20.0806 13.3328C20.063 15.3567 21.6734 16.9934 23.6797 16.9934C25.6684 17.0022 27.3051 15.3831 27.3227 13.412C27.3403 11.3793 25.7036 9.7074 23.6885 9.7074ZM23.6797 15.2951C22.5973 15.2951 21.7526 14.4328 21.7526 13.3504C21.7614 12.2681 22.6149 11.4145 23.6885 11.4145C24.7796 11.4145 25.6596 12.2945 25.6508 13.3856C25.642 14.4504 24.762 15.2951 23.6797 15.2951ZM23.6885 9.7074C21.7174 9.7074 20.0982 11.3353 20.0806 13.3328C20.063 15.3567 21.6734 16.9934 23.6797 16.9934C25.6684 17.0022 27.3051 15.3831 27.3227 13.412C27.3403 11.3793 25.7036 9.7074 23.6885 9.7074ZM23.6797 15.2951C22.5973 15.2951 21.7526 14.4328 21.7526 13.3504C21.7614 12.2681 22.6149 11.4145 23.6885 11.4145C24.7796 11.4145 25.6596 12.2945 25.6508 13.3856C25.642 14.4504 24.762 15.2951 23.6797 15.2951ZM23.6885 9.7074C21.7174 9.7074 20.0982 11.3353 20.0806 13.3328C20.063 15.3567 21.6734 16.9934 23.6797 16.9934C25.6684 17.0022 27.3051 15.3831 27.3227 13.412C27.3403 11.3793 25.7036 9.7074 23.6885 9.7074ZM23.6797 15.2951C22.5973 15.2951 21.7526 14.4328 21.7526 13.3504C21.7614 12.2681 22.6149 11.4145 23.6885 11.4145C24.7796 11.4145 25.6596 12.2945 25.6508 13.3856C25.642 14.4504 24.762 15.2951 23.6797 15.2951ZM23.6885 9.7074C21.7174 9.7074 20.0982 11.3353 20.0806 13.3328C20.063 15.3567 21.6734 16.9934 23.6797 16.9934C25.6684 17.0022 27.3051 15.3831 27.3227 13.412C27.3403 11.3793 25.7036 9.7074 23.6885 9.7074ZM23.6797 15.2951C22.5973 15.2951 21.7526 14.4328 21.7526 13.3504C21.7614 12.2681 22.6149 11.4145 23.6885 11.4145C24.7796 11.4145 25.6596 12.2945 25.6508 13.3856C25.642 14.4504 24.762 15.2951 23.6797 15.2951ZM23.6885 9.7074C21.7174 9.7074 20.0982 11.3353 20.0806 13.3328C20.063 15.3567 21.6734 16.9934 23.6797 16.9934C25.6684 17.0022 27.3051 15.3831 27.3227 13.412C27.3403 11.3793 25.7036 9.7074 23.6885 9.7074ZM23.6797 15.2951C22.5973 15.2951 21.7526 14.4328 21.7526 13.3504C21.7614 12.2681 22.6149 11.4145 23.6885 11.4145C24.7796 11.4145 25.6596 12.2945 25.6508 13.3856C25.642 14.4504 24.762 15.2951 23.6797 15.2951ZM47.2977 14.5912C46.7786 12.1537 44.4115 10.4378 41.886 10.7018C39.8445 10.9217 38.4542 12.0305 37.671 13.9048C37.5918 14.0808 37.5654 14.2656 37.2662 14.2304C35.7703 14.028 34.2744 13.8432 32.7784 13.6672C32.5056 13.632 32.3913 13.544 32.4001 13.236C32.4353 11.9337 32.1097 10.7106 31.5465 9.54901C31.4321 9.31142 31.4321 9.19704 31.6697 9.03865C32.5233 8.49307 33.368 7.92989 34.204 7.34911C34.468 7.16432 34.6088 7.13792 34.8904 7.3667C36.2895 8.52825 38.2254 8.59865 39.7829 7.58669C41.2701 6.60994 41.9564 4.85003 41.5076 3.16051C40.9005 0.855016 38.6478 -0.464906 36.3687 0.151064C34.1336 0.767035 32.8489 3.11651 33.544 5.3868C33.6232 5.65079 33.5616 5.7652 33.3504 5.89719C32.4969 6.45156 31.6433 7.00592 30.8161 7.58669C30.5258 7.78908 30.3938 7.76269 30.1474 7.5075C27.9915 5.20201 25.334 4.26926 22.2189 4.78843C19.6583 5.20201 17.7048 6.56594 16.2968 8.73944C16.1912 8.89783 16.1472 9.08264 15.8569 8.95065C13.965 8.08829 12.0554 7.23472 10.1459 6.38996C9.95232 6.31077 9.89953 6.23158 9.95232 6.01159C10.1019 5.36042 10.1019 4.70043 9.95232 4.04046C9.34515 1.30379 6.91648 -0.350509 4.13581 0.0718712C2.11191 0.379857 0.263984 2.27175 0.079193 4.20766C-0.0088028 4.36605 0.114395 4.55086 0 4.69165V5.89719C0.0703966 5.92359 0.0792102 5.97639 0.0968093 6.03799C0.571987 8.16748 1.92711 9.46981 4.01261 9.92739C6.04531 10.3674 7.75244 9.71621 9.02838 8.04429C9.19557 7.8155 9.32756 7.8771 9.52115 7.9651C11.3691 8.79226 13.217 9.61941 15.0737 10.429C15.3553 10.5522 15.4081 10.6666 15.3201 10.9745C14.9153 12.3121 14.8625 13.676 15.1441 15.0399C15.2145 15.3655 15.1001 15.4359 14.8537 15.5151C13.4986 15.9727 12.1522 16.4215 10.8059 16.9054C10.4627 17.0198 10.2867 16.9847 10.0667 16.6679C8.85238 15.0135 6.67889 14.5472 4.82218 15.5239C3.03586 16.4479 2.19991 18.507 2.82468 20.4341C3.45825 22.3612 5.42936 23.5931 7.36527 23.2851C9.44197 22.9508 10.9379 21.2172 10.9115 19.1405C10.9115 18.7446 11.0259 18.595 11.3867 18.4718C12.7066 18.0494 14.009 17.6006 15.3113 17.1254C15.6457 17.011 15.7777 17.0639 15.9536 17.3982C18.6111 22.5372 25.5188 23.6811 29.6986 19.6861C30.8865 18.5598 31.6961 17.2046 32.1361 15.6207C32.1713 15.4711 32.1273 15.2511 32.4529 15.2951C33.94 15.4975 35.4447 15.6911 36.9406 15.8495C37.2838 15.8847 37.3542 16.0255 37.3982 16.3247C37.8118 19.5013 41.0501 21.49 44.0419 20.4253C46.4442 19.5629 47.8345 17.0727 47.2977 14.5912ZM37.4862 1.69977C38.859 1.69097 39.9413 2.78213 39.9413 4.15486C39.9325 5.5188 38.815 6.62755 37.4686 6.60995C36.1311 6.59235 35.0399 5.49241 35.0311 4.16367C35.0135 2.80854 36.1223 1.69977 37.4862 1.69977ZM5.02458 8.35225C3.17667 8.35225 1.66314 6.84753 1.67194 4.99961C1.67194 3.1693 3.19427 1.68217 5.05098 1.69977C6.90769 1.70857 8.36841 3.16931 8.36841 5.00842C8.35961 6.87393 6.88129 8.35225 5.02458 8.35225ZM6.7581 21.6396C5.42056 21.6308 4.3382 20.5309 4.32941 19.1846C4.32061 17.803 5.40295 16.7207 6.77569 16.7207C8.13962 16.7207 9.25717 17.8294 9.24837 19.1758C9.23957 20.5221 8.09563 21.6484 6.7581 21.6396ZM23.6885 20.4253C19.7815 20.4165 16.64 17.231 16.6576 13.3064C16.6752 9.43461 19.8255 6.31957 23.7149 6.33717C27.6131 6.35477 30.7546 9.52262 30.737 13.4032C30.7194 17.2486 27.5339 20.4253 23.6885 20.4253ZM42.3612 19.035C40.5221 19.0174 39.035 17.5126 39.0438 15.6647C39.0526 13.7992 40.5221 12.3561 42.414 12.3649C44.2355 12.3737 45.749 13.8872 45.7402 15.6823C45.7314 17.5038 44.1739 19.0438 42.3612 19.035ZM23.6885 9.7074C21.7174 9.7074 20.0982 11.3353 20.0806 13.3328C20.063 15.3567 21.6734 16.9934 23.6797 16.9934C25.6684 17.0022 27.3051 15.3831 27.3227 13.412C27.3403 11.3793 25.7036 9.7074 23.6885 9.7074ZM23.6797 15.2951C22.5973 15.2951 21.7526 14.4328 21.7526 13.3504C21.7614 12.2681 22.6149 11.4145 23.6885 11.4145C24.7796 11.4145 25.6596 12.2945 25.6508 13.3856C25.642 14.4504 24.762 15.2951 23.6797 15.2951ZM23.6885 9.7074C21.7174 9.7074 20.0982 11.3353 20.0806 13.3328C20.063 15.3567 21.6734 16.9934 23.6797 16.9934C25.6684 17.0022 27.3051 15.3831 27.3227 13.412C27.3403 11.3793 25.7036 9.7074 23.6885 9.7074ZM23.6797 15.2951C22.5973 15.2951 21.7526 14.4328 21.7526 13.3504C21.7614 12.2681 22.6149 11.4145 23.6885 11.4145C24.7796 11.4145 25.6596 12.2945 25.6508 13.3856C25.642 14.4504 24.762 15.2951 23.6797 15.2951ZM23.6885 9.7074C21.7174 9.7074 20.0982 11.3353 20.0806 13.3328C20.063 15.3567 21.6734 16.9934 23.6797 16.9934C25.6684 17.0022 27.3051 15.3831 27.3227 13.412C27.3403 11.3793 25.7036 9.7074 23.6885 9.7074ZM23.6797 15.2951C22.5973 15.2951 21.7526 14.4328 21.7526 13.3504C21.7614 12.2681 22.6149 11.4145 23.6885 11.4145C24.7796 11.4145 25.6596 12.2945 25.6508 13.3856C25.642 14.4504 24.762 15.2951 23.6797 15.2951ZM23.6885 9.7074C21.7174 9.7074 20.0982 11.3353 20.0806 13.3328C20.063 15.3567 21.6734 16.9934 23.6797 16.9934C25.6684 17.0022 27.3051 15.3831 27.3227 13.412C27.3403 11.3793 25.7036 9.7074 23.6885 9.7074ZM23.6797 15.2951C22.5973 15.2951 21.7526 14.4328 21.7526 13.3504C21.7614 12.2681 22.6149 11.4145 23.6885 11.4145C24.7796 11.4145 25.6596 12.2945 25.6508 13.3856C25.642 14.4504 24.762 15.2951 23.6797 15.2951ZM23.6885 9.7074C21.7174 9.7074 20.0982 11.3353 20.0806 13.3328C20.063 15.3567 21.6734 16.9934 23.6797 16.9934C25.6684 17.0022 27.3051 15.3831 27.3227 13.412C27.3403 11.3793 25.7036 9.7074 23.6885 9.7074ZM23.6797 15.2951C22.5973 15.2951 21.7526 14.4328 21.7526 13.3504C21.7614 12.2681 22.6149 11.4145 23.6885 11.4145C24.7796 11.4145 25.6596 12.2945 25.6508 13.3856C25.642 14.4504 24.762 15.2951 23.6797 15.2951ZM23.6885 9.7074C21.7174 9.7074 20.0982 11.3353 20.0806 13.3328C20.063 15.3567 21.6734 16.9934 23.6797 16.9934C25.6684 17.0022 27.3051 15.3831 27.3227 13.412C27.3403 11.3793 25.7036 9.7074 23.6885 9.7074ZM23.6797 15.2951C22.5973 15.2951 21.7526 14.4328 21.7526 13.3504C21.7614 12.2681 22.6149 11.4145 23.6885 11.4145C24.7796 11.4145 25.6596 12.2945 25.6508 13.3856C25.642 14.4504 24.762 15.2951 23.6797 15.2951ZM23.6885 9.7074C21.7174 9.7074 20.0982 11.3353 20.0806 13.3328C20.063 15.3567 21.6734 16.9934 23.6797 16.9934C25.6684 17.0022 27.3051 15.3831 27.3227 13.412C27.3403 11.3793 25.7036 9.7074 23.6885 9.7074ZM23.6797 15.2951C22.5973 15.2951 21.7526 14.4328 21.7526 13.3504C21.7614 12.2681 22.6149 11.4145 23.6885 11.4145C24.7796 11.4145 25.6596 12.2945 25.6508 13.3856C25.642 14.4504 24.762 15.2951 23.6797 15.2951ZM23.6885 9.7074C21.7174 9.7074 20.0982 11.3353 20.0806 13.3328C20.063 15.3567 21.6734 16.9934 23.6797 16.9934C25.6684 17.0022 27.3051 15.3831 27.3227 13.412C27.3403 11.3793 25.7036 9.7074 23.6885 9.7074ZM23.6797 15.2951C22.5973 15.2951 21.7526 14.4328 21.7526 13.3504C21.7614 12.2681 22.6149 11.4145 23.6885 11.4145C24.7796 11.4145 25.6596 12.2945 25.6508 13.3856C25.642 14.4504 24.762 15.2951 23.6797 15.2951ZM23.6885 9.7074C21.7174 9.7074 20.0982 11.3353 20.0806 13.3328C20.063 15.3567 21.6734 16.9934 23.6797 16.9934C25.6684 17.0022 27.3051 15.3831 27.3227 13.412C27.3403 11.3793 25.7036 9.7074 23.6885 9.7074ZM23.6797 15.2951C22.5973 15.2951 21.7526 14.4328 21.7526 13.3504C21.7614 12.2681 22.6149 11.4145 23.6885 11.4145C24.7796 11.4145 25.6596 12.2945 25.6508 13.3856C25.642 14.4504 24.762 15.2951 23.6797 15.2951ZM23.6885 9.7074C21.7174 9.7074 20.0982 11.3353 20.0806 13.3328C20.063 15.3567 21.6734 16.9934 23.6797 16.9934C25.6684 17.0022 27.3051 15.3831 27.3227 13.412C27.3403 11.3793 25.7036 9.7074 23.6885 9.7074ZM23.6797 15.2951C22.5973 15.2951 21.7526 14.4328 21.7526 13.3504C21.7614 12.2681 22.6149 11.4145 23.6885 11.4145C24.7796 11.4145 25.6596 12.2945 25.6508 13.3856C25.642 14.4504 24.762 15.2951 23.6797 15.2951ZM23.6885 9.7074C21.7174 9.7074 20.0982 11.3353 20.0806 13.3328C20.063 15.3567 21.6734 16.9934 23.6797 16.9934C25.6684 17.0022 27.3051 15.3831 27.3227 13.412C27.3403 11.3793 25.7036 9.7074 23.6885 9.7074ZM23.6797 15.2951C22.5973 15.2951 21.7526 14.4328 21.7526 13.3504C21.7614 12.2681 22.6149 11.4145 23.6885 11.4145C24.7796 11.4145 25.6596 12.2945 25.6508 13.3856C25.642 14.4504 24.762 15.2951 23.6797 15.2951Z" fill="#2D0C3E"/>
<path d="M46.849 41.8336C46.6554 41.7808 46.4442 41.728 46.2506 41.7632C45.8018 41.8248 45.7578 41.6136 45.7666 41.2352C45.7842 40.4872 45.7842 39.7217 45.7402 38.9737C45.6258 36.9762 43.8307 35.2779 41.8244 35.2515C40.0029 35.2339 38.1902 35.2339 36.3687 35.2515C34.248 35.2779 32.4353 37.117 32.4089 39.2289C32.4001 39.9769 32.4001 40.716 32.4089 41.4552C32.4177 41.6928 32.3473 41.772 32.1009 41.7632C31.6257 41.7456 31.1505 41.7456 30.6665 41.7632C30.429 41.772 30.3586 41.7016 30.3586 41.4552C30.3762 40.6808 30.385 39.9065 30.3586 39.1409C30.297 37.0554 28.493 35.2691 26.4075 35.2515C24.6036 35.2427 22.7997 35.2427 20.9958 35.2515C19.1831 35.2691 17.5288 36.6066 17.1328 38.3929C16.9128 39.3785 17.0536 40.3904 17.036 41.3848C17.0272 41.6488 16.992 41.7808 16.684 41.7632C16.2264 41.7368 15.7601 41.7456 15.2937 41.7632C15.0561 41.772 14.9769 41.7016 14.9857 41.4552C15.0033 40.7336 15.0033 40.0033 14.9857 39.2817C14.9241 37.0202 13.1378 35.2603 10.8851 35.2515C9.13399 35.2427 7.37405 35.2427 5.61414 35.2515C3.56383 35.2691 1.78633 36.9498 1.66313 38.9825C1.61914 39.7481 1.61914 40.5224 1.63674 41.2968C1.64554 41.64 1.58394 41.7896 1.19676 41.7632C0.72158 41.728 0.272787 41.8248 0 42.2824V46.4534C0.299186 46.8845 0.703979 46.9989 1.22315 46.9989C16.2088 46.9901 31.1857 46.9901 46.1714 46.9901C46.3298 46.9901 46.4794 47.0077 46.6378 46.9813C47.0954 46.9197 47.3946 46.6029 47.4034 46.1454C47.4122 44.9486 47.4034 43.7431 47.4034 42.5375C47.4034 42.1592 47.1834 41.9392 46.849 41.8336ZM34.1248 39.0265C34.2744 37.7858 35.2423 36.9498 36.4831 36.9234C38.2254 36.897 39.9677 36.8882 41.71 36.9322C43.0916 36.9586 44.0683 38.0234 44.0771 39.4137C44.0859 40.0649 44.0683 40.7072 44.0859 41.3584C44.1035 41.6752 44.0243 41.772 43.6899 41.7632C42.15 41.7456 40.6101 41.7544 39.0702 41.7544C37.5302 41.7544 35.9903 41.7456 34.4504 41.7632C34.1424 41.772 34.0544 41.684 34.072 41.3848C34.0984 40.6016 34.028 39.8009 34.1248 39.0265ZM18.6991 39.4049C18.7079 38.0321 19.7023 36.9586 21.0926 36.9322C22.8261 36.8882 24.5684 36.8882 26.3108 36.9234C27.6747 36.9586 28.6426 37.9794 28.6866 39.3785C28.7042 40.0473 28.669 40.7336 28.6954 41.4112C28.7042 41.7016 28.5986 41.7632 28.3259 41.7632C26.7683 41.7544 25.2196 41.7544 23.6621 41.7544C22.1486 41.7544 20.6438 41.7456 19.1303 41.7632C18.8047 41.772 18.6727 41.7192 18.6903 41.3496C18.7255 40.7072 18.6991 40.0561 18.6991 39.4049ZM3.32624 39.4049C3.33504 38.0058 4.303 36.9586 5.70214 36.9322C7.44445 36.8882 9.18677 36.897 10.9291 36.9234C12.2314 36.9498 13.1906 37.9002 13.2698 39.2025C13.3138 39.9505 13.2786 40.716 13.2962 41.464C13.305 41.7896 13.1202 41.7632 12.9178 41.7632C11.3691 41.7544 9.82914 41.7544 8.28922 41.7544C6.77569 41.7544 5.26217 41.7456 3.75744 41.7632C3.43185 41.772 3.29106 41.7192 3.31746 41.3496C3.35266 40.6984 3.31744 40.0561 3.32624 39.4049ZM45.6698 45.195C45.4235 45.4678 44.8603 45.283 44.4379 45.283C37.5214 45.2918 30.6137 45.283 23.7061 45.283C16.5168 45.283 9.32756 45.283 2.1471 45.2918C1.77752 45.2918 1.61034 45.239 1.66313 44.8254C1.69833 44.4822 1.68073 44.1215 1.66313 43.7695C1.64553 43.5143 1.74232 43.4351 1.97991 43.4703C2.0503 43.4791 2.12951 43.4703 2.2087 43.4703C16.5344 43.4703 30.8689 43.4703 45.1947 43.4615C45.617 43.4615 45.8106 43.5231 45.749 43.9983C45.6962 44.403 45.881 44.9662 45.6698 45.195Z" fill="#2D0C3E"/>
<path d="M0.079193 4.20703C0.0967922 4.37422 0.131994 4.55023 0 4.69102C0 4.53263 0 4.38304 0 4.22465C0.0263987 4.21585 0.0527943 4.21583 0.079193 4.20703Z" fill="#2D0C3E"/>
<path d="M23.7255 26.6407C21.5344 26.6319 19.7481 28.4094 19.7305 30.5917C19.7217 32.7652 21.508 34.5691 23.6815 34.5779C25.8638 34.5867 27.6765 32.8004 27.6765 30.6269C27.6853 28.4446 25.899 26.6495 23.7255 26.6407ZM23.6815 32.8707C22.432 32.8619 21.42 31.85 21.42 30.6093C21.4288 29.3597 22.4672 28.3038 23.7079 28.3126C24.9486 28.3214 25.987 29.3597 25.987 30.6093C25.987 31.8676 24.9574 32.8707 23.6815 32.8707Z" fill="#2D0C3E"/>
<path d="M8.30647 26.6406C6.12418 26.6406 4.35547 28.4181 4.35547 30.618C4.35547 32.8003 6.15939 34.6042 8.32409 34.5778C10.5152 34.5602 12.3103 32.7563 12.2927 30.6004C12.2839 28.4181 10.4976 26.6406 8.30647 26.6406ZM8.31528 32.8707C7.06574 32.8707 6.04498 31.8764 6.02738 30.6356C6.00978 29.3949 7.05695 28.3213 8.29769 28.3125C9.54723 28.3037 10.5768 29.3245 10.5856 30.5916C10.5944 31.8676 9.60002 32.8707 8.31528 32.8707Z" fill="#2D0C3E"/>
<path d="M39.0957 26.6406C36.9134 26.6406 35.1271 28.4093 35.1095 30.5916C35.0919 32.7563 36.9046 34.5778 39.0693 34.5778C41.2604 34.5778 43.0467 32.8003 43.0467 30.618C43.0555 28.4269 41.2868 26.6494 39.0957 26.6406ZM39.0605 32.8707C37.8022 32.8619 36.8166 31.8764 36.8166 30.618C36.8254 29.3421 37.8462 28.3037 39.0869 28.3125C40.3364 28.3213 41.3748 29.3685 41.3748 30.618C41.3748 31.8588 40.3364 32.8707 39.0605 32.8707Z" fill="#2D0C3E"/>
<path d="M23.69 9.70703C21.7189 9.70703 20.0998 11.3349 20.0822 13.3325C20.0646 15.3564 21.6749 16.9931 23.6812 16.9931C25.6699 17.0019 27.3066 15.3828 27.3242 13.4116C27.3418 11.3789 25.7051 9.70703 23.69 9.70703ZM23.6812 15.2948C22.5989 15.2948 21.7541 14.4324 21.7541 13.3501C21.7629 12.2677 22.6165 11.4142 23.69 11.4142C24.7812 11.4142 25.6611 12.2941 25.6523 13.3852C25.6435 14.45 24.7635 15.2948 23.6812 15.2948Z" fill="#2D0C3E"/>
<path d="M23.69 9.70703C21.7189 9.70703 20.0998 11.3349 20.0822 13.3325C20.0646 15.3564 21.6749 16.9931 23.6812 16.9931C25.6699 17.0019 27.3066 15.3828 27.3242 13.4116C27.3418 11.3789 25.7051 9.70703 23.69 9.70703ZM23.6812 15.2948C22.5989 15.2948 21.7541 14.4324 21.7541 13.3501C21.7629 12.2677 22.6165 11.4142 23.69 11.4142C24.7812 11.4142 25.6611 12.2941 25.6523 13.3852C25.6435 14.45 24.7635 15.2948 23.6812 15.2948Z" fill="#2D0C3E"/>
</svg>
