<svg width="47" height="49" viewBox="0 0 47 49" fill="none" xmlns="http://www.w3.org/2000/svg">
<path d="M30.8205 24.301C29.8303 23.9921 28.8128 23.7649 27.8045 23.5106C27.2867 23.3743 27.1776 23.0836 27.4956 22.6748C28.0588 21.9662 28.4949 21.185 28.722 20.3129C28.8129 19.9676 28.9491 19.6951 29.2671 19.4771C29.6123 19.2318 29.8121 18.8412 29.8757 18.4233C29.9757 17.7056 30.0574 16.9789 30.1119 16.2612C30.1574 15.7525 29.9393 15.3255 29.5941 14.9621C29.2216 14.5624 29.1853 13.8266 29.5487 13.4177C30.3118 12.5456 30.4208 11.5827 29.9666 10.5561C29.5124 9.53869 28.7674 8.80283 27.6955 8.4667C25.9149 7.91255 24.1707 8.04882 22.4991 8.89367C22.3175 8.98452 22.1539 9.06628 21.945 9.06628C21.4272 9.06628 20.9275 9.15714 20.4279 9.28433C18.9108 9.68404 17.8661 10.5743 17.6208 12.1913C17.5118 12.8818 17.53 13.5813 17.6299 14.2717C17.6662 14.5261 17.6299 14.6896 17.4209 14.8622C16.8759 15.3346 16.7123 15.9523 16.8032 16.6609C16.8668 17.1515 16.9213 17.642 16.9849 18.1417C17.0666 18.7776 17.3301 19.3136 17.9024 19.6497C18.0659 19.7587 18.1568 19.8677 18.2113 20.0585C18.4475 20.9942 18.8744 21.8481 19.4649 22.6203C19.7647 22.9928 19.6285 23.3834 19.1652 23.5015C18.3657 23.7105 17.5663 23.9103 16.7668 24.1011C14.1596 24.737 12.5971 26.463 12.2519 29.1157C12.1156 30.1604 12.5335 30.6328 13.5964 30.6328H23.453C26.7689 30.6328 30.0847 30.6419 33.4005 30.6328C34.3271 30.6328 34.7359 30.1877 34.6814 29.2702C34.5452 26.9809 33.0099 24.9732 30.8205 24.301ZM31.9652 28.5706H14.4412C14.9045 27.2806 15.7403 26.5085 16.9758 26.1814C18.1386 25.8725 19.3105 25.5818 20.4824 25.3002C20.9639 25.1821 21.2637 24.9096 21.3727 24.419C21.4908 23.8921 21.618 23.3562 21.7724 22.8383C21.8905 22.4205 21.7906 22.0752 21.4998 21.7936C20.7095 21.0033 20.2371 20.0585 20.1009 18.9502C20.0554 18.5141 19.8556 18.1689 19.4104 18.0962C19.0561 18.0417 19.0198 17.8146 18.9744 17.5603C18.9471 17.3786 18.9289 17.1969 18.8926 17.0243C18.8199 16.6882 18.7927 16.4429 19.2378 16.2975C19.7102 16.134 19.8556 15.6889 19.8011 15.1892C19.7193 14.3716 19.583 13.554 19.6375 12.7183C19.683 11.9552 19.9737 11.5918 20.7004 11.3465C21.2091 11.1739 21.736 11.1285 22.272 11.1285C22.6627 11.1194 23.0079 11.0195 23.344 10.8105C24.4705 10.1201 25.6969 10.1019 26.9415 10.3744C27.2958 10.4562 27.5955 10.6742 27.8317 10.974C28.2678 11.5373 28.2678 11.7916 27.7591 12.2822C27.4684 12.5638 27.3048 12.8818 27.2957 13.2906C27.2776 13.9719 27.2321 14.6442 27.2049 15.3255C27.1867 15.7888 27.3321 16.1431 27.8317 16.243C27.8681 16.2521 27.9135 16.2521 27.9317 16.2703C28.1679 16.5065 28.0407 16.8153 27.9953 17.0606C27.9498 17.3513 28.1588 17.7783 27.7591 17.9236C27.2231 18.1144 26.9778 18.4505 26.9051 19.0047C26.7598 20.0948 26.3056 21.0305 25.497 21.7845C25.1427 22.1207 25.061 22.5113 25.1609 22.9564C25.279 23.4561 25.4153 23.9557 25.5424 24.4463C25.6515 24.9096 25.9422 25.1821 26.4055 25.2912C27.5955 25.5819 28.7856 25.8816 29.9666 26.1905C31.0113 26.463 31.7835 27.099 32.2649 28.071C32.5102 28.5525 32.4921 28.5706 31.9652 28.5706ZM30.8205 24.301C29.8303 23.9921 28.8128 23.7649 27.8045 23.5106C27.2867 23.3743 27.1776 23.0836 27.4956 22.6748C28.0588 21.9662 28.4949 21.185 28.722 20.3129C28.8129 19.9676 28.9491 19.6951 29.2671 19.4771C29.6123 19.2318 29.8121 18.8412 29.8757 18.4233C29.9757 17.7056 30.0574 16.9789 30.1119 16.2612C30.1574 15.7525 29.9393 15.3255 29.5941 14.9621C29.2216 14.5624 29.1853 13.8266 29.5487 13.4177C30.3118 12.5456 30.4208 11.5827 29.9666 10.5561C29.5124 9.53869 28.7674 8.80283 27.6955 8.4667C25.9149 7.91255 24.1707 8.04882 22.4991 8.89367C22.3175 8.98452 22.1539 9.06628 21.945 9.06628C21.4272 9.06628 20.9275 9.15714 20.4279 9.28433C18.9108 9.68404 17.8661 10.5743 17.6208 12.1913C17.5118 12.8818 17.53 13.5813 17.6299 14.2717C17.6662 14.5261 17.6299 14.6896 17.4209 14.8622C16.8759 15.3346 16.7123 15.9523 16.8032 16.6609C16.8668 17.1515 16.9213 17.642 16.9849 18.1417C17.0666 18.7776 17.3301 19.3136 17.9024 19.6497C18.0659 19.7587 18.1568 19.8677 18.2113 20.0585C18.4475 20.9942 18.8744 21.8481 19.4649 22.6203C19.7647 22.9928 19.6285 23.3834 19.1652 23.5015C18.3657 23.7105 17.5663 23.9103 16.7668 24.1011C14.1596 24.737 12.5971 26.463 12.2519 29.1157C12.1156 30.1604 12.5335 30.6328 13.5964 30.6328H23.453C26.7689 30.6328 30.0847 30.6419 33.4005 30.6328C34.3271 30.6328 34.7359 30.1877 34.6814 29.2702C34.5452 26.9809 33.0099 24.9732 30.8205 24.301ZM31.9652 28.5706H14.4412C14.9045 27.2806 15.7403 26.5085 16.9758 26.1814C18.1386 25.8725 19.3105 25.5818 20.4824 25.3002C20.9639 25.1821 21.2637 24.9096 21.3727 24.419C21.4908 23.8921 21.618 23.3562 21.7724 22.8383C21.8905 22.4205 21.7906 22.0752 21.4998 21.7936C20.7095 21.0033 20.2371 20.0585 20.1009 18.9502C20.0554 18.5141 19.8556 18.1689 19.4104 18.0962C19.0561 18.0417 19.0198 17.8146 18.9744 17.5603C18.9471 17.3786 18.9289 17.1969 18.8926 17.0243C18.8199 16.6882 18.7927 16.4429 19.2378 16.2975C19.7102 16.134 19.8556 15.6889 19.8011 15.1892C19.7193 14.3716 19.583 13.554 19.6375 12.7183C19.683 11.9552 19.9737 11.5918 20.7004 11.3465C21.2091 11.1739 21.736 11.1285 22.272 11.1285C22.6627 11.1194 23.0079 11.0195 23.344 10.8105C24.4705 10.1201 25.6969 10.1019 26.9415 10.3744C27.2958 10.4562 27.5955 10.6742 27.8317 10.974C28.2678 11.5373 28.2678 11.7916 27.7591 12.2822C27.4684 12.5638 27.3048 12.8818 27.2957 13.2906C27.2776 13.9719 27.2321 14.6442 27.2049 15.3255C27.1867 15.7888 27.3321 16.1431 27.8317 16.243C27.8681 16.2521 27.9135 16.2521 27.9317 16.2703C28.1679 16.5065 28.0407 16.8153 27.9953 17.0606C27.9498 17.3513 28.1588 17.7783 27.7591 17.9236C27.2231 18.1144 26.9778 18.4505 26.9051 19.0047C26.7598 20.0948 26.3056 21.0305 25.497 21.7845C25.1427 22.1207 25.061 22.5113 25.1609 22.9564C25.279 23.4561 25.4153 23.9557 25.5424 24.4463C25.6515 24.9096 25.9422 25.1821 26.4055 25.2912C27.5955 25.5819 28.7856 25.8816 29.9666 26.1905C31.0113 26.463 31.7835 27.099 32.2649 28.071C32.5102 28.5525 32.4921 28.5706 31.9652 28.5706ZM45.9825 0.863008C45.5464 0.426953 45.0014 0.218027 44.4563 0H2.44065C2.38615 0.118098 2.26804 0.0817558 2.1772 0.109009C0.92354 0.51781 0.087756 1.54434 0.00599581 2.90701C-0.0666799 4.17884 0.523827 5.15088 1.64122 5.75046C1.98643 5.93215 2.05 6.13201 2.05 6.46814C2.04092 11.7462 2.04094 17.0243 2.04094 22.2933C2.04094 26.027 2.04093 29.7607 2.03184 33.4944C2.03184 33.9214 2.13178 34.2848 2.49516 34.53C2.78586 34.7208 3.11289 34.7299 3.44902 34.7299C9.62645 34.7208 15.7948 34.7299 21.9632 34.7208C22.3084 34.7208 22.4537 34.7663 22.4446 35.166C22.4265 37.6551 22.4265 40.1443 22.4446 42.6334C22.4446 42.915 22.3629 43.0695 22.0994 43.1966C20.9548 43.769 20.3734 44.7319 20.3825 45.9946C20.4006 47.4845 21.5816 48.7836 23.0261 48.9744C24.5159 49.1651 25.9331 48.2749 26.3873 46.8395C26.8324 45.4314 26.2147 43.9052 24.8702 43.2239C24.5704 43.0695 24.4796 42.915 24.4796 42.588C24.4977 40.1352 24.4977 37.6733 24.4796 35.2205C24.4705 34.7935 24.6068 34.7118 25.0065 34.7208C31.1294 34.7299 37.2523 34.7299 43.3753 34.7299C44.5744 34.7299 44.8651 34.4301 44.8651 33.231C44.8651 24.31 44.8651 15.38 44.856 6.45904C44.856 6.09566 44.956 5.92305 45.283 5.74136C47.1272 4.78749 47.4633 2.32561 45.9825 0.863008ZM23.453 46.9122C22.8807 46.9122 22.4446 46.4852 22.4446 45.922C22.4446 45.386 22.9261 44.9045 23.453 44.9045C23.9981 44.9045 24.4523 45.3678 24.4523 45.922C24.4523 46.4943 24.0254 46.9122 23.453 46.9122ZM42.8211 32.0954C42.8211 32.5406 42.7303 32.6677 42.267 32.6677C35.9896 32.6496 29.7213 32.6586 23.4439 32.6586C17.1757 32.6586 10.8983 32.6496 4.63001 32.6677C4.18488 32.6677 4.09401 32.5496 4.09401 32.1318C4.11217 23.6469 4.11217 15.171 4.09401 6.68615C4.09401 6.27735 4.15761 6.14108 4.62092 6.14108C17.1666 6.15017 29.7122 6.15017 42.2579 6.14108C42.7212 6.14108 42.8211 6.25918 42.8211 6.71341C42.812 15.171 42.812 23.6378 42.8211 32.0954ZM44.2565 3.97897C44.0203 4.0789 43.775 4.07892 43.5297 4.07892H3.35817C3.13105 4.07892 2.89486 4.07891 2.67683 3.98807C2.26803 3.80638 1.9955 3.36125 2.05909 2.95245C2.12269 2.46189 2.49514 2.1076 2.9857 2.07126C3.14922 2.06217 3.32184 2.07126 3.48536 2.07126H43.4025C43.5842 2.07126 43.7659 2.06215 43.9476 2.08032C44.42 2.11666 44.7833 2.46189 44.8469 2.9252C44.9105 3.34309 44.6562 3.79728 44.2565 3.97897ZM30.8205 24.301C29.8303 23.9921 28.8128 23.7649 27.8045 23.5106C27.2867 23.3743 27.1776 23.0836 27.4956 22.6748C28.0588 21.9662 28.4949 21.185 28.722 20.3129C28.8129 19.9676 28.9491 19.6951 29.2671 19.4771C29.6123 19.2318 29.8121 18.8412 29.8757 18.4233C29.9757 17.7056 30.0574 16.9789 30.1119 16.2612C30.1574 15.7525 29.9393 15.3255 29.5941 14.9621C29.2216 14.5624 29.1853 13.8266 29.5487 13.4177C30.3118 12.5456 30.4208 11.5827 29.9666 10.5561C29.5124 9.53869 28.7674 8.80283 27.6955 8.4667C25.9149 7.91255 24.1707 8.04882 22.4991 8.89367C22.3175 8.98452 22.1539 9.06628 21.945 9.06628C21.4272 9.06628 20.9275 9.15714 20.4279 9.28433C18.9108 9.68404 17.8661 10.5743 17.6208 12.1913C17.5118 12.8818 17.53 13.5813 17.6299 14.2717C17.6662 14.5261 17.6299 14.6896 17.4209 14.8622C16.8759 15.3346 16.7123 15.9523 16.8032 16.6609C16.8668 17.1515 16.9213 17.642 16.9849 18.1417C17.0666 18.7776 17.3301 19.3136 17.9024 19.6497C18.0659 19.7587 18.1568 19.8677 18.2113 20.0585C18.4475 20.9942 18.8744 21.8481 19.4649 22.6203C19.7647 22.9928 19.6285 23.3834 19.1652 23.5015C18.3657 23.7105 17.5663 23.9103 16.7668 24.1011C14.1596 24.737 12.5971 26.463 12.2519 29.1157C12.1156 30.1604 12.5335 30.6328 13.5964 30.6328H23.453C26.7689 30.6328 30.0847 30.6419 33.4005 30.6328C34.3271 30.6328 34.7359 30.1877 34.6814 29.2702C34.5452 26.9809 33.0099 24.9732 30.8205 24.301ZM31.9652 28.5706H14.4412C14.9045 27.2806 15.7403 26.5085 16.9758 26.1814C18.1386 25.8725 19.3105 25.5818 20.4824 25.3002C20.9639 25.1821 21.2637 24.9096 21.3727 24.419C21.4908 23.8921 21.618 23.3562 21.7724 22.8383C21.8905 22.4205 21.7906 22.0752 21.4998 21.7936C20.7095 21.0033 20.2371 20.0585 20.1009 18.9502C20.0554 18.5141 19.8556 18.1689 19.4104 18.0962C19.0561 18.0417 19.0198 17.8146 18.9744 17.5603C18.9471 17.3786 18.9289 17.1969 18.8926 17.0243C18.8199 16.6882 18.7927 16.4429 19.2378 16.2975C19.7102 16.134 19.8556 15.6889 19.8011 15.1892C19.7193 14.3716 19.583 13.554 19.6375 12.7183C19.683 11.9552 19.9737 11.5918 20.7004 11.3465C21.2091 11.1739 21.736 11.1285 22.272 11.1285C22.6627 11.1194 23.0079 11.0195 23.344 10.8105C24.4705 10.1201 25.6969 10.1019 26.9415 10.3744C27.2958 10.4562 27.5955 10.6742 27.8317 10.974C28.2678 11.5373 28.2678 11.7916 27.7591 12.2822C27.4684 12.5638 27.3048 12.8818 27.2957 13.2906C27.2776 13.9719 27.2321 14.6442 27.2049 15.3255C27.1867 15.7888 27.3321 16.1431 27.8317 16.243C27.8681 16.2521 27.9135 16.2521 27.9317 16.2703C28.1679 16.5065 28.0407 16.8153 27.9953 17.0606C27.9498 17.3513 28.1588 17.7783 27.7591 17.9236C27.2231 18.1144 26.9778 18.4505 26.9051 19.0047C26.7598 20.0948 26.3056 21.0305 25.497 21.7845C25.1427 22.1207 25.061 22.5113 25.1609 22.9564C25.279 23.4561 25.4153 23.9557 25.5424 24.4463C25.6515 24.9096 25.9422 25.1821 26.4055 25.2912C27.5955 25.5819 28.7856 25.8816 29.9666 26.1905C31.0113 26.463 31.7835 27.099 32.2649 28.071C32.5102 28.5525 32.4921 28.5706 31.9652 28.5706ZM30.8205 24.301C29.8303 23.9921 28.8128 23.7649 27.8045 23.5106C27.2867 23.3743 27.1776 23.0836 27.4956 22.6748C28.0588 21.9662 28.4949 21.185 28.722 20.3129C28.8129 19.9676 28.9491 19.6951 29.2671 19.4771C29.6123 19.2318 29.8121 18.8412 29.8757 18.4233C29.9757 17.7056 30.0574 16.9789 30.1119 16.2612C30.1574 15.7525 29.9393 15.3255 29.5941 14.9621C29.2216 14.5624 29.1853 13.8266 29.5487 13.4177C30.3118 12.5456 30.4208 11.5827 29.9666 10.5561C29.5124 9.53869 28.7674 8.80283 27.6955 8.4667C25.9149 7.91255 24.1707 8.04882 22.4991 8.89367C22.3175 8.98452 22.1539 9.06628 21.945 9.06628C21.4272 9.06628 20.9275 9.15714 20.4279 9.28433C18.9108 9.68404 17.8661 10.5743 17.6208 12.1913C17.5118 12.8818 17.53 13.5813 17.6299 14.2717C17.6662 14.5261 17.6299 14.6896 17.4209 14.8622C16.8759 15.3346 16.7123 15.9523 16.8032 16.6609C16.8668 17.1515 16.9213 17.642 16.9849 18.1417C17.0666 18.7776 17.3301 19.3136 17.9024 19.6497C18.0659 19.7587 18.1568 19.8677 18.2113 20.0585C18.4475 20.9942 18.8744 21.8481 19.4649 22.6203C19.7647 22.9928 19.6285 23.3834 19.1652 23.5015C18.3657 23.7105 17.5663 23.9103 16.7668 24.1011C14.1596 24.737 12.5971 26.463 12.2519 29.1157C12.1156 30.1604 12.5335 30.6328 13.5964 30.6328H23.453C26.7689 30.6328 30.0847 30.6419 33.4005 30.6328C34.3271 30.6328 34.7359 30.1877 34.6814 29.2702C34.5452 26.9809 33.0099 24.9732 30.8205 24.301ZM31.9652 28.5706H14.4412C14.9045 27.2806 15.7403 26.5085 16.9758 26.1814C18.1386 25.8725 19.3105 25.5818 20.4824 25.3002C20.9639 25.1821 21.2637 24.9096 21.3727 24.419C21.4908 23.8921 21.618 23.3562 21.7724 22.8383C21.8905 22.4205 21.7906 22.0752 21.4998 21.7936C20.7095 21.0033 20.2371 20.0585 20.1009 18.9502C20.0554 18.5141 19.8556 18.1689 19.4104 18.0962C19.0561 18.0417 19.0198 17.8146 18.9744 17.5603C18.9471 17.3786 18.9289 17.1969 18.8926 17.0243C18.8199 16.6882 18.7927 16.4429 19.2378 16.2975C19.7102 16.134 19.8556 15.6889 19.8011 15.1892C19.7193 14.3716 19.583 13.554 19.6375 12.7183C19.683 11.9552 19.9737 11.5918 20.7004 11.3465C21.2091 11.1739 21.736 11.1285 22.272 11.1285C22.6627 11.1194 23.0079 11.0195 23.344 10.8105C24.4705 10.1201 25.6969 10.1019 26.9415 10.3744C27.2958 10.4562 27.5955 10.6742 27.8317 10.974C28.2678 11.5373 28.2678 11.7916 27.7591 12.2822C27.4684 12.5638 27.3048 12.8818 27.2957 13.2906C27.2776 13.9719 27.2321 14.6442 27.2049 15.3255C27.1867 15.7888 27.3321 16.1431 27.8317 16.243C27.8681 16.2521 27.9135 16.2521 27.9317 16.2703C28.1679 16.5065 28.0407 16.8153 27.9953 17.0606C27.9498 17.3513 28.1588 17.7783 27.7591 17.9236C27.2231 18.1144 26.9778 18.4505 26.9051 19.0047C26.7598 20.0948 26.3056 21.0305 25.497 21.7845C25.1427 22.1207 25.061 22.5113 25.1609 22.9564C25.279 23.4561 25.4153 23.9557 25.5424 24.4463C25.6515 24.9096 25.9422 25.1821 26.4055 25.2912C27.5955 25.5819 28.7856 25.8816 29.9666 26.1905C31.0113 26.463 31.7835 27.099 32.2649 28.071C32.5102 28.5525 32.4921 28.5706 31.9652 28.5706ZM30.8205 24.301C29.8303 23.9921 28.8128 23.7649 27.8045 23.5106C27.2867 23.3743 27.1776 23.0836 27.4956 22.6748C28.0588 21.9662 28.4949 21.185 28.722 20.3129C28.8129 19.9676 28.9491 19.6951 29.2671 19.4771C29.6123 19.2318 29.8121 18.8412 29.8757 18.4233C29.9757 17.7056 30.0574 16.9789 30.1119 16.2612C30.1574 15.7525 29.9393 15.3255 29.5941 14.9621C29.2216 14.5624 29.1853 13.8266 29.5487 13.4177C30.3118 12.5456 30.4208 11.5827 29.9666 10.5561C29.5124 9.53869 28.7674 8.80283 27.6955 8.4667C25.9149 7.91255 24.1707 8.04882 22.4991 8.89367C22.3175 8.98452 22.1539 9.06628 21.945 9.06628C21.4272 9.06628 20.9275 9.15714 20.4279 9.28433C18.9108 9.68404 17.8661 10.5743 17.6208 12.1913C17.5118 12.8818 17.53 13.5813 17.6299 14.2717C17.6662 14.5261 17.6299 14.6896 17.4209 14.8622C16.8759 15.3346 16.7123 15.9523 16.8032 16.6609C16.8668 17.1515 16.9213 17.642 16.9849 18.1417C17.0666 18.7776 17.3301 19.3136 17.9024 19.6497C18.0659 19.7587 18.1568 19.8677 18.2113 20.0585C18.4475 20.9942 18.8744 21.8481 19.4649 22.6203C19.7647 22.9928 19.6285 23.3834 19.1652 23.5015C18.3657 23.7105 17.5663 23.9103 16.7668 24.1011C14.1596 24.737 12.5971 26.463 12.2519 29.1157C12.1156 30.1604 12.5335 30.6328 13.5964 30.6328H23.453C26.7689 30.6328 30.0847 30.6419 33.4005 30.6328C34.3271 30.6328 34.7359 30.1877 34.6814 29.2702C34.5452 26.9809 33.0099 24.9732 30.8205 24.301ZM31.9652 28.5706H14.4412C14.9045 27.2806 15.7403 26.5085 16.9758 26.1814C18.1386 25.8725 19.3105 25.5818 20.4824 25.3002C20.9639 25.1821 21.2637 24.9096 21.3727 24.419C21.4908 23.8921 21.618 23.3562 21.7724 22.8383C21.8905 22.4205 21.7906 22.0752 21.4998 21.7936C20.7095 21.0033 20.2371 20.0585 20.1009 18.9502C20.0554 18.5141 19.8556 18.1689 19.4104 18.0962C19.0561 18.0417 19.0198 17.8146 18.9744 17.5603C18.9471 17.3786 18.9289 17.1969 18.8926 17.0243C18.8199 16.6882 18.7927 16.4429 19.2378 16.2975C19.7102 16.134 19.8556 15.6889 19.8011 15.1892C19.7193 14.3716 19.583 13.554 19.6375 12.7183C19.683 11.9552 19.9737 11.5918 20.7004 11.3465C21.2091 11.1739 21.736 11.1285 22.272 11.1285C22.6627 11.1194 23.0079 11.0195 23.344 10.8105C24.4705 10.1201 25.6969 10.1019 26.9415 10.3744C27.2958 10.4562 27.5955 10.6742 27.8317 10.974C28.2678 11.5373 28.2678 11.7916 27.7591 12.2822C27.4684 12.5638 27.3048 12.8818 27.2957 13.2906C27.2776 13.9719 27.2321 14.6442 27.2049 15.3255C27.1867 15.7888 27.3321 16.1431 27.8317 16.243C27.8681 16.2521 27.9135 16.2521 27.9317 16.2703C28.1679 16.5065 28.0407 16.8153 27.9953 17.0606C27.9498 17.3513 28.1588 17.7783 27.7591 17.9236C27.2231 18.1144 26.9778 18.4505 26.9051 19.0047C26.7598 20.0948 26.3056 21.0305 25.497 21.7845C25.1427 22.1207 25.061 22.5113 25.1609 22.9564C25.279 23.4561 25.4153 23.9557 25.5424 24.4463C25.6515 24.9096 25.9422 25.1821 26.4055 25.2912C27.5955 25.5819 28.7856 25.8816 29.9666 26.1905C31.0113 26.463 31.7835 27.099 32.2649 28.071C32.5102 28.5525 32.4921 28.5706 31.9652 28.5706Z" fill="#2D0C3E"/>
</svg>
