<svg width="49" height="48" viewBox="0 0 49 48" fill="none" xmlns="http://www.w3.org/2000/svg">
<path d="M47.4463 12.1608C46.5218 10.834 45.0239 10.5173 43.2863 11.2706C43.2521 11.2021 43.2178 11.1336 43.1836 11.0566C42.6358 9.7641 41.3947 9.06221 40.1364 9.33612C38.8011 9.61858 37.9452 10.7056 37.9452 12.118V14.1381C37.8596 14.1381 37.8082 14.138 37.7654 14.1295C35.908 13.3677 33.965 14.8998 34.0592 16.8257C34.1362 18.2466 34.0763 19.6675 34.0763 21.0969C33.9907 21.0969 33.9479 21.1055 33.9222 21.0969C32.0049 20.318 30.1218 21.9015 30.1903 23.8103C30.2759 26.0957 30.1988 28.3896 30.2159 30.675C30.2159 30.9746 30.1304 31.18 29.9335 31.394C28.7694 32.6266 27.6138 33.8592 26.4754 35.1174C25.9105 35.7422 25.5767 36.5041 25.5767 37.3515C25.5596 40.6212 25.5596 43.8909 25.5681 47.1607C25.5681 47.7085 25.8592 47.991 26.407 47.991C29.4542 47.9995 32.5013 47.9995 35.54 47.991C36.1135 47.991 36.3959 47.7085 36.3959 47.1264C36.4045 46.125 36.413 45.1321 36.3959 44.1306C36.3788 43.3089 36.6527 42.6413 37.2433 42.0592C39.1435 40.1761 41.0352 38.2759 42.9268 36.3842C43.098 36.2131 43.2521 36.0418 43.3719 35.8193C44.8527 33.0974 46.3335 30.3755 47.8229 27.6621C47.9513 27.431 48.0112 27.1998 48.0112 26.9259C48.0026 22.5948 48.0026 18.2552 48.0112 13.9241C48.0112 13.2735 47.8143 12.6914 47.4463 12.1608ZM39.4945 12.1522C39.4945 11.399 39.9824 10.8683 40.6329 10.8512C41.3005 10.8341 41.8141 11.3904 41.8141 12.1608V23.4251C41.8141 23.5706 41.8312 23.7076 41.7285 23.836C41.2235 24.4608 40.727 25.0942 40.222 25.7448C40.0765 25.3596 39.931 25.0258 39.6571 24.769C39.503 24.6235 39.4945 24.4694 39.4945 24.2896V12.1522ZM35.6256 16.7487C35.6341 15.8071 36.4815 15.2336 37.269 15.6103C37.7398 15.8414 37.9452 16.2437 37.9452 16.7487V23.699C37.9452 23.8274 38.0222 24.0072 37.7654 24.0072C36.9437 24.0072 36.3446 24.4437 35.8481 25.0514C35.8053 25.1114 35.7882 25.1969 35.7625 25.274C35.7283 25.2397 35.6855 25.214 35.6512 25.1798C35.6427 25.137 35.6256 25.1028 35.6256 25.06C35.6256 22.2867 35.617 19.522 35.6256 16.7487ZM31.7652 23.5877C31.7738 22.9372 32.3301 22.4493 32.9293 22.4579C33.5114 22.4664 34.0421 22.9286 34.0592 23.562C34.0934 24.632 34.0763 25.7191 34.0763 26.789C34.0848 26.9431 33.9993 27.0287 33.9137 27.1228C33.2203 27.859 32.527 28.6036 31.7567 29.4254C31.7567 27.4053 31.7481 25.4965 31.7652 23.5877ZM46.4619 20.3351C46.4619 22.3894 46.4534 24.4351 46.4619 26.4809C46.4619 26.7462 46.4106 26.9773 46.2822 27.2084C44.887 29.7591 43.4918 32.3099 42.1051 34.8606C41.9939 35.0832 41.8398 35.2544 41.6686 35.4256C39.8283 37.2659 38.0051 39.1062 36.1562 40.9294C35.2746 41.8024 34.8038 42.821 34.8466 44.0793C34.8723 44.7726 34.8381 45.4659 34.8552 46.1592C34.8638 46.3903 34.7867 46.4503 34.5556 46.4503C32.1761 46.4417 29.788 46.4417 27.3999 46.4503C27.1688 46.4503 27.1088 46.3818 27.1088 46.1506C27.1174 43.2832 27.1088 40.4158 27.1174 37.5483C27.126 36.932 27.3913 36.4014 27.8193 35.9477C30.9435 32.6009 34.0592 29.2542 37.1834 25.9074C37.4744 25.5993 37.7997 25.4452 38.2191 25.6249C38.6214 25.7961 38.6899 26.1299 38.7327 26.5237C38.8183 27.3111 38.5615 27.9188 38.0565 28.5351C36.5842 30.3241 35.1805 32.1729 33.7425 33.9875C33.5285 34.2529 33.4514 34.4326 33.8109 34.6381C34.1276 34.8264 34.3844 35.2886 34.6926 35.2458C34.9494 35.2116 35.1462 34.7408 35.3602 34.4669C37.9195 31.2143 40.4788 27.9531 43.0381 24.709C43.2692 24.4095 43.3719 24.1184 43.3719 23.7418C43.3548 20.5149 43.3634 17.2879 43.3634 14.0696C43.3634 13.3591 43.6544 12.8199 44.322 12.5289C44.9041 12.2721 45.4605 12.3919 45.9312 12.8027C46.325 13.1451 46.4619 13.5902 46.4619 14.1038C46.4534 16.1837 46.4619 18.2637 46.4619 20.3351Z" fill="#2D0C3E"/>
<path d="M22.4781 37.8946C22.4952 36.6621 22.0929 35.6349 21.2541 34.7532C20.1927 33.6405 19.1656 32.5107 18.1127 31.4065C17.9073 31.1925 17.8217 30.987 17.8217 30.6875C17.8303 28.3165 17.8303 25.9455 17.8217 23.5745C17.8217 22.3762 17.0171 21.3405 15.8616 21.0066C15.2196 20.8183 14.6033 20.9211 13.9528 21.1351C13.9528 19.5943 13.9614 18.0964 13.9528 16.5985C13.9442 15.4259 13.1482 14.3816 12.0269 14.0477C11.3764 13.8509 10.743 13.9622 10.0839 14.159C10.0839 13.363 10.101 12.6269 10.0839 11.8822C10.0497 10.2131 8.37198 8.95486 6.75423 9.37428C5.72708 9.63106 5.10226 10.3158 4.74276 11.3002C2.45737 9.982 -0.0505814 11.7538 0.000775765 14.1676C0.0949305 18.3874 0.0264533 22.6073 0.0264533 26.8357C0.0264533 27.1695 0.0949201 27.4605 0.257551 27.7516C1.70411 30.3964 3.15067 33.0414 4.58867 35.6948C4.73418 35.9687 4.9225 36.1998 5.13649 36.4224C7.04527 38.3226 8.94547 40.2313 10.8542 42.123C11.3849 42.6537 11.6417 43.2871 11.6332 44.0318V46.9763C11.6332 47.7552 11.8728 47.9949 12.6261 47.9949H21.4766C22.2299 47.9949 22.4695 47.7552 22.4695 46.9763C22.4695 43.9462 22.4524 40.9161 22.4781 37.8946ZM13.9614 23.6686C13.9785 22.9839 14.4749 22.4789 15.0998 22.4618C15.7161 22.4447 16.2639 22.9497 16.2724 23.6259C16.2896 25.5261 16.2724 27.4178 16.2724 29.4292C15.4935 28.5904 14.8002 27.8457 14.0897 27.101C13.9785 26.9812 13.9528 26.8614 13.9528 26.7073C13.9614 25.6973 13.9442 24.6787 13.9614 23.6686ZM10.101 16.6584C10.101 15.9907 10.6488 15.4857 11.2651 15.4943C11.9071 15.5114 12.4035 16.0336 12.4035 16.7526C12.4121 18.901 12.4121 21.058 12.4121 23.215V25.3121C11.7787 24.5503 11.1795 24.011 10.2722 24.011C10.0668 24.011 10.0839 23.8827 10.0839 23.7543C10.0925 21.3918 10.0753 19.0294 10.101 16.6584ZM6.22354 12.1561C6.22354 11.4029 6.70289 10.8722 7.36197 10.8551C8.02962 10.8379 8.53462 11.3943 8.53462 12.1646C8.54318 16.2133 8.54319 20.2534 8.54319 24.3021C8.54319 24.4647 8.54319 24.6102 8.40624 24.7386C8.12377 25.0039 7.96114 25.3549 7.81563 25.7487C7.31061 25.1067 6.8227 24.4818 6.32625 23.8741C6.21498 23.7286 6.215 23.5831 6.215 23.4204C6.215 19.6628 6.21498 15.9138 6.22354 12.1561ZM20.9288 46.0176C20.9374 46.3857 20.8432 46.4627 20.4837 46.4627C18.1983 46.437 15.9044 46.437 13.619 46.4627C13.2509 46.4627 13.1568 46.3685 13.1739 46.009C13.2081 45.3671 13.1653 44.7251 13.191 44.0746C13.2338 42.8249 12.763 41.8063 11.8728 40.9332C10.0325 39.1101 8.2008 37.2612 6.36906 35.4295C6.1722 35.2326 6.00956 35.0186 5.88117 34.7789C4.51164 32.2539 3.13357 29.7288 1.74693 27.2123C1.62709 26.9898 1.56717 26.7758 1.57573 26.5275V14.1505C1.57573 13.5684 1.7298 13.0548 2.21769 12.7125C2.71414 12.3615 3.25338 12.2845 3.80975 12.5755C4.3918 12.8837 4.6657 13.3801 4.6657 14.0307C4.67426 15.6741 4.67427 17.3175 4.67427 18.9609C4.67427 20.5701 4.67426 22.1879 4.6657 23.7971C4.6657 24.1394 4.75987 24.4134 4.97386 24.6787C7.69579 28.1282 10.4092 31.5862 13.114 35.0529C13.2937 35.2754 13.405 35.3438 13.6275 35.1213C13.7902 34.9672 13.9614 34.8132 14.1582 34.7105C14.6033 34.4708 14.5092 34.2482 14.2353 33.9059C12.6518 31.92 11.0853 29.9171 9.5104 27.9142C9.24505 27.5718 9.21939 26.2365 9.47618 25.8856C9.81 25.4234 10.4092 25.4491 10.8799 25.9541C12.2152 27.375 13.5505 28.8044 14.8772 30.2253C16.5891 32.0656 18.2925 33.9144 20.0301 35.7376C20.6463 36.3796 20.9374 37.0986 20.9288 37.9888C20.9031 40.6679 20.9117 43.3385 20.9288 46.0176Z" fill="#2D0C3E"/>
<path d="M35.4813 5.35861C34.3087 0.274248 28.5139 -1.6688 24.5166 1.68654C24.1143 2.02892 23.8917 2.01179 23.5065 1.67797C21.8203 0.222849 19.8516 -0.324952 17.6775 0.188619C15.0497 0.796346 13.3293 2.45693 12.6445 5.04191C11.9597 7.66112 12.6188 10.0064 14.6218 11.8638C17.5149 14.5515 20.4508 17.1793 23.3696 19.8327C23.8489 20.2693 24.1913 20.2693 24.6792 19.8327C27.6066 17.1622 30.551 14.5087 33.4613 11.821C34.9164 10.4943 35.6012 8.79953 35.6268 6.84795C35.6611 6.33438 35.5926 5.8465 35.4813 5.35861ZM32.3742 10.6997C29.678 13.1734 26.9731 15.6215 24.2769 18.0952C24.0715 18.2749 23.9688 18.2749 23.7719 18.0952C21.0585 15.6129 18.3195 13.1649 15.6318 10.6655C14.1082 9.23603 13.6203 7.43002 14.1681 5.41853C14.6988 3.46696 15.9913 2.20014 17.9771 1.72081C19.5606 1.33563 20.9986 1.70369 22.2825 2.68804C22.6763 2.99618 23.0443 3.33 23.4381 3.6467C23.8489 3.98908 24.1827 3.98909 24.6022 3.65527C25.227 3.15026 25.8005 2.57674 26.5109 2.183C29.6352 0.496777 33.5383 2.4997 33.992 6.02622C34.0262 6.30013 34.0605 6.56548 34.0861 6.72811C34.0262 8.35442 33.5041 9.6726 32.3742 10.6997Z" fill="#2D0C3E"/>
</svg>
