<svg width="46" height="46" viewBox="0 0 46 46" fill="none" xmlns="http://www.w3.org/2000/svg">
<path d="M18.322 9.8164C17.8786 9.77377 17.4267 9.75672 16.9834 9.73967C16.4889 9.69704 16.1138 9.99544 16.0712 10.4303C16.0285 10.8565 16.3184 11.2146 16.8129 11.2743C17.2648 11.334 17.7252 11.3511 18.1855 11.3852C18.7397 11.4193 19.1404 11.1208 19.1745 10.6434C19.2086 10.2086 18.8591 9.85903 18.322 9.8164ZM18.3816 17.4896C17.8871 17.447 17.3926 17.4129 16.9067 17.3959C16.4207 17.3788 16.0797 17.7028 16.0626 18.1376C16.0541 18.5468 16.3696 18.8964 16.8129 18.9305C17.2307 18.9731 17.6484 18.9902 18.1429 19.0328C18.1429 19.0328 18.2196 19.0328 18.2879 19.0328C18.7994 19.0243 19.166 18.7259 19.1831 18.2825C19.2001 17.8648 18.8761 17.5408 18.3816 17.4896ZM23.8041 9.96988C23.5312 9.95283 23.2669 9.96988 22.9941 9.96988C22.7128 9.96988 22.4314 9.95283 22.1415 9.96988C21.7152 9.99546 21.4339 10.3109 21.4339 10.7372C21.4424 11.1379 21.7152 11.4704 22.1074 11.4875C22.6786 11.5131 23.2499 11.5131 23.8126 11.4875C24.2303 11.4704 24.5032 11.1209 24.4946 10.6946C24.4861 10.2853 24.2218 9.99546 23.8041 9.96988ZM23.7444 17.609C23.4886 17.5919 23.2328 17.6005 22.9856 17.6005C22.7128 17.609 22.4484 17.5919 22.1756 17.609C21.7493 17.6431 21.4509 17.95 21.4424 18.3593C21.4339 18.7856 21.6811 19.1095 22.1245 19.1351C22.6786 19.1692 23.2328 19.1692 23.7785 19.1436C24.2474 19.1181 24.5117 18.7855 24.4946 18.3422C24.4776 17.9415 24.1792 17.6346 23.7444 17.609ZM29.1071 17.3959C28.9366 17.3873 28.749 17.4129 28.57 17.4214V17.3959C28.2119 17.43 27.8623 17.4555 27.5042 17.4982C27.0524 17.5493 26.7369 17.8903 26.7625 18.2911C26.7796 18.7088 27.1206 19.0328 27.5639 19.0243C28.1011 19.0158 28.6382 18.9817 29.1753 18.922C29.5931 18.8879 29.883 18.5127 29.8659 18.1291C29.8489 17.7198 29.5419 17.4129 29.1071 17.3959ZM28.9536 9.71409C28.5018 9.82493 27.9646 9.74822 27.436 9.842C27.0098 9.91873 26.7284 10.2768 26.7625 10.6519C26.7881 11.0526 27.1121 11.3852 27.5298 11.3766C28.0925 11.3681 28.6638 11.3255 29.2179 11.2488C29.6528 11.1891 29.9085 10.8224 29.8659 10.4303C29.8233 10.021 29.4737 9.72262 28.9536 9.71409ZM28.9536 9.71409C28.5018 9.82493 27.9646 9.74822 27.436 9.842C27.0098 9.91873 26.7284 10.2768 26.7625 10.6519C26.7881 11.0526 27.1121 11.3852 27.5298 11.3766C28.0925 11.3681 28.6638 11.3255 29.2179 11.2488C29.6528 11.1891 29.9085 10.8224 29.8659 10.4303C29.8233 10.021 29.4737 9.72262 28.9536 9.71409ZM23.8041 9.96988C23.5312 9.95283 23.2669 9.96988 22.9941 9.96988C22.7128 9.96988 22.4314 9.95283 22.1415 9.96988C21.7152 9.99546 21.4339 10.3109 21.4339 10.7372C21.4424 11.1379 21.7152 11.4704 22.1074 11.4875C22.6786 11.5131 23.2499 11.5131 23.8126 11.4875C24.2303 11.4704 24.5032 11.1209 24.4946 10.6946C24.4861 10.2853 24.2218 9.99546 23.8041 9.96988ZM18.322 9.8164C17.8786 9.77377 17.4267 9.75672 16.9834 9.73967C16.4889 9.69704 16.1138 9.99544 16.0712 10.4303C16.0285 10.8565 16.3184 11.2146 16.8129 11.2743C17.2648 11.334 17.7252 11.3511 18.1855 11.3852C18.7397 11.4193 19.1404 11.1208 19.1745 10.6434C19.2086 10.2086 18.8591 9.85903 18.322 9.8164ZM29.1071 17.3959C28.9366 17.3873 28.749 17.4129 28.57 17.4214V17.3959C28.2119 17.43 27.8623 17.4555 27.5042 17.4982C27.0524 17.5493 26.7369 17.8903 26.7625 18.2911C26.7796 18.7088 27.1206 19.0328 27.5639 19.0243C28.1011 19.0158 28.6382 18.9817 29.1753 18.922C29.5931 18.8879 29.883 18.5127 29.8659 18.1291C29.8489 17.7198 29.5419 17.4129 29.1071 17.3959ZM23.7444 17.609C23.4886 17.5919 23.2328 17.6005 22.9856 17.6005C22.7128 17.609 22.4484 17.5919 22.1756 17.609C21.7493 17.6431 21.4509 17.95 21.4424 18.3593C21.4339 18.7856 21.6811 19.1095 22.1245 19.1351C22.6786 19.1692 23.2328 19.1692 23.7785 19.1436C24.2474 19.1181 24.5117 18.7855 24.4946 18.3422C24.4776 17.9415 24.1792 17.6346 23.7444 17.609ZM18.3816 17.4896C17.8871 17.447 17.3926 17.4129 16.9067 17.3959C16.4207 17.3788 16.0797 17.7028 16.0626 18.1376C16.0541 18.5468 16.3696 18.8964 16.8129 18.9305C17.2307 18.9731 17.6484 18.9902 18.1429 19.0328C18.1429 19.0328 18.2196 19.0328 18.2879 19.0328C18.7994 19.0243 19.166 18.7259 19.1831 18.2825C19.2001 17.8648 18.8761 17.5408 18.3816 17.4896ZM18.322 9.8164C17.8786 9.77377 17.4267 9.75672 16.9834 9.73967C16.4889 9.69704 16.1138 9.99544 16.0712 10.4303C16.0285 10.8565 16.3184 11.2146 16.8129 11.2743C17.2648 11.334 17.7252 11.3511 18.1855 11.3852C18.7397 11.4193 19.1404 11.1208 19.1745 10.6434C19.2086 10.2086 18.8591 9.85903 18.322 9.8164ZM18.3816 17.4896C17.8871 17.447 17.3926 17.4129 16.9067 17.3959C16.4207 17.3788 16.0797 17.7028 16.0626 18.1376C16.0541 18.5468 16.3696 18.8964 16.8129 18.9305C17.2307 18.9731 17.6484 18.9902 18.1429 19.0328C18.1429 19.0328 18.2196 19.0328 18.2879 19.0328C18.7994 19.0243 19.166 18.7259 19.1831 18.2825C19.2001 17.8648 18.8761 17.5408 18.3816 17.4896ZM18.5095 25.1543C17.9468 25.0947 17.3756 25.0606 16.8129 25.052C16.4037 25.0435 16.0797 25.3931 16.0626 25.7938C16.0541 26.1774 16.3269 26.5099 16.7276 26.5611C17.1113 26.6123 17.5035 26.6378 17.9298 26.6805C18.0662 26.6805 18.2538 26.689 18.4243 26.6719C18.8506 26.6464 19.166 26.3309 19.1831 25.9302C19.1916 25.5636 18.8932 25.1884 18.5095 25.1543ZM23.8041 9.96988C23.5312 9.95283 23.2669 9.96988 22.9941 9.96988C22.7128 9.96988 22.4314 9.95283 22.1415 9.96988C21.7152 9.99546 21.4339 10.3109 21.4339 10.7372C21.4424 11.1379 21.7152 11.4704 22.1074 11.4875C22.6786 11.5131 23.2499 11.5131 23.8126 11.4875C24.2303 11.4704 24.5032 11.1209 24.4946 10.6946C24.4861 10.2853 24.2218 9.99546 23.8041 9.96988ZM23.7444 17.609C23.4886 17.5919 23.2328 17.6005 22.9856 17.6005C22.7128 17.609 22.4484 17.5919 22.1756 17.609C21.7493 17.6431 21.4509 17.95 21.4424 18.3593C21.4339 18.7856 21.6811 19.1095 22.1245 19.1351C22.6786 19.1692 23.2328 19.1692 23.7785 19.1436C24.2474 19.1181 24.5117 18.7855 24.4946 18.3422C24.4776 17.9415 24.1792 17.6346 23.7444 17.609ZM23.7188 25.2566C23.4716 25.2396 23.2158 25.2566 22.96 25.2566V25.2481C22.7213 25.2481 22.4826 25.2396 22.2438 25.2566C21.7493 25.2822 21.4424 25.5892 21.4424 26.0325C21.4339 26.4758 21.7408 26.7998 22.2353 26.8169C22.7213 26.8339 23.2158 26.8339 23.7103 26.8169C24.1792 26.7998 24.4861 26.4844 24.4946 26.0666C24.5117 25.6147 24.2133 25.2993 23.7188 25.2566ZM29.1071 17.3959C28.9366 17.3873 28.749 17.4129 28.57 17.4214V17.3959C28.2119 17.43 27.8623 17.4555 27.5042 17.4982C27.0524 17.5493 26.7369 17.8903 26.7625 18.2911C26.7796 18.7088 27.1206 19.0328 27.5639 19.0243C28.1011 19.0158 28.6382 18.9817 29.1753 18.922C29.5931 18.8879 29.883 18.5127 29.8659 18.1291C29.8489 17.7198 29.5419 17.4129 29.1071 17.3959ZM29.09 25.052C28.5359 25.0606 27.9817 25.0947 27.436 25.1458C27.0268 25.1884 26.7284 25.5891 26.7625 25.9643C26.7966 26.365 27.1206 26.6719 27.5384 26.6805C27.7089 26.6805 27.8709 26.6634 28.0329 26.6549C28.0329 26.6634 28.0329 26.6634 28.0329 26.6719C28.408 26.6378 28.7831 26.6123 29.1497 26.5696C29.6016 26.5185 29.9 26.1689 29.8659 25.7597C29.8403 25.359 29.5078 25.0435 29.09 25.052ZM28.9536 9.71409C28.5018 9.82493 27.9646 9.74822 27.436 9.842C27.0098 9.91873 26.7284 10.2768 26.7625 10.6519C26.7881 11.0526 27.1121 11.3852 27.5298 11.3766C28.0925 11.3681 28.6638 11.3255 29.2179 11.2488C29.6528 11.1891 29.9085 10.8224 29.8659 10.4303C29.8233 10.021 29.4737 9.72262 28.9536 9.71409ZM28.9536 9.71409C28.5018 9.82493 27.9646 9.74822 27.436 9.842C27.0098 9.91873 26.7284 10.2768 26.7625 10.6519C26.7881 11.0526 27.1121 11.3852 27.5298 11.3766C28.0925 11.3681 28.6638 11.3255 29.2179 11.2488C29.6528 11.1891 29.9085 10.8224 29.8659 10.4303C29.8233 10.021 29.4737 9.72262 28.9536 9.71409ZM23.8041 9.96988C23.5312 9.95283 23.2669 9.96988 22.9941 9.96988C22.7128 9.96988 22.4314 9.95283 22.1415 9.96988C21.7152 9.99546 21.4339 10.3109 21.4339 10.7372C21.4424 11.1379 21.7152 11.4704 22.1074 11.4875C22.6786 11.5131 23.2499 11.5131 23.8126 11.4875C24.2303 11.4704 24.5032 11.1209 24.4946 10.6946C24.4861 10.2853 24.2218 9.99546 23.8041 9.96988ZM18.322 9.8164C17.8786 9.77377 17.4267 9.75672 16.9834 9.73967C16.4889 9.69704 16.1138 9.99544 16.0712 10.4303C16.0285 10.8565 16.3184 11.2146 16.8129 11.2743C17.2648 11.334 17.7252 11.3511 18.1855 11.3852C18.7397 11.4193 19.1404 11.1208 19.1745 10.6434C19.2086 10.2086 18.8591 9.85903 18.322 9.8164ZM29.09 25.052C28.5359 25.0606 27.9817 25.0947 27.436 25.1458C27.0268 25.1884 26.7284 25.5891 26.7625 25.9643C26.7966 26.365 27.1206 26.6719 27.5384 26.6805C27.7089 26.6805 27.8709 26.6634 28.0329 26.6549C28.0329 26.6634 28.0329 26.6634 28.0329 26.6719C28.408 26.6378 28.7831 26.6123 29.1497 26.5696C29.6016 26.5185 29.9 26.1689 29.8659 25.7597C29.8403 25.359 29.5078 25.0435 29.09 25.052ZM23.7188 25.2566C23.4716 25.2396 23.2158 25.2566 22.96 25.2566V25.2481C22.7213 25.2481 22.4826 25.2396 22.2438 25.2566C21.7493 25.2822 21.4424 25.5892 21.4424 26.0325C21.4339 26.4758 21.7408 26.7998 22.2353 26.8169C22.7213 26.8339 23.2158 26.8339 23.7103 26.8169C24.1792 26.7998 24.4861 26.4844 24.4946 26.0666C24.5117 25.6147 24.2133 25.2993 23.7188 25.2566ZM18.5095 25.1543C17.9468 25.0947 17.3756 25.0606 16.8129 25.052C16.4037 25.0435 16.0797 25.3931 16.0626 25.7938C16.0541 26.1774 16.3269 26.5099 16.7276 26.5611C17.1113 26.6123 17.5035 26.6378 17.9298 26.6805C18.0662 26.6805 18.2538 26.689 18.4243 26.6719C18.8506 26.6464 19.166 26.3309 19.1831 25.9302C19.1916 25.5636 18.8932 25.1884 18.5095 25.1543ZM29.1071 17.3959C28.9366 17.3873 28.749 17.4129 28.57 17.4214V17.3959C28.2119 17.43 27.8623 17.4555 27.5042 17.4982C27.0524 17.5493 26.7369 17.8903 26.7625 18.2911C26.7796 18.7088 27.1206 19.0328 27.5639 19.0243C28.1011 19.0158 28.6382 18.9817 29.1753 18.922C29.5931 18.8879 29.883 18.5127 29.8659 18.1291C29.8489 17.7198 29.5419 17.4129 29.1071 17.3959ZM23.7444 17.609C23.4886 17.5919 23.2328 17.6005 22.9856 17.6005C22.7128 17.609 22.4484 17.5919 22.1756 17.609C21.7493 17.6431 21.4509 17.95 21.4424 18.3593C21.4339 18.7856 21.6811 19.1095 22.1245 19.1351C22.6786 19.1692 23.2328 19.1692 23.7785 19.1436C24.2474 19.1181 24.5117 18.7855 24.4946 18.3422C24.4776 17.9415 24.1792 17.6346 23.7444 17.609ZM18.3816 17.4896C17.8871 17.447 17.3926 17.4129 16.9067 17.3959C16.4207 17.3788 16.0797 17.7028 16.0626 18.1376C16.0541 18.5468 16.3696 18.8964 16.8129 18.9305C17.2307 18.9731 17.6484 18.9902 18.1429 19.0328C18.1429 19.0328 18.2196 19.0328 18.2879 19.0328C18.7994 19.0243 19.166 18.7259 19.1831 18.2825C19.2001 17.8648 18.8761 17.5408 18.3816 17.4896ZM45.9967 33.7825C46.0308 32.1285 44.3512 31.0542 43.0127 31.4379C42.2539 31.6595 41.5036 31.9153 40.7704 32.2052C40.0031 32.5036 39.9775 32.478 39.9775 31.6595C39.9775 22.5284 39.9775 13.3973 39.9946 4.26611C39.9946 3.37943 39.6365 2.75704 38.9459 2.26254C38.2979 1.80215 37.5732 1.52933 36.8315 1.30766C34.0691 0.514758 31.2471 0.18224 28.3824 0.096982C27.7089 0.0714046 27.0439 0.0969768 26.3788 0.0117188H26.1998C26.1486 0.0628736 26.0975 0.0543634 26.0463 0.0543634H26.0208C26.0122 0.0543634 26.0122 0.0543634 26.0037 0.0543634H25.8673C25.8588 0.0543634 25.8588 0.0543634 25.8503 0.0543634H25.8417C25.7735 0.0543634 25.7138 0.0713994 25.6627 0.0117188H25.2108C25.0233 0.0969768 24.8101 0.0458376 24.614 0.0543634H24.5884C24.5799 0.0543634 24.5799 0.0543634 24.5714 0.0543634C24.3412 0.0373118 24.0939 0.105503 23.8637 0.0117188H22.0733C21.8005 0.0799252 21.5362 0.0799252 21.2634 0.0117188H21.1696C20.965 0.088451 20.7518 0.088451 20.5472 0.0117188H20.0953C20.0527 0.0543478 20.0015 0.0543634 19.9504 0.0543634H19.9163C19.8566 0.0543634 19.7884 0.0628736 19.7372 0.0117188H19.3792C19.3024 0.0713994 19.2086 0.0543634 19.1234 0.0543634C16.847 0.0628892 14.5877 0.23341 12.3454 0.591493C10.8107 0.838742 9.29314 1.16271 7.85227 1.77657C6.41994 2.39043 5.95954 3.08101 5.95954 4.62418V31.8727C5.95954 32.4439 5.89986 32.4865 5.37126 32.2904C4.60394 32.0091 3.84515 31.6766 3.04372 31.4805C1.53465 31.1139 0.36661 31.813 0 33.2965V44.1498C0.110835 44.4568 0.0937844 44.7893 0.30693 45.0706C0.801426 45.7442 1.45791 45.9914 2.28491 45.9914C16.0797 45.9829 29.8744 45.9829 43.6692 45.9999C45.0418 46.0085 46.0053 45.0024 45.9882 43.6894C45.9456 40.3814 45.9285 37.0819 45.9967 33.7825ZM7.67323 28.6244C9.26755 29.3661 10.9386 29.6815 12.6011 29.9458C14.4598 30.2357 16.3354 30.3977 18.2196 30.5C20.5472 30.6279 22.8747 30.6791 25.2108 30.6023C28.9281 30.4744 32.6283 30.2613 36.2603 29.3405C36.9338 29.1785 37.5818 28.9313 38.2638 28.6244C38.2638 30.0055 38.2638 31.3355 38.2723 32.657C38.2723 32.9384 38.1104 32.9214 37.9228 32.9299C36.7377 32.9555 35.6038 32.7594 34.521 32.2819C31.7501 31.0627 28.9963 31.0883 26.2083 32.2734C24.0513 33.1942 21.8516 33.1856 19.6861 32.2649C16.9323 31.0798 14.1955 31.0713 11.4502 32.2649C10.3503 32.7423 9.20787 32.9555 8.01425 32.9299C7.82669 32.9214 7.66471 32.9384 7.66471 32.657C7.67323 31.3355 7.67323 30.0055 7.67323 28.6244ZM7.66471 13.7298C7.65618 13.3973 7.70733 13.3205 8.04836 13.4655C9.68532 14.1816 11.4416 14.48 13.1979 14.7102C17.6228 15.2985 22.0648 15.4605 26.5238 15.2474C29.8318 15.0939 33.1313 14.8552 36.3626 14.0026C36.9082 13.8576 37.4454 13.6786 37.9569 13.4484C38.1786 13.3461 38.2723 13.3376 38.2723 13.6274C38.2638 15.3923 38.2638 17.1571 38.2723 18.922C38.2723 19.2374 38.0422 19.3568 37.8205 19.4676C36.9423 19.9365 35.9874 20.1667 35.0325 20.3714C32.057 21.0108 29.0389 21.2751 26.0122 21.3689C24.9806 21.3945 23.949 21.3689 22.9174 21.3689C19.9419 21.4115 16.9749 21.3092 14.025 20.9085C12.1493 20.6612 10.2736 20.3799 8.50023 19.6808C7.6647 19.3483 7.67323 19.3397 7.67323 18.4445C7.67323 16.8673 7.67323 15.2985 7.66471 13.7298ZM37.7352 27.175C36.7889 27.6268 35.7828 27.8911 34.7597 28.0872C29.8489 29.0592 24.8868 29.187 19.9078 29.0336C17.4694 28.9483 15.0481 28.7522 12.6438 28.36C11.2626 28.1384 9.88993 27.8741 8.57696 27.3711C8.33824 27.2773 8.11656 27.1494 7.89489 27.03C7.75848 26.9533 7.67323 26.8425 7.67323 26.6719V20.9767C8.99473 21.582 10.3503 21.8975 11.723 22.1447C13.5134 22.4687 15.3294 22.6563 17.1454 22.7842C19.652 22.9547 22.1586 23.0399 24.6737 22.9632C28.1352 22.8694 31.5881 22.6733 34.9984 21.9827C36.0983 21.7696 37.1725 21.4712 38.2638 20.9682V24.6513C38.2638 25.2055 38.2297 25.7597 38.2809 26.3138C38.315 26.7657 38.1104 27.0044 37.7352 27.175ZM8.38087 3.38796C9.61711 2.83378 10.9301 2.56948 12.2516 2.34781C16.2246 1.67427 20.2317 1.49522 24.2559 1.56342C28.0073 1.63163 31.7416 1.86184 35.4162 2.69737C36.1153 2.85936 36.8059 3.04693 37.4539 3.3368C37.7352 3.46469 38.17 3.54993 38.17 3.84833C38.17 4.11263 37.7437 4.21497 37.4709 4.3258C36.4563 4.76914 35.3821 5.01637 34.2993 5.21247C30.5394 5.92011 26.7455 6.11621 22.9344 6.12473C19.8822 6.13326 16.8385 5.9798 13.8118 5.57056C12.0725 5.33184 10.3418 5.05048 8.6878 4.41957C8.57696 4.37694 8.4576 4.34284 8.35529 4.28316C8.1251 4.15527 7.74143 4.07854 7.74996 3.83129C7.76701 3.59257 8.13362 3.49027 8.38087 3.38796ZM7.67323 5.67287C8.64517 6.09063 9.61711 6.38903 10.6146 6.60218C12.7461 7.06257 14.9031 7.30129 17.0772 7.45476C19.7969 7.65085 22.5081 7.71905 25.2279 7.63379C28.9281 7.50591 32.6197 7.30129 36.2347 6.3805C36.9082 6.20998 37.5647 5.97126 38.2638 5.66433C38.2638 7.58264 38.2638 9.43274 38.2723 11.2828C38.2723 11.6068 38.0251 11.7091 37.812 11.82C36.8912 12.2974 35.8936 12.5447 34.8876 12.7493C30.3092 13.6871 25.6797 13.8321 21.0246 13.7468C17.6655 13.6871 14.3233 13.4313 11.0239 12.7493C10.0349 12.5447 9.0544 12.306 8.13361 11.8626C7.80111 11.7006 7.65617 11.4875 7.65617 11.0953C7.68175 9.30485 7.67323 7.51444 7.67323 5.67287ZM44.4024 34.959V43.3399C44.4024 44.1669 44.1552 44.4141 43.3282 44.4141H2.66005C1.76484 44.4141 1.53465 44.184 1.53465 43.3058V34.1576C1.53465 33.1942 1.87568 32.9469 2.83057 33.1771C3.55527 33.3562 4.22028 33.7057 4.91939 33.9445C7.34072 34.7459 9.72795 34.6862 12.0725 33.6802C14.3916 32.6741 16.6935 32.6741 19.0126 33.6631C21.6897 34.8055 24.3668 34.7544 27.0439 33.6119C29.2179 32.6826 31.4261 32.657 33.6002 33.5864C36.3881 34.7714 39.142 34.8056 41.9129 33.5778C42.3903 33.3732 42.8848 33.2027 43.4049 33.1089C44.0187 32.9981 44.3768 33.2965 44.4024 33.9274C44.4109 34.2684 44.4024 34.618 44.4024 34.959ZM41.8106 36.5448C41.5889 36.6215 41.3672 36.7153 41.1455 36.8091C38.8777 37.7896 36.6098 37.764 34.3419 36.8006C31.6563 35.6581 28.9877 35.6837 26.3106 36.8262C24.1195 37.764 21.8943 37.7981 19.7031 36.8603C16.9152 35.6666 14.1699 35.6752 11.3905 36.8773C9.56596 37.6617 7.69027 37.7214 5.78902 37.1842C5.20926 37.0223 4.68067 36.7494 4.11797 36.5533C3.67462 36.3914 3.23128 36.596 3.08634 36.9967C2.9414 37.3974 3.12044 37.7896 3.55526 37.9857C3.81103 38.105 4.07533 38.1988 4.33963 38.3097C6.92295 39.3498 9.5148 39.3669 12.0811 38.267C14.4171 37.2695 16.7191 37.278 19.0552 38.267C21.6726 39.3839 24.3071 39.3583 26.9245 38.25C29.2094 37.278 31.4943 37.261 33.7707 38.2415C35.0581 38.7956 36.3796 39.094 37.8631 39.0514C39.4148 39.1367 40.9239 38.6507 42.3818 37.9857C42.8166 37.7811 42.9956 37.3889 42.8507 36.9967C42.7058 36.596 42.2624 36.3999 41.8106 36.5448ZM27.5298 11.3766C28.0925 11.3681 28.6638 11.3255 29.2179 11.2488C29.6528 11.1891 29.9085 10.8224 29.8659 10.4303C29.8233 10.021 29.4737 9.72262 28.9536 9.71409C28.5018 9.82493 27.9646 9.74822 27.436 9.842C27.0098 9.91873 26.7284 10.2768 26.7625 10.6519C26.7881 11.0526 27.1121 11.3852 27.5298 11.3766ZM29.09 25.052C28.5359 25.0606 27.9817 25.0947 27.436 25.1458C27.0268 25.1884 26.7284 25.5891 26.7625 25.9643C26.7966 26.365 27.1206 26.6719 27.5384 26.6805C27.7089 26.6805 27.8709 26.6634 28.0329 26.6549C28.0329 26.6634 28.0329 26.6634 28.0329 26.6719C28.408 26.6378 28.7831 26.6123 29.1497 26.5696C29.6016 26.5185 29.9 26.1689 29.8659 25.7597C29.8403 25.359 29.5078 25.0435 29.09 25.052ZM27.5639 19.0243C28.1011 19.0158 28.6382 18.9817 29.1753 18.922C29.5931 18.8879 29.883 18.5127 29.8659 18.1291C29.8489 17.7198 29.5419 17.4129 29.1071 17.3959C28.9366 17.3873 28.749 17.4129 28.57 17.4214V17.3959C28.2119 17.43 27.8623 17.4555 27.5042 17.4982C27.0524 17.5493 26.7369 17.8903 26.7625 18.2911C26.7796 18.7088 27.1206 19.0328 27.5639 19.0243ZM23.7188 25.2566C23.4716 25.2396 23.2158 25.2566 22.96 25.2566V25.2481C22.7213 25.2481 22.4826 25.2396 22.2438 25.2566C21.7493 25.2822 21.4424 25.5892 21.4424 26.0325C21.4339 26.4758 21.7408 26.7998 22.2353 26.8169C22.7213 26.8339 23.2158 26.8339 23.7103 26.8169C24.1792 26.7998 24.4861 26.4844 24.4946 26.0666C24.5117 25.6147 24.2133 25.2993 23.7188 25.2566ZM22.1245 19.1351C22.6786 19.1692 23.2328 19.1692 23.7785 19.1436C24.2474 19.1181 24.5117 18.7855 24.4946 18.3422C24.4776 17.9415 24.1792 17.6346 23.7444 17.609C23.4886 17.5919 23.2328 17.6005 22.9856 17.6005C22.7128 17.609 22.4484 17.5919 22.1756 17.609C21.7493 17.6431 21.4509 17.95 21.4424 18.3593C21.4339 18.7856 21.6811 19.1095 22.1245 19.1351ZM22.1074 11.4875C22.6786 11.5131 23.2499 11.5131 23.8126 11.4875C24.2303 11.4704 24.5032 11.1209 24.4946 10.6946C24.4861 10.2853 24.2218 9.99546 23.8041 9.96988C23.5312 9.95283 23.2669 9.96988 22.9941 9.96988C22.7128 9.96988 22.4314 9.95283 22.1415 9.96988C21.7152 9.99546 21.4339 10.3109 21.4339 10.7372C21.4424 11.1379 21.7152 11.4704 22.1074 11.4875ZM18.5095 25.1543C17.9468 25.0947 17.3756 25.0606 16.8129 25.052C16.4037 25.0435 16.0797 25.3931 16.0626 25.7938C16.0541 26.1774 16.3269 26.5099 16.7276 26.5611C17.1113 26.6123 17.5035 26.6378 17.9298 26.6805C18.0662 26.6805 18.2538 26.689 18.4243 26.6719C18.8506 26.6464 19.166 26.3309 19.1831 25.9302C19.1916 25.5636 18.8932 25.1884 18.5095 25.1543ZM16.8129 18.9305C17.2307 18.9731 17.6484 18.9902 18.1429 19.0328C18.1429 19.0328 18.2196 19.0328 18.2879 19.0328C18.7994 19.0243 19.166 18.7259 19.1831 18.2825C19.2001 17.8648 18.8761 17.5408 18.3816 17.4896C17.8871 17.447 17.3926 17.4129 16.9067 17.3959C16.4207 17.3788 16.0797 17.7028 16.0626 18.1376C16.0541 18.5468 16.3696 18.8964 16.8129 18.9305ZM16.8129 11.2743C17.2648 11.334 17.7252 11.3511 18.1855 11.3852C18.7397 11.4193 19.1404 11.1208 19.1745 10.6434C19.2086 10.2086 18.8591 9.85903 18.322 9.8164C17.8786 9.77377 17.4267 9.75672 16.9834 9.73967C16.4889 9.69704 16.1138 9.99544 16.0712 10.4303C16.0285 10.8565 16.3184 11.2146 16.8129 11.2743ZM18.3816 17.4896C17.8871 17.447 17.3926 17.4129 16.9067 17.3959C16.4207 17.3788 16.0797 17.7028 16.0626 18.1376C16.0541 18.5468 16.3696 18.8964 16.8129 18.9305C17.2307 18.9731 17.6484 18.9902 18.1429 19.0328C18.1429 19.0328 18.2196 19.0328 18.2879 19.0328C18.7994 19.0243 19.166 18.7259 19.1831 18.2825C19.2001 17.8648 18.8761 17.5408 18.3816 17.4896ZM23.7444 17.609C23.4886 17.5919 23.2328 17.6005 22.9856 17.6005C22.7128 17.609 22.4484 17.5919 22.1756 17.609C21.7493 17.6431 21.4509 17.95 21.4424 18.3593C21.4339 18.7856 21.6811 19.1095 22.1245 19.1351C22.6786 19.1692 23.2328 19.1692 23.7785 19.1436C24.2474 19.1181 24.5117 18.7855 24.4946 18.3422C24.4776 17.9415 24.1792 17.6346 23.7444 17.609ZM29.1071 17.3959C28.9366 17.3873 28.749 17.4129 28.57 17.4214V17.3959C28.2119 17.43 27.8623 17.4555 27.5042 17.4982C27.0524 17.5493 26.7369 17.8903 26.7625 18.2911C26.7796 18.7088 27.1206 19.0328 27.5639 19.0243C28.1011 19.0158 28.6382 18.9817 29.1753 18.922C29.5931 18.8879 29.883 18.5127 29.8659 18.1291C29.8489 17.7198 29.5419 17.4129 29.1071 17.3959ZM18.5095 25.1543C17.9468 25.0947 17.3756 25.0606 16.8129 25.052C16.4037 25.0435 16.0797 25.3931 16.0626 25.7938C16.0541 26.1774 16.3269 26.5099 16.7276 26.5611C17.1113 26.6123 17.5035 26.6378 17.9298 26.6805C18.0662 26.6805 18.2538 26.689 18.4243 26.6719C18.8506 26.6464 19.166 26.3309 19.1831 25.9302C19.1916 25.5636 18.8932 25.1884 18.5095 25.1543ZM23.7188 25.2566C23.4716 25.2396 23.2158 25.2566 22.96 25.2566V25.2481C22.7213 25.2481 22.4826 25.2396 22.2438 25.2566C21.7493 25.2822 21.4424 25.5892 21.4424 26.0325C21.4339 26.4758 21.7408 26.7998 22.2353 26.8169C22.7213 26.8339 23.2158 26.8339 23.7103 26.8169C24.1792 26.7998 24.4861 26.4844 24.4946 26.0666C24.5117 25.6147 24.2133 25.2993 23.7188 25.2566ZM29.09 25.052C28.5359 25.0606 27.9817 25.0947 27.436 25.1458C27.0268 25.1884 26.7284 25.5891 26.7625 25.9643C26.7966 26.365 27.1206 26.6719 27.5384 26.6805C27.7089 26.6805 27.8709 26.6634 28.0329 26.6549C28.0329 26.6634 28.0329 26.6634 28.0329 26.6719C28.408 26.6378 28.7831 26.6123 29.1497 26.5696C29.6016 26.5185 29.9 26.1689 29.8659 25.7597C29.8403 25.359 29.5078 25.0435 29.09 25.052ZM18.322 9.8164C17.8786 9.77377 17.4267 9.75672 16.9834 9.73967C16.4889 9.69704 16.1138 9.99544 16.0712 10.4303C16.0285 10.8565 16.3184 11.2146 16.8129 11.2743C17.2648 11.334 17.7252 11.3511 18.1855 11.3852C18.7397 11.4193 19.1404 11.1208 19.1745 10.6434C19.2086 10.2086 18.8591 9.85903 18.322 9.8164ZM23.8041 9.96988C23.5312 9.95283 23.2669 9.96988 22.9941 9.96988C22.7128 9.96988 22.4314 9.95283 22.1415 9.96988C21.7152 9.99546 21.4339 10.3109 21.4339 10.7372C21.4424 11.1379 21.7152 11.4704 22.1074 11.4875C22.6786 11.5131 23.2499 11.5131 23.8126 11.4875C24.2303 11.4704 24.5032 11.1209 24.4946 10.6946C24.4861 10.2853 24.2218 9.99546 23.8041 9.96988ZM28.9536 9.71409C28.5018 9.82493 27.9646 9.74822 27.436 9.842C27.0098 9.91873 26.7284 10.2768 26.7625 10.6519C26.7881 11.0526 27.1121 11.3852 27.5298 11.3766C28.0925 11.3681 28.6638 11.3255 29.2179 11.2488C29.6528 11.1891 29.9085 10.8224 29.8659 10.4303C29.8233 10.021 29.4737 9.72262 28.9536 9.71409ZM28.9536 9.71409C28.5018 9.82493 27.9646 9.74822 27.436 9.842C27.0098 9.91873 26.7284 10.2768 26.7625 10.6519C26.7881 11.0526 27.1121 11.3852 27.5298 11.3766C28.0925 11.3681 28.6638 11.3255 29.2179 11.2488C29.6528 11.1891 29.9085 10.8224 29.8659 10.4303C29.8233 10.021 29.4737 9.72262 28.9536 9.71409ZM29.09 25.052C28.5359 25.0606 27.9817 25.0947 27.436 25.1458C27.0268 25.1884 26.7284 25.5891 26.7625 25.9643C26.7966 26.365 27.1206 26.6719 27.5384 26.6805C27.7089 26.6805 27.8709 26.6634 28.0329 26.6549C28.0329 26.6634 28.0329 26.6634 28.0329 26.6719C28.408 26.6378 28.7831 26.6123 29.1497 26.5696C29.6016 26.5185 29.9 26.1689 29.8659 25.7597C29.8403 25.359 29.5078 25.0435 29.09 25.052ZM29.1071 17.3959C28.9366 17.3873 28.749 17.4129 28.57 17.4214V17.3959C28.2119 17.43 27.8623 17.4555 27.5042 17.4982C27.0524 17.5493 26.7369 17.8903 26.7625 18.2911C26.7796 18.7088 27.1206 19.0328 27.5639 19.0243C28.1011 19.0158 28.6382 18.9817 29.1753 18.922C29.5931 18.8879 29.883 18.5127 29.8659 18.1291C29.8489 17.7198 29.5419 17.4129 29.1071 17.3959ZM23.7188 25.2566C23.4716 25.2396 23.2158 25.2566 22.96 25.2566V25.2481C22.7213 25.2481 22.4826 25.2396 22.2438 25.2566C21.7493 25.2822 21.4424 25.5892 21.4424 26.0325C21.4339 26.4758 21.7408 26.7998 22.2353 26.8169C22.7213 26.8339 23.2158 26.8339 23.7103 26.8169C24.1792 26.7998 24.4861 26.4844 24.4946 26.0666C24.5117 25.6147 24.2133 25.2993 23.7188 25.2566ZM23.7444 17.609C23.4886 17.5919 23.2328 17.6005 22.9856 17.6005C22.7128 17.609 22.4484 17.5919 22.1756 17.609C21.7493 17.6431 21.4509 17.95 21.4424 18.3593C21.4339 18.7856 21.6811 19.1095 22.1245 19.1351C22.6786 19.1692 23.2328 19.1692 23.7785 19.1436C24.2474 19.1181 24.5117 18.7855 24.4946 18.3422C24.4776 17.9415 24.1792 17.6346 23.7444 17.609ZM23.8041 9.96988C23.5312 9.95283 23.2669 9.96988 22.9941 9.96988C22.7128 9.96988 22.4314 9.95283 22.1415 9.96988C21.7152 9.99546 21.4339 10.3109 21.4339 10.7372C21.4424 11.1379 21.7152 11.4704 22.1074 11.4875C22.6786 11.5131 23.2499 11.5131 23.8126 11.4875C24.2303 11.4704 24.5032 11.1209 24.4946 10.6946C24.4861 10.2853 24.2218 9.99546 23.8041 9.96988ZM18.5095 25.1543C17.9468 25.0947 17.3756 25.0606 16.8129 25.052C16.4037 25.0435 16.0797 25.3931 16.0626 25.7938C16.0541 26.1774 16.3269 26.5099 16.7276 26.5611C17.1113 26.6123 17.5035 26.6378 17.9298 26.6805C18.0662 26.6805 18.2538 26.689 18.4243 26.6719C18.8506 26.6464 19.166 26.3309 19.1831 25.9302C19.1916 25.5636 18.8932 25.1884 18.5095 25.1543ZM18.3816 17.4896C17.8871 17.447 17.3926 17.4129 16.9067 17.3959C16.4207 17.3788 16.0797 17.7028 16.0626 18.1376C16.0541 18.5468 16.3696 18.8964 16.8129 18.9305C17.2307 18.9731 17.6484 18.9902 18.1429 19.0328C18.1429 19.0328 18.2196 19.0328 18.2879 19.0328C18.7994 19.0243 19.166 18.7259 19.1831 18.2825C19.2001 17.8648 18.8761 17.5408 18.3816 17.4896ZM18.322 9.8164C17.8786 9.77377 17.4267 9.75672 16.9834 9.73967C16.4889 9.69704 16.1138 9.99544 16.0712 10.4303C16.0285 10.8565 16.3184 11.2146 16.8129 11.2743C17.2648 11.334 17.7252 11.3511 18.1855 11.3852C18.7397 11.4193 19.1404 11.1208 19.1745 10.6434C19.2086 10.2086 18.8591 9.85903 18.322 9.8164ZM18.322 9.8164C17.8786 9.77377 17.4267 9.75672 16.9834 9.73967C16.4889 9.69704 16.1138 9.99544 16.0712 10.4303C16.0285 10.8565 16.3184 11.2146 16.8129 11.2743C17.2648 11.334 17.7252 11.3511 18.1855 11.3852C18.7397 11.4193 19.1404 11.1208 19.1745 10.6434C19.2086 10.2086 18.8591 9.85903 18.322 9.8164ZM23.8041 9.96988C23.5312 9.95283 23.2669 9.96988 22.9941 9.96988C22.7128 9.96988 22.4314 9.95283 22.1415 9.96988C21.7152 9.99546 21.4339 10.3109 21.4339 10.7372C21.4424 11.1379 21.7152 11.4704 22.1074 11.4875C22.6786 11.5131 23.2499 11.5131 23.8126 11.4875C24.2303 11.4704 24.5032 11.1209 24.4946 10.6946C24.4861 10.2853 24.2218 9.99546 23.8041 9.96988ZM28.9536 9.71409C28.5018 9.82493 27.9646 9.74822 27.436 9.842C27.0098 9.91873 26.7284 10.2768 26.7625 10.6519C26.7881 11.0526 27.1121 11.3852 27.5298 11.3766C28.0925 11.3681 28.6638 11.3255 29.2179 11.2488C29.6528 11.1891 29.9085 10.8224 29.8659 10.4303C29.8233 10.021 29.4737 9.72262 28.9536 9.71409ZM28.9536 9.71409C28.5018 9.82493 27.9646 9.74822 27.436 9.842C27.0098 9.91873 26.7284 10.2768 26.7625 10.6519C26.7881 11.0526 27.1121 11.3852 27.5298 11.3766C28.0925 11.3681 28.6638 11.3255 29.2179 11.2488C29.6528 11.1891 29.9085 10.8224 29.8659 10.4303C29.8233 10.021 29.4737 9.72262 28.9536 9.71409ZM23.8041 9.96988C23.5312 9.95283 23.2669 9.96988 22.9941 9.96988C22.7128 9.96988 22.4314 9.95283 22.1415 9.96988C21.7152 9.99546 21.4339 10.3109 21.4339 10.7372C21.4424 11.1379 21.7152 11.4704 22.1074 11.4875C22.6786 11.5131 23.2499 11.5131 23.8126 11.4875C24.2303 11.4704 24.5032 11.1209 24.4946 10.6946C24.4861 10.2853 24.2218 9.99546 23.8041 9.96988ZM18.322 9.8164C17.8786 9.77377 17.4267 9.75672 16.9834 9.73967C16.4889 9.69704 16.1138 9.99544 16.0712 10.4303C16.0285 10.8565 16.3184 11.2146 16.8129 11.2743C17.2648 11.334 17.7252 11.3511 18.1855 11.3852C18.7397 11.4193 19.1404 11.1208 19.1745 10.6434C19.2086 10.2086 18.8591 9.85903 18.322 9.8164Z" fill="#2D0C3E"/>
<path d="M22.0748 0.0117188C21.8023 0.148005 21.5382 0.156523 21.2656 0.0117188C21.5382 0.0117188 21.8023 0.0117188 22.0748 0.0117188Z" fill="#2D0C3E"/>
<path d="M24.5873 0.0969032C24.3488 0.0713494 24.0933 0.190595 23.8633 0.0117188C24.1018 0.0117188 24.3403 0.0117188 24.5788 0.0117188C24.6043 0.0287546 24.6214 0.0457967 24.6128 0.0713504C24.6043 0.0798684 24.5958 0.0969032 24.5873 0.0969032Z" fill="#2D0C3E"/>
<path d="M21.1811 0.0117188C20.9682 0.148005 20.7637 0.165041 20.5508 0.0117188C20.7637 0.0117188 20.9682 0.0117188 21.1811 0.0117188Z" fill="#2D0C3E"/>
<path d="M24.5898 0.0969032C24.5898 0.0713494 24.5898 0.0372725 24.5898 0.0117188C24.8028 0.0117188 25.0072 0.0117188 25.2202 0.0117188C25.0243 0.190595 24.7943 0.0628315 24.5898 0.0969032Z" fill="#2D0C3E"/>
<path d="M19.9133 0.0766582C19.8366 0.0851761 19.7599 0.110733 19.7344 0C19.794 0 19.8536 0 19.9133 0C19.9473 0.0170358 19.9558 0.0340696 19.9388 0.0511054C19.9388 0.0681413 19.9218 0.0766582 19.9133 0.0766582Z" fill="#2D0C3E"/>
<path d="M19.918 0.0766582C19.918 0.0511044 19.918 0.0255538 19.918 0C19.9776 0 20.0372 0 20.0969 0C20.0713 0.110733 19.9946 0.093694 19.918 0.0766582Z" fill="#2D0C3E"/>
<path d="M25.8429 0.0766582C25.7663 0.093694 25.6896 0.102215 25.6641 0C25.7237 0 25.7833 0 25.8429 0C25.8685 0.0170358 25.8855 0.0340696 25.877 0.0511054C25.86 0.0681413 25.8514 0.0766582 25.8429 0.0766582Z" fill="#2D0C3E"/>
<path d="M25.8398 0.0766582C25.8398 0.0511044 25.8398 0.0255538 25.8398 0C25.8995 0 25.9591 0 26.0187 0C26.0443 0.0170358 26.0613 0.0340696 26.0528 0.0511054C26.0443 0.0681413 26.0358 0.0766582 26.0272 0.0766582C25.9591 0.0766582 25.8995 0.0766582 25.8398 0.0766582Z" fill="#2D0C3E"/>
<path d="M26.0195 0.0766582C26.0195 0.0511044 26.0195 0.0255538 26.0195 0C26.0792 0 26.1388 0 26.1984 0C26.1728 0.119251 26.0962 0.093694 26.0195 0.0766582Z" fill="#2D0C3E"/>
<path d="M42.3839 37.9824C40.926 38.6474 39.417 39.1333 37.8653 39.0481C36.3818 39.0907 35.0603 38.7923 33.7729 38.2382C31.4965 37.2577 29.2116 37.2747 26.9266 38.2467C24.3092 39.355 21.6748 39.3806 19.0573 38.2637C16.7213 37.2747 14.4193 37.2662 12.0832 38.2637C9.51695 39.3636 6.9251 39.3465 4.34178 38.3063C4.07748 38.1955 3.81318 38.1017 3.55741 37.9824C3.12259 37.7863 2.94355 37.3941 3.08848 36.9934C3.23342 36.5927 3.67677 36.388 4.12011 36.55C4.68282 36.7461 5.21141 37.0189 5.79116 37.1809C7.69242 37.7181 9.5681 37.6584 11.3926 36.874C14.172 35.6719 16.9173 35.6633 19.7053 36.8569C21.8964 37.7948 24.1217 37.7607 26.3128 36.8229C28.9899 35.6804 31.6585 35.6548 34.3441 36.7973C36.612 37.7607 38.8798 37.7863 41.1477 36.8058C41.3694 36.712 41.591 36.6182 41.8127 36.5415C42.2646 36.3966 42.7079 36.5927 42.8529 36.9934C42.9978 37.3856 42.8188 37.7777 42.3839 37.9824Z" fill="#2D0C3E"/>
<path d="M19.1831 18.278C19.1661 18.7213 18.7995 19.0197 18.2879 19.0282C18.2197 19.0282 18.143 19.0282 18.143 19.0282C17.6485 18.9856 17.2307 18.9685 16.8129 18.9259C16.3696 18.8918 16.0541 18.5422 16.0627 18.133C16.0797 17.6982 16.4208 17.3742 16.9067 17.3913C17.3927 17.4083 17.8872 17.4424 18.3817 17.485C18.8762 17.5362 19.2002 17.8602 19.1831 18.278Z" fill="#2D0C3E"/>
<path d="M24.4939 18.3376C24.5109 18.781 24.2466 19.1135 23.7777 19.139C23.232 19.1646 22.6779 19.1646 22.1237 19.1305C21.6803 19.105 21.4331 18.781 21.4416 18.3547C21.4501 17.9454 21.7485 17.6385 22.1748 17.6044C22.4477 17.5874 22.712 17.6044 22.9848 17.5959C23.2321 17.5959 23.4878 17.5874 23.7436 17.6044C24.1784 17.63 24.4768 17.9369 24.4939 18.3376Z" fill="#2D0C3E"/>
<path d="M29.8627 18.1255C29.8797 18.5092 29.5898 18.8844 29.1721 18.9185C28.6349 18.9781 28.0978 19.0122 27.5607 19.0208C27.1173 19.0293 26.7763 18.7053 26.7593 18.2875C26.7337 17.8868 27.0491 17.5458 27.501 17.4946C27.8591 17.452 28.2086 17.4264 28.5667 17.3923V17.4179C28.7458 17.4094 28.9333 17.3838 29.1039 17.3923C29.5387 17.4094 29.8456 17.7163 29.8627 18.1255Z" fill="#2D0C3E"/>
<path d="M19.1831 25.9252C19.1661 26.3259 18.8506 26.6413 18.4243 26.6669C18.2538 26.684 18.0663 26.6755 17.9298 26.6755C17.5036 26.6328 17.1114 26.6072 16.7277 26.5561C16.327 26.5049 16.0542 26.1724 16.0627 25.7888C16.0797 25.3881 16.4037 25.0385 16.813 25.047C17.3757 25.0556 17.9469 25.0897 18.5096 25.1493C18.8933 25.1834 19.1917 25.5586 19.1831 25.9252Z" fill="#2D0C3E"/>
<path d="M24.4938 26.0667C24.4853 26.4845 24.1784 26.7999 23.7094 26.817C23.215 26.834 22.7205 26.834 22.2345 26.817C21.74 26.7999 21.4331 26.4759 21.4416 26.0326C21.4416 25.5893 21.7485 25.2823 22.243 25.2568C22.4817 25.2397 22.7204 25.2482 22.9592 25.2482V25.2568C23.2149 25.2568 23.4707 25.2397 23.718 25.2568C24.2125 25.2994 24.5109 25.6148 24.4938 26.0667Z" fill="#2D0C3E"/>
<path d="M29.8639 25.7547C29.898 26.1639 29.5996 26.5135 29.1477 26.5646C28.7811 26.6073 28.406 26.6328 28.0308 26.6669C28.0308 26.6584 28.0308 26.6584 28.0308 26.6499C27.8688 26.6584 27.7068 26.6755 27.5363 26.6755C27.1186 26.667 26.7946 26.36 26.7605 25.9593C26.7264 25.5841 27.0248 25.1834 27.434 25.1408C27.9797 25.0897 28.5338 25.0556 29.088 25.047C29.5058 25.0385 29.8383 25.354 29.8639 25.7547Z" fill="#2D0C3E"/>
<path d="M19.17 10.6383C19.1359 11.1157 18.7352 11.4141 18.181 11.38C17.7206 11.3459 17.2602 11.3289 16.8084 11.2692C16.3139 11.2095 16.024 10.8514 16.0666 10.4251C16.1093 9.99029 16.4844 9.69189 16.9789 9.73452C17.4222 9.75157 17.8741 9.76862 18.3174 9.81125C18.8546 9.85387 19.2041 10.2034 19.17 10.6383Z" fill="#2D0C3E"/>
<path d="M24.4944 10.6893C24.5029 11.1156 24.2301 11.4652 23.8123 11.4822C23.2496 11.5078 22.6784 11.5078 22.1071 11.4822C21.7149 11.4652 21.4421 11.1326 21.4336 10.7319C21.4336 10.3056 21.7149 9.99019 22.1412 9.96461C22.4311 9.94756 22.7125 9.96461 22.9938 9.96461C23.2666 9.96461 23.5309 9.94756 23.8038 9.96461C24.2215 9.99019 24.4858 10.2801 24.4944 10.6893Z" fill="#2D0C3E"/>
<path d="M29.864 10.4271C29.9066 10.8193 29.6509 11.1859 29.216 11.2456C28.6619 11.3223 28.0906 11.365 27.5279 11.3735C27.1102 11.382 26.7862 11.0495 26.7606 10.6488C26.7265 10.2736 27.0078 9.91558 27.4341 9.83885C27.9627 9.74506 28.4999 9.82177 28.9517 9.71094C29.4718 9.71946 29.8214 10.0179 29.864 10.4271Z" fill="#2D0C3E"/>
<path d="M42.3839 37.9824C40.926 38.6474 39.417 39.1333 37.8653 39.0481C36.3818 39.0907 35.0603 38.7923 33.7729 38.2382C31.4965 37.2577 29.2116 37.2747 26.9266 38.2467C24.3092 39.355 21.6748 39.3806 19.0573 38.2637C16.7213 37.2747 14.4193 37.2662 12.0832 38.2637C9.51695 39.3636 6.9251 39.3465 4.34178 38.3063C4.07748 38.1955 3.81318 38.1017 3.55741 37.9824C3.12259 37.7863 2.94355 37.3941 3.08848 36.9934C3.23342 36.5927 3.67677 36.388 4.12011 36.55C4.68282 36.7461 5.21141 37.0189 5.79116 37.1809C7.69242 37.7181 9.5681 37.6584 11.3926 36.874C14.172 35.6719 16.9173 35.6633 19.7053 36.8569C21.8964 37.7948 24.1217 37.7607 26.3128 36.8229C28.9899 35.6804 31.6585 35.6548 34.3441 36.7973C36.612 37.7607 38.8798 37.7863 41.1477 36.8058C41.3694 36.712 41.591 36.6182 41.8127 36.5415C42.2646 36.3966 42.7079 36.5927 42.8529 36.9934C42.9978 37.3856 42.8188 37.7777 42.3839 37.9824Z" fill="#2D0C3E"/>
<path d="M19.1831 18.278C19.1661 18.7213 18.7995 19.0197 18.2879 19.0282C18.2197 19.0282 18.143 19.0282 18.143 19.0282C17.6485 18.9856 17.2307 18.9685 16.8129 18.9259C16.3696 18.8918 16.0541 18.5422 16.0627 18.133C16.0797 17.6982 16.4208 17.3742 16.9067 17.3913C17.3927 17.4083 17.8872 17.4424 18.3817 17.485C18.8762 17.5362 19.2002 17.8602 19.1831 18.278Z" fill="#2D0C3E"/>
<path d="M29.8627 18.1255C29.8797 18.5092 29.5898 18.8844 29.1721 18.9185C28.6349 18.9781 28.0978 19.0122 27.5607 19.0208C27.1173 19.0293 26.7763 18.7053 26.7593 18.2875C26.7337 17.8868 27.0491 17.5458 27.501 17.4946C27.8591 17.452 28.2086 17.4264 28.5667 17.3923V17.4179C28.7458 17.4094 28.9333 17.3838 29.1039 17.3923C29.5387 17.4094 29.8456 17.7163 29.8627 18.1255Z" fill="#2D0C3E"/>
<path d="M24.4939 18.3376C24.5109 18.781 24.2466 19.1135 23.7777 19.139C23.232 19.1646 22.6779 19.1646 22.1237 19.1305C21.6803 19.105 21.4331 18.781 21.4416 18.3547C21.4501 17.9454 21.7485 17.6385 22.1748 17.6044C22.4477 17.5874 22.712 17.6044 22.9848 17.5959C23.2321 17.5959 23.4878 17.5874 23.7436 17.6044C24.1784 17.63 24.4768 17.9369 24.4939 18.3376Z" fill="#2D0C3E"/>
<path d="M24.4938 26.0667C24.4853 26.4845 24.1784 26.7999 23.7094 26.817C23.215 26.834 22.7205 26.834 22.2345 26.817C21.74 26.7999 21.4331 26.4759 21.4416 26.0326C21.4416 25.5893 21.7485 25.2823 22.243 25.2568C22.4817 25.2397 22.7204 25.2482 22.9592 25.2482V25.2568C23.2149 25.2568 23.4707 25.2397 23.718 25.2568C24.2125 25.2994 24.5109 25.6148 24.4938 26.0667Z" fill="#2D0C3E"/>
<path d="M19.1831 25.9252C19.1661 26.3259 18.8506 26.6413 18.4243 26.6669C18.2538 26.684 18.0663 26.6755 17.9298 26.6755C17.5036 26.6328 17.1114 26.6072 16.7277 26.5561C16.327 26.5049 16.0542 26.1724 16.0627 25.7888C16.0797 25.3881 16.4037 25.0385 16.813 25.047C17.3757 25.0556 17.9469 25.0897 18.5096 25.1493C18.8933 25.1834 19.1917 25.5586 19.1831 25.9252Z" fill="#2D0C3E"/>
<path d="M29.8639 25.7547C29.898 26.1639 29.5996 26.5135 29.1477 26.5646C28.7811 26.6073 28.406 26.6328 28.0308 26.6669C28.0308 26.6584 28.0308 26.6584 28.0308 26.6499C27.8688 26.6584 27.7068 26.6755 27.5363 26.6755C27.1186 26.667 26.7946 26.36 26.7605 25.9593C26.7264 25.5841 27.0248 25.1834 27.434 25.1408C27.9797 25.0897 28.5338 25.0556 29.088 25.047C29.5058 25.0385 29.8383 25.354 29.8639 25.7547Z" fill="#2D0C3E"/>
<path d="M19.17 10.6383C19.1359 11.1157 18.7352 11.4141 18.181 11.38C17.7206 11.3459 17.2602 11.3289 16.8084 11.2692C16.3139 11.2095 16.024 10.8514 16.0666 10.4251C16.1093 9.99029 16.4844 9.69189 16.9789 9.73452C17.4222 9.75157 17.8741 9.76862 18.3174 9.81125C18.8546 9.85387 19.2041 10.2034 19.17 10.6383Z" fill="#2D0C3E"/>
<path d="M29.864 10.4271C29.9066 10.8193 29.6509 11.1859 29.216 11.2456C28.6619 11.3223 28.0906 11.365 27.5279 11.3735C27.1102 11.382 26.7862 11.0495 26.7606 10.6488C26.7265 10.2736 27.0078 9.91558 27.4341 9.83885C27.9627 9.74506 28.4999 9.82177 28.9517 9.71094C29.4718 9.71946 29.8214 10.0179 29.864 10.4271Z" fill="#2D0C3E"/>
<path d="M24.4944 10.6893C24.5029 11.1156 24.2301 11.4652 23.8123 11.4822C23.2496 11.5078 22.6784 11.5078 22.1071 11.4822C21.7149 11.4652 21.4421 11.1326 21.4336 10.7319C21.4336 10.3056 21.7149 9.99019 22.1412 9.96461C22.4311 9.94756 22.7125 9.96461 22.9938 9.96461C23.2666 9.96461 23.5309 9.94756 23.8038 9.96461C24.2215 9.99019 24.4858 10.2801 24.4944 10.6893Z" fill="#2D0C3E"/>
</svg>
