<svg width="51" height="48" viewBox="0 0 51 48" fill="none" xmlns="http://www.w3.org/2000/svg">
<path d="M50.6949 5.55854C50.4484 5.91279 50.1019 6.14384 49.7246 6.35177C48.0842 7.2528 46.4593 8.16922 44.819 9.07025C44.0874 9.4707 43.4097 9.21656 43.2248 8.48496C43.1093 8.0306 43.3327 7.61473 43.8948 7.29899C45.2425 6.54429 46.5902 5.79729 47.9379 5.05029C48.2844 4.85776 48.6233 4.66524 48.9698 4.47271C49.7862 4.02605 50.2636 4.15695 50.7026 4.95786C50.6949 5.16579 50.6949 5.35831 50.6949 5.55854Z" fill="#2D0C3E"/>
<path d="M10.4785 31.1574C10.1858 30.6723 9.61596 30.5414 9.05378 30.8417C8.61482 31.0727 8.19896 31.3346 7.7754 31.5733C6.90518 32.0816 6.65874 32.0431 5.98875 31.3269C5.55749 30.8571 5.04152 30.7955 4.59486 31.1574C4.179 31.4963 4.10199 32.0354 4.42544 32.5282C5.01842 33.437 5.85784 33.8913 6.94369 33.8913C7.39805 33.9067 7.82931 33.8143 8.22207 33.591C8.84585 33.2521 9.46964 32.921 10.0703 32.5513C10.6017 32.2279 10.7634 31.6195 10.4785 31.1574ZM13.0891 28.7008C12.5424 28.6854 12.0957 29.0935 12.0803 29.6249C12.0572 30.1871 12.4731 30.6415 13.0352 30.6723C13.5512 30.6954 14.021 30.2487 14.0441 29.7327C14.0749 29.1629 13.659 28.7239 13.0891 28.7008ZM13.0891 28.7008C12.5424 28.6854 12.0957 29.0935 12.0803 29.6249C12.0572 30.1871 12.4731 30.6415 13.0352 30.6723C13.5512 30.6954 14.021 30.2487 14.0441 29.7327C14.0749 29.1629 13.659 28.7239 13.0891 28.7008ZM9.05378 30.8417C8.61482 31.0727 8.19896 31.3346 7.7754 31.5733C6.90518 32.0816 6.65874 32.0431 5.98875 31.3269C5.55749 30.8571 5.04152 30.7955 4.59486 31.1574C4.179 31.4963 4.10199 32.0354 4.42544 32.5282C5.01842 33.437 5.85784 33.8913 6.94369 33.8913C7.39805 33.9067 7.82931 33.8143 8.22207 33.591C8.84585 33.2521 9.46964 32.921 10.0703 32.5513C10.6017 32.2279 10.7634 31.6195 10.4785 31.1574C10.1858 30.6723 9.61596 30.5414 9.05378 30.8417ZM41.3983 23.6643C40.4125 21.8853 39.3806 20.1218 38.3409 18.366C38.1561 18.0502 38.1792 17.85 38.3794 17.5496C38.9878 16.6871 39.5346 15.7861 40.1353 14.9159C40.4356 14.4692 40.451 14.0457 40.1738 13.5836C39.5654 12.5517 38.9647 11.512 38.3717 10.4647C38.1176 10.0103 37.7557 9.77157 37.2089 9.81008C36.1615 9.88709 35.1065 9.9256 34.0514 10.0103C33.6741 10.0411 33.4662 9.941 33.2813 9.59445C32.1878 7.66148 31.0865 5.7362 29.9545 3.82634C29.2614 2.64807 28.2371 2.06281 26.8201 2.27844C25.8344 2.41706 25.2183 3.04084 24.6484 3.76474C20.4745 9.10158 16.2851 14.4307 12.1034 19.7598C11.934 19.9755 11.7492 20.1372 11.5181 20.2681C8.87666 21.7852 6.24289 23.3024 3.60912 24.8349C0.921452 26.3982 -0.364632 29.055 0.0897307 32.0662C0.705816 36.1939 5.03382 38.8508 9.02297 37.5339C9.38492 37.4184 9.55435 37.4723 9.74688 37.8111C11.2794 40.4988 12.8196 43.1788 14.3752 45.8434C15.8769 48.4155 19.0729 48.739 20.975 46.5365C22.0686 45.2735 22.1764 43.4792 21.2369 41.8465C20.3589 40.3063 19.4733 38.7661 18.5723 37.2336C18.4183 36.9794 18.4183 36.8716 18.6955 36.7253C19.3963 36.3556 20.074 35.9475 20.7517 35.547C21.4987 35.1081 21.6296 34.6229 21.1984 33.8605C20.8287 33.1982 20.4514 32.5513 20.0432 31.8428C20.9365 31.6657 21.7605 31.504 22.5769 31.3423C27.2129 30.4335 31.8412 29.5248 36.4696 28.6238C37.4168 28.439 38.3717 28.2695 39.3267 28.0847C41.3906 27.6765 42.4225 25.5126 41.3983 23.6643ZM36.7006 11.8509C36.8777 11.8278 36.9239 11.9664 36.9855 12.0742C37.3475 12.698 37.7094 13.3295 38.0714 13.9533C38.133 14.0611 38.2408 14.1612 38.133 14.3075C37.7557 14.862 37.3937 15.4242 37.0009 16.0171C36.2154 14.654 35.4607 13.3526 34.6906 12.0126C35.3914 11.8509 36.0537 11.9202 36.7006 11.8509ZM9.60055 35.1004C8.78424 35.5701 7.92172 35.832 7.29793 35.8551C4.78738 35.8859 2.84672 34.4612 2.19213 32.3588C1.56064 30.3257 2.33075 28.0077 4.17901 26.8679C6.72806 25.2969 9.34641 23.8491 11.9186 22.332C12.2574 22.1395 12.2728 22.409 12.3652 22.563C13.7283 24.9042 15.0837 27.253 16.4314 29.6018C16.647 29.9869 17.1091 30.395 17.0013 30.7493C16.9012 31.0496 16.3236 31.2113 15.9539 31.4193C13.8361 32.6514 11.7106 33.8605 9.60055 35.1004ZM19.5503 42.9093C20.4668 44.4726 19.2654 46.059 18.0871 45.9897C17.0706 45.9666 16.5161 45.5507 16.1157 44.8576C15.1376 43.1403 14.1442 41.4384 13.1584 39.7287C12.5886 38.743 12.0264 37.7572 11.4488 36.7792C11.3025 36.5405 11.2794 36.4173 11.5643 36.2633C12.4962 35.7473 13.4203 35.2082 14.3444 34.6614C14.5831 34.5228 14.6987 34.4997 14.8604 34.7846C16.4083 37.5031 17.9639 40.2139 19.5503 42.9093ZM18.8264 34.338C18.426 34.5767 18.0255 34.8001 17.6328 35.0388C17.4634 35.1389 17.3555 35.1543 17.2477 34.9541C17.0244 34.5305 16.7856 34.1224 16.5392 33.7142C16.4237 33.5294 16.4468 33.4369 16.6393 33.3368C17.0629 33.1135 17.4633 32.8594 17.8792 32.6283C17.9485 32.5898 18.0486 32.4512 18.1256 32.5744C18.4414 33.075 18.734 33.5833 19.0113 34.053C19.0575 34.2687 18.9111 34.2918 18.8264 34.338ZM31.5409 27.5456C27.5748 28.3234 23.6088 29.1013 19.6428 29.8868C19.1807 29.9792 18.9188 29.9484 18.6493 29.4709C17.1091 26.7293 15.5304 24.0185 13.944 21.3001C13.7822 21.0228 13.7822 20.8534 13.9902 20.5839C17.5558 16.0633 21.1059 11.5351 24.6561 7.00688C24.6946 6.96067 24.7409 6.91447 24.8102 6.83746C28.6299 13.445 32.4188 20.0063 36.2385 26.6215C34.6444 26.9372 33.0965 27.2376 31.5409 27.5456ZM38.5104 26.1748C38.2331 26.2596 38.2023 26.0054 38.1099 25.8514C36.6082 23.2638 35.1142 20.6686 33.6202 18.081C31.2175 13.9224 28.8224 9.76386 26.4197 5.61299C26.1347 5.10472 26.2118 4.79667 26.7354 4.40392C27.0897 4.13438 27.6904 4.1729 27.9984 4.51174C28.1139 4.64266 28.214 4.80437 28.2987 4.95839C32.0492 11.4504 35.7842 17.9501 39.5577 24.4267C40.0352 25.2507 39.7425 26.1517 38.5104 26.1748ZM13.0891 28.7008C12.5424 28.6854 12.0957 29.0935 12.0803 29.6249C12.0572 30.1871 12.4731 30.6415 13.0352 30.6723C13.5512 30.6954 14.021 30.2487 14.0441 29.7327C14.0749 29.1629 13.659 28.7239 13.0891 28.7008ZM9.05378 30.8417C8.61482 31.0727 8.19896 31.3346 7.7754 31.5733C6.90518 32.0816 6.65874 32.0431 5.98875 31.3269C5.55749 30.8571 5.04152 30.7955 4.59486 31.1574C4.179 31.4963 4.10199 32.0354 4.42544 32.5282C5.01842 33.437 5.85784 33.8913 6.94369 33.8913C7.39805 33.9067 7.82931 33.8143 8.22207 33.591C8.84585 33.2521 9.46964 32.921 10.0703 32.5513C10.6017 32.2279 10.7634 31.6195 10.4785 31.1574C10.1858 30.6723 9.61596 30.5414 9.05378 30.8417ZM10.4785 31.1574C10.1858 30.6723 9.61596 30.5414 9.05378 30.8417C8.61482 31.0727 8.19896 31.3346 7.7754 31.5733C6.90518 32.0816 6.65874 32.0431 5.98875 31.3269C5.55749 30.8571 5.04152 30.7955 4.59486 31.1574C4.179 31.4963 4.10199 32.0354 4.42544 32.5282C5.01842 33.437 5.85784 33.8913 6.94369 33.8913C7.39805 33.9067 7.82931 33.8143 8.22207 33.591C8.84585 33.2521 9.46964 32.921 10.0703 32.5513C10.6017 32.2279 10.7634 31.6195 10.4785 31.1574ZM13.0891 28.7008C12.5424 28.6854 12.0957 29.0935 12.0803 29.6249C12.0572 30.1871 12.4731 30.6415 13.0352 30.6723C13.5512 30.6954 14.021 30.2487 14.0441 29.7327C14.0749 29.1629 13.659 28.7239 13.0891 28.7008ZM13.0891 28.7008C12.5424 28.6854 12.0957 29.0935 12.0803 29.6249C12.0572 30.1871 12.4731 30.6415 13.0352 30.6723C13.5512 30.6954 14.021 30.2487 14.0441 29.7327C14.0749 29.1629 13.659 28.7239 13.0891 28.7008ZM10.4785 31.1574C10.1858 30.6723 9.61596 30.5414 9.05378 30.8417C8.61482 31.0727 8.19896 31.3346 7.7754 31.5733C6.90518 32.0816 6.65874 32.0431 5.98875 31.3269C5.55749 30.8571 5.04152 30.7955 4.59486 31.1574C4.179 31.4963 4.10199 32.0354 4.42544 32.5282C5.01842 33.437 5.85784 33.8913 6.94369 33.8913C7.39805 33.9067 7.82931 33.8143 8.22207 33.591C8.84585 33.2521 9.46964 32.921 10.0703 32.5513C10.6017 32.2279 10.7634 31.6195 10.4785 31.1574Z" fill="#2D0C3E"/>
<path d="M37.981 4.65741C38.1735 3.91811 38.4045 3.03249 38.6355 2.13917C38.7588 1.6771 38.8743 1.21503 39.0206 0.76067C39.2054 0.190791 39.7445 -0.109552 40.2528 0.0367681C40.7918 0.198491 41.0845 0.73756 40.9305 1.33054C40.6224 2.53961 40.3067 3.74869 39.9755 4.95005C39.8061 5.56614 39.344 5.89728 38.8281 5.81257C38.3198 5.72786 37.9655 5.312 37.981 4.65741Z" fill="#2D0C3E"/>
<path d="M48.2118 16.5375C47.3878 16.3219 46.4482 16.0755 45.5164 15.8291C45.1545 15.7366 44.7848 15.6442 44.4229 15.5364C43.8145 15.3516 43.4679 14.8433 43.5911 14.3196C43.7144 13.7729 44.2149 13.434 44.8541 13.588C46.1479 13.8961 47.4263 14.2503 48.7046 14.62C49.2206 14.774 49.4824 15.2823 49.3746 15.7443C49.2591 16.2295 48.8202 16.5607 48.2118 16.5375Z" fill="#2D0C3E"/>
<path d="M10.4798 31.1557C10.7647 31.6178 10.603 32.2262 10.0716 32.5496C9.47095 32.9193 8.84717 33.2504 8.22339 33.5893C7.83063 33.8126 7.39937 33.905 6.94501 33.8896C5.85916 33.8896 5.01974 33.4352 4.42675 32.5265C4.10331 32.0336 4.18032 31.4946 4.59618 31.1557C5.04284 30.7938 5.55881 30.8554 5.99007 31.3251C6.66006 32.0413 6.9065 32.0799 7.77672 31.5716C8.20028 31.3329 8.61614 31.071 9.0551 30.84C9.61728 30.5396 10.1872 30.6706 10.4798 31.1557Z" fill="#2D0C3E"/>
<path d="M14.0428 29.7316C14.0197 30.2476 13.55 30.6942 13.034 30.6711C12.4718 30.6403 12.0559 30.1859 12.079 29.6238C12.0944 29.0924 12.5411 28.6842 13.0879 28.6996C13.6578 28.7227 14.0736 29.1617 14.0428 29.7316Z" fill="#2D0C3E"/>
<path d="M10.0716 32.5496C9.47095 32.9193 8.84717 33.2504 8.22339 33.5893C7.83063 33.8126 7.39937 33.905 6.94501 33.8896C5.85916 33.8896 5.01974 33.4352 4.42675 32.5265C4.10331 32.0336 4.18032 31.4946 4.59618 31.1557C5.04284 30.7938 5.55881 30.8554 5.99007 31.3251C6.66006 32.0413 6.9065 32.0799 7.77672 31.5716C8.20028 31.3329 8.61614 31.071 9.0551 30.84C9.61728 30.5396 10.1872 30.6706 10.4798 31.1557C10.7647 31.6178 10.603 32.2262 10.0716 32.5496Z" fill="#2D0C3E"/>
<path d="M14.0428 29.7316C14.0197 30.2476 13.55 30.6942 13.034 30.6711C12.4718 30.6403 12.0559 30.1859 12.079 29.6238C12.0944 29.0924 12.5411 28.6842 13.0879 28.6996C13.6578 28.7227 14.0736 29.1617 14.0428 29.7316Z" fill="#2D0C3E"/>
</svg>
