<svg width="46" height="57" viewBox="0 0 46 57" fill="none" xmlns="http://www.w3.org/2000/svg">
<path d="M12.4688 12.0078H9.54688L9.53125 10.3984H11.9844C12.4167 10.3984 12.7708 10.3438 13.0469 10.2344C13.3229 10.1198 13.5286 9.95573 13.6641 9.74219C13.8047 9.52344 13.875 9.25781 13.875 8.94531C13.875 8.59115 13.8073 8.30469 13.6719 8.08594C13.5417 7.86719 13.3359 7.70833 13.0547 7.60938C12.7786 7.51042 12.4219 7.46094 11.9844 7.46094H10.3594V17H8.01562V5.625H11.9844C12.6458 5.625 13.237 5.6875 13.7578 5.8125C14.2839 5.9375 14.7292 6.1276 15.0938 6.38281C15.4583 6.63802 15.737 6.96094 15.9297 7.35156C16.1224 7.73698 16.2188 8.19531 16.2188 8.72656C16.2188 9.19531 16.112 9.6276 15.8984 10.0234C15.6901 10.4193 15.3594 10.7422 14.9062 10.9922C14.4583 11.2422 13.8724 11.3802 13.1484 11.4062L12.4688 12.0078ZM12.3672 17H8.90625L9.82031 15.1719H12.3672C12.7786 15.1719 13.1146 15.1068 13.375 14.9766C13.6354 14.8411 13.8281 14.6589 13.9531 14.4297C14.0781 14.2005 14.1406 13.9375 14.1406 13.6406C14.1406 13.3073 14.0833 13.0182 13.9688 12.7734C13.8594 12.5286 13.6823 12.3411 13.4375 12.2109C13.1927 12.0755 12.8698 12.0078 12.4688 12.0078H10.2109L10.2266 10.3984H13.0391L13.5781 11.0312C14.2708 11.0208 14.8281 11.1432 15.25 11.3984C15.6771 11.6484 15.987 11.974 16.1797 12.375C16.3776 12.776 16.4766 13.2057 16.4766 13.6641C16.4766 14.3932 16.3177 15.0078 16 15.5078C15.6823 16.0026 15.2161 16.375 14.6016 16.625C13.9922 16.875 13.2474 17 12.3672 17ZM24.8281 13.2266H27.1641C27.1172 13.9922 26.9062 14.6719 26.5312 15.2656C26.1615 15.8594 25.6432 16.3229 24.9766 16.6562C24.3151 16.9896 23.5182 17.1562 22.5859 17.1562C21.8568 17.1562 21.2031 17.0312 20.625 16.7812C20.0469 16.526 19.5521 16.1615 19.1406 15.6875C18.7344 15.2135 18.4245 14.6406 18.2109 13.9688C17.9974 13.2969 17.8906 12.5443 17.8906 11.7109V10.9219C17.8906 10.0885 18 9.33594 18.2188 8.66406C18.4427 7.98698 18.7604 7.41146 19.1719 6.9375C19.5885 6.46354 20.0859 6.09896 20.6641 5.84375C21.2422 5.58854 21.888 5.46094 22.6016 5.46094C23.5495 5.46094 24.349 5.63281 25 5.97656C25.6562 6.32031 26.1641 6.79427 26.5234 7.39844C26.888 8.0026 27.1068 8.6901 27.1797 9.46094H24.8359C24.8099 9.0026 24.7188 8.61458 24.5625 8.29688C24.4062 7.97396 24.1693 7.73177 23.8516 7.57031C23.5391 7.40365 23.1224 7.32031 22.6016 7.32031C22.2109 7.32031 21.8698 7.39323 21.5781 7.53906C21.2865 7.6849 21.0417 7.90625 20.8438 8.20312C20.6458 8.5 20.4974 8.875 20.3984 9.32812C20.3047 9.77604 20.2578 10.3021 20.2578 10.9062V11.7109C20.2578 12.2995 20.3021 12.8177 20.3906 13.2656C20.4792 13.7083 20.6146 14.0833 20.7969 14.3906C20.9844 14.6927 21.224 14.9219 21.5156 15.0781C21.8125 15.2292 22.1693 15.3047 22.5859 15.3047C23.0755 15.3047 23.4792 15.2266 23.7969 15.0703C24.1146 14.9141 24.3568 14.6823 24.5234 14.375C24.6953 14.0677 24.7969 13.6849 24.8281 13.2266ZM34.625 14.0234C34.625 13.8203 34.5938 13.638 34.5312 13.4766C34.474 13.3099 34.3646 13.1589 34.2031 13.0234C34.0417 12.8828 33.8151 12.7448 33.5234 12.6094C33.2318 12.474 32.8542 12.3333 32.3906 12.1875C31.875 12.0208 31.3854 11.8333 30.9219 11.625C30.4635 11.4167 30.0573 11.1745 29.7031 10.8984C29.3542 10.6172 29.0781 10.2917 28.875 9.92188C28.6771 9.55208 28.5781 9.1224 28.5781 8.63281C28.5781 8.15885 28.6823 7.72917 28.8906 7.34375C29.099 6.95312 29.3906 6.61979 29.7656 6.34375C30.1406 6.0625 30.5833 5.84635 31.0938 5.69531C31.6094 5.54427 32.1745 5.46875 32.7891 5.46875C33.6276 5.46875 34.3594 5.61979 34.9844 5.92188C35.6094 6.22396 36.0938 6.63802 36.4375 7.16406C36.7865 7.6901 36.9609 8.29167 36.9609 8.96875H34.6328C34.6328 8.63542 34.5625 8.34375 34.4219 8.09375C34.2865 7.83854 34.0781 7.63802 33.7969 7.49219C33.5208 7.34635 33.1719 7.27344 32.75 7.27344C32.3438 7.27344 32.0052 7.33594 31.7344 7.46094C31.4635 7.58073 31.2604 7.74479 31.125 7.95312C30.9896 8.15625 30.9219 8.38542 30.9219 8.64062C30.9219 8.83333 30.9688 9.00781 31.0625 9.16406C31.1615 9.32031 31.3073 9.46615 31.5 9.60156C31.6927 9.73698 31.9297 9.86458 32.2109 9.98438C32.4922 10.1042 32.8177 10.2214 33.1875 10.3359C33.8073 10.5234 34.3516 10.7344 34.8203 10.9688C35.2943 11.2031 35.6901 11.4661 36.0078 11.7578C36.3255 12.0495 36.5651 12.3802 36.7266 12.75C36.888 13.1198 36.9688 13.5391 36.9688 14.0078C36.9688 14.5026 36.8724 14.9453 36.6797 15.3359C36.487 15.7266 36.2083 16.0573 35.8438 16.3281C35.4792 16.599 35.0443 16.8047 34.5391 16.9453C34.0339 17.0859 33.4688 17.1562 32.8438 17.1562C32.2812 17.1562 31.7266 17.0833 31.1797 16.9375C30.6328 16.7865 30.1354 16.5599 29.6875 16.2578C29.2448 15.9557 28.8906 15.5703 28.625 15.1016C28.3594 14.6328 28.2266 14.0781 28.2266 13.4375H30.5781C30.5781 13.7917 30.6328 14.0911 30.7422 14.3359C30.8516 14.5807 31.0052 14.7786 31.2031 14.9297C31.4062 15.0807 31.6458 15.1901 31.9219 15.2578C32.2031 15.3255 32.5104 15.3594 32.8438 15.3594C33.25 15.3594 33.5833 15.3021 33.8438 15.1875C34.1094 15.0729 34.3047 14.9141 34.4297 14.7109C34.5599 14.5078 34.625 14.2786 34.625 14.0234Z" fill="#2D0C3E"/>
<path d="M44.7832 28.2567C44.0655 28.249 43.3478 28.2374 42.6301 28.2644C42.3253 28.2721 42.2558 28.1718 42.2674 27.8901C42.2906 27.4425 42.2713 26.9949 42.2713 26.5435C42.2713 25.7177 42.1246 25.4901 41.3722 25.1929C38.4435 24.0431 35.4145 23.746 32.316 24.209C29.0207 24.7029 26.0149 25.9454 23.2752 27.8361C23.063 27.9827 22.9241 28.0059 22.6965 27.8477C19.5362 25.6907 16.075 24.3556 12.2357 24.0624C9.50766 23.854 6.8838 24.2592 4.35639 25.2894C3.8895 25.4785 3.6657 25.8258 3.68113 26.3351C3.69271 26.8599 3.66955 27.3808 3.68885 27.9056C3.70042 28.1718 3.63869 28.2683 3.34929 28.2567C2.66246 28.2335 1.97176 28.2683 1.28492 28.2451C0.709988 28.2258 0.266245 28.3956 0 28.932V56.0388C0.289397 56.4401 0.636675 56.6716 1.17688 56.6716C15.7123 56.6601 30.2478 56.6639 44.7832 56.66C45.609 56.66 45.9524 56.3128 45.9524 55.4909V29.4259C45.9563 28.6155 45.6128 28.2683 44.7832 28.2567ZM19.0732 54.7153C13.5245 54.7192 7.97579 54.7114 2.42708 54.7269C2.01035 54.7269 1.91774 54.6111 1.92159 54.2098C1.93317 46.373 1.93317 38.5361 1.92159 30.6992C1.92159 30.3018 1.99877 30.132 2.42322 30.186C2.83223 30.24 3.38402 30.0162 3.61939 30.2748C3.8239 30.5024 3.68499 31.0426 3.68499 31.4439C3.68499 38.428 3.70042 45.4122 3.66955 52.4001C3.66569 53.3995 4.41427 53.851 5.29789 53.4805C7.67095 52.4812 10.1598 52.2419 12.7142 52.5197C15.0216 52.7706 17.194 53.4535 19.2545 54.5031C19.3433 54.5455 19.4282 54.5918 19.5401 54.6497C19.3626 54.7616 19.2121 54.7153 19.0732 54.7153ZM22.0058 53.8162C16.8776 50.7332 11.5064 49.564 5.6799 51.2425C5.58343 51.0882 5.63746 50.9068 5.63746 50.7371C5.6336 42.9465 5.63746 35.1559 5.62588 27.3692C5.62588 26.9641 5.74936 26.802 6.11978 26.6862C10.017 25.463 13.8293 25.7987 17.5876 27.2727C19.0655 27.8515 20.443 28.6194 21.7434 29.5223C21.9131 29.6419 22.0173 29.75 22.0173 29.9815C22.0019 37.9071 22.0058 45.8289 22.0058 53.8162ZM24.047 53.7815C24.0393 53.7854 24.02 53.7738 23.9582 53.7622V53.3493C23.9582 45.6167 23.9621 37.884 23.9505 30.1513C23.9505 29.831 24.0392 29.6419 24.3055 29.4644C27.894 27.0335 31.8144 25.7332 36.1862 25.9801C37.502 26.0573 38.7831 26.3274 40.0333 26.7557C40.2841 26.8444 40.3381 26.9679 40.3381 27.2071C40.3304 35.1058 40.3304 43.0044 40.3342 50.8991C40.3342 51.1345 40.3458 51.2888 40.0178 51.1924C34.3997 49.5949 29.2021 50.7332 24.2785 53.6349C24.1975 53.685 24.1241 53.7352 24.047 53.7815ZM44.0424 54.1982C44.0424 54.6458 43.9189 54.7269 43.4983 54.7269C37.965 54.7114 32.4318 54.7153 26.8985 54.7153H26.4702C29.5841 52.9866 32.8909 52.1995 36.4216 52.458C37.884 52.566 39.3233 52.8632 40.6584 53.4767C41.4802 53.8548 42.2944 53.4651 42.2906 52.3577C42.2558 45.1343 42.2751 37.911 42.2635 30.6876C42.2635 30.2863 42.3562 30.132 42.7652 30.186C43.1742 30.24 43.726 30.0085 43.9575 30.2825C44.162 30.5178 44.0269 31.0503 44.0269 31.4516C44.0347 39.0377 44.0269 46.616 44.0424 54.1982Z" fill="#2D0C3E"/>
</svg>
