<svg width="48" height="49" viewBox="0 0 48 49" fill="none" xmlns="http://www.w3.org/2000/svg">
<path d="M40.5242 14.7796C40.5242 14.1259 40.5159 13.4722 40.5242 12.8184C40.5325 12.5619 40.4828 12.3384 40.309 12.1481C38.8443 10.5178 37.2472 9.0283 35.3025 7.9608C34.0861 7.2905 32.9027 7.2988 31.6862 7.97737C29.7498 9.06142 28.1693 10.5675 26.6632 12.1564C26.4894 12.3467 26.4646 12.5784 26.4646 12.8266V16.2443C26.4646 17.5684 26.8287 18.7848 27.5569 19.8937C28.9306 21.9625 30.958 23.1459 33.2337 23.9651C33.482 24.0562 33.7385 23.9982 33.9868 23.9072C34.9632 23.5679 35.8818 23.1045 36.7507 22.5418C38.3064 21.5074 39.5394 20.2082 40.1766 18.4042C40.5987 17.2291 40.5325 16.0044 40.5242 14.7796ZM38.8692 14.8872H38.8443C38.8443 15.4913 38.8857 16.0954 38.8278 16.6994C38.6954 18.1973 37.9341 19.3807 36.8335 20.3571C35.948 21.135 34.9384 21.7226 33.8461 22.1694C33.6309 22.2604 33.4406 22.2852 33.2172 22.1942C31.8931 21.6232 30.6767 20.895 29.6754 19.8441C28.641 18.76 28.1196 17.4773 28.1279 15.9795C28.1279 15.2016 28.1527 14.4238 28.1196 13.6542C28.0948 13.2239 28.2189 12.9094 28.5251 12.6115C29.6588 11.5275 30.8256 10.4848 32.1579 9.63241C33.0682 9.05315 33.9371 9.05315 34.8474 9.63241C36.2707 10.5344 37.5203 11.6267 38.6871 12.8266C38.8278 12.9756 38.8774 13.1411 38.8774 13.3397C38.8609 13.8528 38.8692 14.3742 38.8692 14.8872ZM40.5242 14.7796C40.5242 14.1259 40.5159 13.4722 40.5242 12.8184C40.5325 12.5619 40.4828 12.3384 40.309 12.1481C38.8443 10.5178 37.2472 9.0283 35.3025 7.9608C34.0861 7.2905 32.9027 7.2988 31.6862 7.97737C29.7498 9.06142 28.1693 10.5675 26.6632 12.1564C26.4894 12.3467 26.4646 12.5784 26.4646 12.8266V16.2443C26.4646 17.5684 26.8287 18.7848 27.5569 19.8937C28.9306 21.9625 30.958 23.1459 33.2337 23.9651C33.482 24.0562 33.7385 23.9982 33.9868 23.9072C34.9632 23.5679 35.8818 23.1045 36.7507 22.5418C38.3064 21.5074 39.5394 20.2082 40.1766 18.4042C40.5987 17.2291 40.5325 16.0044 40.5242 14.7796ZM38.8692 14.8872H38.8443C38.8443 15.4913 38.8857 16.0954 38.8278 16.6994C38.6954 18.1973 37.9341 19.3807 36.8335 20.3571C35.948 21.135 34.9384 21.7226 33.8461 22.1694C33.6309 22.2604 33.4406 22.2852 33.2172 22.1942C31.8931 21.6232 30.6767 20.895 29.6754 19.8441C28.641 18.76 28.1196 17.4773 28.1279 15.9795C28.1279 15.2016 28.1527 14.4238 28.1196 13.6542C28.0948 13.2239 28.2189 12.9094 28.5251 12.6115C29.6588 11.5275 30.8256 10.4848 32.1579 9.63241C33.0682 9.05315 33.9371 9.05315 34.8474 9.63241C36.2707 10.5344 37.5203 11.6267 38.6871 12.8266C38.8278 12.9756 38.8774 13.1411 38.8774 13.3397C38.8609 13.8528 38.8692 14.3742 38.8692 14.8872ZM47.1361 35.7408C47.1196 33.0513 46.0934 30.8005 44.1322 28.9716C43.9088 28.7648 43.826 28.5662 43.826 28.2683C43.8426 25.7029 43.8343 23.1293 43.8343 20.564V13.4308C43.8343 11.4778 43.3461 9.65722 42.3944 7.9608C39.4815 2.72257 33.1013 0.984799 28.1693 4.16249C24.9502 6.23958 23.2621 9.30969 23.1793 13.108C23.08 18.1559 23.1545 23.2121 23.1628 28.26C23.1628 28.5496 23.0883 28.7565 22.8648 28.9634C20.9036 30.7922 19.8692 33.0513 19.8527 35.7325C19.8278 38.2151 19.8609 40.6976 19.8361 43.1802C19.8278 43.9664 20.134 44.5705 20.6802 45.0918C21.0857 45.4725 21.5491 45.7704 22.0456 46.0104C23.8579 46.8876 25.8026 47.3096 27.7803 47.5826C32.2821 48.2198 36.7755 48.1454 41.2359 47.2351C42.7999 46.9206 44.3308 46.4655 45.688 45.5718C46.6562 44.9429 47.2023 44.1153 47.1609 42.874C47.0947 40.499 47.1609 38.1241 47.1361 35.7408ZM24.8178 13.6045C24.8592 10.0958 26.2825 7.25744 29.3278 5.41206C33.4902 2.87984 38.8526 4.60108 41.1366 9.12764C41.7572 10.3689 42.1461 11.7012 42.1544 13.0832C42.1875 17.8911 42.171 22.699 42.171 27.598C40.3421 26.5636 38.4306 26.4229 36.4611 26.4643C34.5826 26.5056 32.7041 26.4974 30.8256 26.4643C28.7734 26.4312 26.7377 26.4808 24.9006 27.5235C24.7682 27.4076 24.8095 27.3 24.8095 27.2007C24.8095 22.6742 24.7764 18.1393 24.8178 13.6045ZM37.7768 28.1441C36.8169 29.1702 35.8983 30.155 34.9301 31.1894C34.7067 30.6184 34.5081 30.1219 34.3261 29.6171C34.1771 29.2282 33.9537 28.9634 33.5068 28.9551C33.0434 28.9469 32.8034 29.2199 32.6545 29.6337C32.4807 30.1302 32.2821 30.6184 32.0752 31.1729C31.107 30.155 30.1884 29.1785 29.2119 28.1441H37.7768ZM45.4893 43.2134C45.4893 43.5444 45.3321 43.7678 45.1004 43.9581C44.488 44.4546 43.7846 44.7442 43.0068 45.0008V39.0178C43.0068 38.4716 42.7668 38.1324 42.3365 38.0579C41.782 37.9669 41.36 38.3392 41.3517 38.9599C41.3517 40.9956 41.3435 43.023 41.3683 45.0587C41.3683 45.4145 41.2442 45.5221 40.9297 45.5883C37.8596 46.1842 34.7729 46.4407 31.6366 46.2669C29.7995 46.1676 27.9789 45.9359 26.1667 45.6049C25.786 45.5304 25.6122 45.4228 25.6205 44.9594C25.6619 42.9982 25.6371 41.037 25.6371 39.0674C25.6371 38.4054 25.3474 38.0579 24.8178 38.0579C24.2716 38.0496 23.982 38.3971 23.982 39.0592V44.9925C23.2124 44.7525 22.5173 44.4463 21.8966 43.9664C21.6318 43.7512 21.4911 43.4864 21.4911 43.1223C21.5077 40.6894 21.4746 38.2648 21.5077 35.8319C21.5408 32.5218 23.5765 29.6833 26.6135 28.591C26.9942 28.4503 27.2342 28.4752 27.5321 28.7979C28.7154 30.0971 29.9319 31.3715 31.1484 32.6376C31.3552 32.8527 31.3883 33.0265 31.2808 33.2996C30.9332 34.1768 30.6105 35.0622 30.2877 35.9477C30.0726 36.5352 30.2464 37.0234 30.7263 37.1889C31.1897 37.3545 31.62 37.1145 31.8435 36.5518C32.3814 35.145 32.9027 33.7382 33.4902 32.1824C34.0778 33.7299 34.6157 35.1284 35.1287 36.5352C35.2529 36.8662 35.4267 37.131 35.7742 37.2055C36.0721 37.28 36.3618 37.2138 36.5769 36.9738C36.8169 36.709 36.8666 36.4028 36.7424 36.0635C36.3866 35.1367 36.0473 34.2016 35.6915 33.2748C35.6004 33.0431 35.617 32.8858 35.8073 32.6872C37.0569 31.3797 38.2982 30.0723 39.5312 28.74C39.7629 28.4917 39.9532 28.442 40.2759 28.5496C43.2799 29.584 45.3652 32.3314 45.4645 35.567C45.539 38.1158 45.4811 40.6646 45.4893 43.2134ZM33.2337 23.9651C33.482 24.0562 33.7385 23.9982 33.9868 23.9072C34.9632 23.5679 35.8818 23.1045 36.7507 22.5418C38.3064 21.5074 39.5394 20.2082 40.1766 18.4042C40.5987 17.2291 40.5325 16.0044 40.5242 14.7796C40.5242 14.1259 40.5159 13.4722 40.5242 12.8184C40.5325 12.5619 40.4828 12.3384 40.309 12.1481C38.8443 10.5178 37.2472 9.0283 35.3025 7.9608C34.0861 7.2905 32.9027 7.2988 31.6862 7.97737C29.7498 9.06142 28.1693 10.5675 26.6632 12.1564C26.4894 12.3467 26.4646 12.5784 26.4646 12.8266V16.2443C26.4646 17.5684 26.8287 18.7848 27.5569 19.8937C28.9306 21.9625 30.958 23.1459 33.2337 23.9651ZM28.5251 12.6115C29.6588 11.5275 30.8256 10.4848 32.1579 9.63241C33.0682 9.05315 33.9371 9.05315 34.8474 9.63241C36.2707 10.5344 37.5203 11.6267 38.6871 12.8266C38.8278 12.9756 38.8774 13.1411 38.8774 13.3397C38.8609 13.8528 38.8692 14.3742 38.8692 14.8872H38.8443C38.8443 15.4913 38.8857 16.0954 38.8278 16.6994C38.6954 18.1973 37.9341 19.3807 36.8335 20.3571C35.948 21.135 34.9384 21.7226 33.8461 22.1694C33.6309 22.2604 33.4406 22.2852 33.2172 22.1942C31.8931 21.6232 30.6767 20.895 29.6754 19.8441C28.641 18.76 28.1196 17.4773 28.1279 15.9795C28.1279 15.2016 28.1527 14.4238 28.1196 13.6542C28.0948 13.2239 28.2189 12.9094 28.5251 12.6115Z" fill="#2D0C3E"/>
<path d="M40.5242 15.2093C40.5242 14.5556 40.5159 13.9018 40.5242 13.2481C40.5325 12.9916 40.4828 12.7681 40.309 12.5778C38.8443 10.9475 37.2472 9.45799 35.3025 8.39049C34.0861 7.72019 32.9027 7.72848 31.6862 8.40705C29.7498 9.49111 28.1693 10.9972 26.6632 12.586C26.4894 12.7764 26.4646 13.0081 26.4646 13.2563V16.674C26.4646 17.998 26.8287 19.2145 27.5569 20.3234C28.9306 22.3922 30.958 23.5756 33.2337 24.3948C33.482 24.4858 33.7385 24.4279 33.9868 24.3369C34.9632 23.9976 35.8818 23.5342 36.7507 22.9715C38.3064 21.9371 39.5394 20.6379 40.1766 18.8339C40.5987 17.6588 40.5325 16.4341 40.5242 15.2093ZM38.8692 15.3169H38.8443C38.8443 15.921 38.8857 16.525 38.8278 17.1291C38.6954 18.627 37.9341 19.8104 36.8335 20.7868C35.948 21.5647 34.9384 22.1522 33.8461 22.5991C33.6309 22.6901 33.4406 22.7149 33.2172 22.6239C31.8931 22.0529 30.6767 21.3247 29.6754 20.2738C28.641 19.1897 28.1196 17.907 28.1279 16.4092C28.1279 15.6313 28.1527 14.8535 28.1196 14.0839C28.0948 13.6535 28.2189 13.3391 28.5251 13.0412C29.6588 11.9572 30.8256 10.9145 32.1579 10.0621C33.0682 9.48283 33.9371 9.48283 34.8474 10.0621C36.2707 10.9641 37.5203 12.0564 38.6871 13.2563C38.8278 13.4053 38.8774 13.5708 38.8774 13.7694C38.8609 14.2825 38.8692 14.8038 38.8692 15.3169ZM40.5242 15.2093C40.5242 14.5556 40.5159 13.9018 40.5242 13.2481C40.5325 12.9916 40.4828 12.7681 40.309 12.5778C38.8443 10.9475 37.2472 9.45799 35.3025 8.39049C34.0861 7.72019 32.9027 7.72848 31.6862 8.40705C29.7498 9.49111 28.1693 10.9972 26.6632 12.586C26.4894 12.7764 26.4646 13.0081 26.4646 13.2563V16.674C26.4646 17.998 26.8287 19.2145 27.5569 20.3234C28.9306 22.3922 30.958 23.5756 33.2337 24.3948C33.482 24.4858 33.7385 24.4279 33.9868 24.3369C34.9632 23.9976 35.8818 23.5342 36.7507 22.9715C38.3064 21.9371 39.5394 20.6379 40.1766 18.8339C40.5987 17.6588 40.5325 16.4341 40.5242 15.2093ZM38.8692 15.3169H38.8443C38.8443 15.921 38.8857 16.525 38.8278 17.1291C38.6954 18.627 37.9341 19.8104 36.8335 20.7868C35.948 21.5647 34.9384 22.1522 33.8461 22.5991C33.6309 22.6901 33.4406 22.7149 33.2172 22.6239C31.8931 22.0529 30.6767 21.3247 29.6754 20.2738C28.641 19.1897 28.1196 17.907 28.1279 16.4092C28.1279 15.6313 28.1527 14.8535 28.1196 14.0839C28.0948 13.6535 28.2189 13.3391 28.5251 13.0412C29.6588 11.9572 30.8256 10.9145 32.1579 10.0621C33.0682 9.48283 33.9371 9.48283 34.8474 10.0621C36.2707 10.9641 37.5203 12.0564 38.6871 13.2563C38.8278 13.4053 38.8774 13.5708 38.8774 13.7694C38.8609 14.2825 38.8692 14.8038 38.8692 15.3169ZM47.1361 36.1705C47.1196 33.481 46.0934 31.2302 44.1322 29.4013C43.9088 29.1945 43.826 28.9959 43.826 28.698C43.8426 26.1326 43.8343 23.559 43.8343 20.9937V13.8605C43.8343 11.9075 43.3461 10.0869 42.3944 8.39049C39.4815 3.15226 33.1013 1.41449 28.1693 4.59218C24.9502 6.66926 23.2621 9.73938 23.1793 13.5377C23.08 18.5856 23.1545 23.6418 23.1628 28.6897C23.1628 28.9793 23.0883 29.1862 22.8648 29.393C20.9036 31.2219 19.8692 33.481 19.8527 36.1622C19.8278 38.6448 19.8609 41.1273 19.8361 43.6099C19.8278 44.3961 20.134 45.0002 20.6802 45.5215C21.0857 45.9022 21.5491 46.2001 22.0456 46.4401C23.8579 47.3172 25.8026 47.7393 27.7803 48.0123C32.2821 48.6495 36.7755 48.5751 41.2359 47.6648C42.7999 47.3503 44.3308 46.8952 45.688 46.0015C46.6562 45.3725 47.2023 44.545 47.1609 43.3037C47.0947 40.9287 47.1609 38.5537 47.1361 36.1705ZM24.8178 14.0342C24.8592 10.5255 26.2825 7.68713 29.3278 5.84175C33.4902 3.30952 38.8526 5.03077 41.1366 9.55732C41.7572 10.7986 42.1461 12.1309 42.1544 13.5129C42.1875 18.3208 42.171 23.1287 42.171 28.0277C40.3421 26.9933 38.4306 26.8526 36.4611 26.894C34.5826 26.9353 32.7041 26.9271 30.8256 26.894C28.7734 26.8609 26.7377 26.9105 24.9006 27.9532C24.7682 27.8373 24.8095 27.7297 24.8095 27.6304C24.8095 23.1039 24.7764 18.569 24.8178 14.0342ZM37.7768 28.5738C36.8169 29.5999 35.8983 30.5847 34.9301 31.6191C34.7067 31.0481 34.5081 30.5516 34.3261 30.0468C34.1771 29.6579 33.9537 29.3931 33.5068 29.3848C33.0434 29.3765 32.8034 29.6496 32.6545 30.0633C32.4807 30.5599 32.2821 31.0481 32.0752 31.6026C31.107 30.5847 30.1884 29.6082 29.2119 28.5738H37.7768ZM45.4893 43.643C45.4893 43.974 45.3321 44.1974 45.1004 44.3878C44.488 44.8843 43.7846 45.1739 43.0068 45.4305V39.4475C43.0068 38.9013 42.7668 38.5621 42.3365 38.4876C41.782 38.3966 41.36 38.7689 41.3517 39.3896C41.3517 41.4253 41.3435 43.4527 41.3683 45.4884C41.3683 45.8442 41.2442 45.9518 40.9297 46.018C37.8596 46.6138 34.7729 46.8704 31.6366 46.6966C29.7995 46.5973 27.9789 46.3656 26.1667 46.0346C25.786 45.9601 25.6122 45.8525 25.6205 45.3891C25.6619 43.4279 25.6371 41.4666 25.6371 39.4971C25.6371 38.8351 25.3474 38.4876 24.8178 38.4876C24.2716 38.4793 23.982 38.8268 23.982 39.4888V45.4222C23.2124 45.1822 22.5173 44.876 21.8966 44.3961C21.6318 44.1809 21.4911 43.9161 21.4911 43.552C21.5077 41.1191 21.4746 38.6945 21.5077 36.2615C21.5408 32.9514 23.5765 30.113 26.6135 29.0207C26.9942 28.88 27.2342 28.9049 27.5321 29.2276C28.7154 30.5268 29.9319 31.8011 31.1484 33.0673C31.3552 33.2824 31.3883 33.4562 31.2808 33.7293C30.9332 34.6065 30.6105 35.4919 30.2877 36.3774C30.0726 36.9649 30.2464 37.4531 30.7263 37.6186C31.1897 37.7841 31.62 37.5442 31.8435 36.9815C32.3814 35.5747 32.9027 34.1679 33.4902 32.6121C34.0778 34.1596 34.6157 35.5581 35.1287 36.9649C35.2529 37.2959 35.4267 37.5607 35.7742 37.6352C36.0721 37.7097 36.3618 37.6435 36.5769 37.4035C36.8169 37.1387 36.8666 36.8325 36.7424 36.4932C36.3866 35.5664 36.0473 34.6313 35.6915 33.7045C35.6004 33.4728 35.617 33.3155 35.8073 33.1169C37.0569 31.8094 38.2982 30.502 39.5312 29.1697C39.7629 28.9214 39.9532 28.8717 40.2759 28.9793C43.2799 30.0137 45.3652 32.7611 45.4645 35.9967C45.539 38.5455 45.4811 41.0943 45.4893 43.643ZM33.2337 24.3948C33.482 24.4858 33.7385 24.4279 33.9868 24.3369C34.9632 23.9976 35.8818 23.5342 36.7507 22.9715C38.3064 21.9371 39.5394 20.6379 40.1766 18.8339C40.5987 17.6588 40.5325 16.4341 40.5242 15.2093C40.5242 14.5556 40.5159 13.9018 40.5242 13.2481C40.5325 12.9916 40.4828 12.7681 40.309 12.5778C38.8443 10.9475 37.2472 9.45799 35.3025 8.39049C34.0861 7.72019 32.9027 7.72848 31.6862 8.40705C29.7498 9.49111 28.1693 10.9972 26.6632 12.586C26.4894 12.7764 26.4646 13.0081 26.4646 13.2563V16.674C26.4646 17.998 26.8287 19.2145 27.5569 20.3234C28.9306 22.3922 30.958 23.5756 33.2337 24.3948ZM28.5251 13.0412C29.6588 11.9572 30.8256 10.9145 32.1579 10.0621C33.0682 9.48283 33.9371 9.48283 34.8474 10.0621C36.2707 10.9641 37.5203 12.0564 38.6871 13.2563C38.8278 13.4053 38.8774 13.5708 38.8774 13.7694C38.8609 14.2825 38.8692 14.8038 38.8692 15.3169H38.8443C38.8443 15.921 38.8857 16.525 38.8278 17.1291C38.6954 18.627 37.9341 19.8104 36.8335 20.7868C35.948 21.5647 34.9384 22.1522 33.8461 22.5991C33.6309 22.6901 33.4406 22.7149 33.2172 22.6239C31.8931 22.0529 30.6767 21.3247 29.6754 20.2738C28.641 19.1897 28.1196 17.907 28.1279 16.4092C28.1279 15.6313 28.1527 14.8535 28.1196 14.0839C28.0948 13.6535 28.2189 13.3391 28.5251 13.0412Z" fill="#2D0C3E"/>
<path d="M21.4158 9.40071C20.7124 4.00525 16.1858 0 10.7821 0C10.3021 0 9.82218 0.0331393 9.34221 0.091066C4.38534 0.695159 0.305642 4.89067 0.0242836 9.88064C-0.240524 14.432 1.66279 17.8994 5.61835 20.2082C5.83351 20.3323 5.96591 20.4481 5.97418 20.746C5.99901 21.6563 6.4376 22.3514 7.19064 22.8314C7.39753 22.9638 7.5051 23.0879 7.58785 23.3279C8.03472 24.7347 9.28428 25.6367 10.7159 25.645C12.1972 25.645 13.4384 24.7512 13.9101 23.3279C13.9846 23.0962 14.0839 22.9555 14.2825 22.8231C14.9777 22.3514 15.4245 21.7143 15.4907 20.8702C15.5155 20.5143 15.6314 20.3323 15.9376 20.1668C19.8021 18.0566 21.9785 13.77 21.4158 9.40071ZM9.35875 23.1872H12.073C11.5103 24.2216 10.1863 24.2465 9.35875 23.1872ZM12.8592 21.5074H10.6911C9.98767 21.5074 9.28429 21.5157 8.58089 21.5074C7.96852 21.4991 7.59613 21.1929 7.58785 20.6964C7.57958 20.1833 7.96024 19.8606 8.59743 19.8523H12.8757C13.5295 19.8606 13.8936 20.1585 13.8853 20.6881C13.877 21.2094 13.5129 21.5074 12.8592 21.5074ZM15.1763 18.6938C14.9446 18.8262 14.7708 18.8758 14.5391 18.6772C13.8936 18.1228 13.0992 18.189 12.3296 18.1973C11.5765 18.2056 11.5765 18.1973 11.5765 17.4525V16.1119C11.5765 15.5244 11.5765 14.9368 11.5683 14.3493C11.5683 14.1176 11.5931 14.0017 11.8827 13.9438C12.9585 13.7452 13.7198 12.7439 13.6205 11.7178C13.5047 10.5841 12.6192 9.76479 11.4772 9.73169C11.1048 9.72342 10.7242 9.72342 10.3435 9.73169C10.0042 9.73997 9.69805 9.69031 9.70632 9.26C9.72287 8.83796 10.0373 8.80487 10.3683 8.80487H12.4868C13.1488 8.79659 13.5212 8.50697 13.5295 7.98563C13.5378 7.46429 13.1405 7.14154 12.4703 7.14154C12.3461 7.14154 12.222 7.12499 12.1061 7.14154C11.7089 7.19946 11.5269 7.10017 11.56 6.63676C11.5848 6.17335 11.171 5.82581 10.7242 5.83408C10.2856 5.85064 9.90492 6.19815 9.92975 6.66984C9.9463 7.04223 9.82217 7.15809 9.48289 7.24912C8.51469 7.51393 7.88577 8.47388 7.96852 9.45036C8.05127 10.4682 8.82914 11.2874 9.85527 11.3867C10.3187 11.4281 10.7821 11.4199 11.2455 11.4199C11.5848 11.4199 11.8496 11.5191 11.8331 11.8998C11.8248 12.2556 11.5765 12.3384 11.2621 12.3301C10.5007 12.3219 9.74769 12.3219 8.98637 12.3301C8.34918 12.3384 7.96025 12.6611 7.96025 13.1659C7.95197 13.6873 8.33263 14.01 8.96983 14.0348C9.92148 14.0679 9.92148 14.0679 9.92148 15.003C9.92148 15.9298 9.89665 16.8649 9.92975 17.7918C9.93802 18.1393 9.82218 18.2304 9.49944 18.2055C9.11878 18.1807 8.73812 18.2056 8.35746 18.1973C7.89404 18.189 7.43891 18.2883 7.1079 18.5779C6.76034 18.8924 6.49552 18.8097 6.15624 18.6111C2.93717 16.7243 1.13317 12.9094 1.76209 9.30141C2.44066 5.47825 5.28734 2.54881 9.01948 1.84541C14.0922 0.885485 18.8836 4.22866 19.7276 9.32621C20.34 13.0252 18.4615 16.8898 15.1763 18.6938Z" fill="#2D0C3E"/>
<path d="M40.5245 14.7813C40.5245 14.1275 40.5162 13.4738 40.5245 12.82C40.5327 12.5635 40.4831 12.34 40.3093 12.1497C38.8446 10.5195 37.2475 9.02993 35.3028 7.96243C34.0863 7.29213 32.903 7.30042 31.6865 7.97899C29.7501 9.06305 28.1695 10.5691 26.6634 12.158C26.4897 12.3483 26.4648 12.58 26.4648 12.8283V16.2459C26.4648 17.57 26.8289 18.7865 27.5572 19.8954C28.9309 21.9642 30.9583 23.1475 33.234 23.9668C33.4822 24.0578 33.7388 23.9999 33.987 23.9088C34.9635 23.5695 35.8821 23.1062 36.751 22.5434C38.3067 21.509 39.5397 20.2098 40.1769 18.4058C40.5989 17.2307 40.5327 16.006 40.5245 14.7813ZM38.8694 14.8888H38.8446C38.8446 15.4929 38.886 16.097 38.828 16.7011C38.6956 18.1989 37.9343 19.3823 36.8337 20.3588C35.9483 21.1366 34.9387 21.7242 33.8464 22.171C33.6312 22.2621 33.4409 22.2869 33.2174 22.1958C31.8934 21.6249 30.6769 20.8967 29.6756 19.8457C28.6412 18.7617 28.1199 17.479 28.1282 15.9811C28.1282 15.2033 28.153 14.4254 28.1199 13.6558C28.0951 13.2255 28.2192 12.9111 28.5254 12.6132C29.6591 11.5291 30.8259 10.4864 32.1582 9.63404C33.0685 9.05478 33.9374 9.05478 34.8477 9.63404C36.271 10.536 37.5206 11.6284 38.6874 12.8283C38.828 12.9772 38.8777 13.1427 38.8777 13.3413C38.8612 13.8544 38.8694 14.3758 38.8694 14.8888Z" fill="#2D0C3E"/>
<path d="M40.5245 14.7813C40.5245 14.1275 40.5162 13.4738 40.5245 12.82C40.5327 12.5635 40.4831 12.34 40.3093 12.1497C38.8446 10.5195 37.2475 9.02993 35.3028 7.96243C34.0863 7.29213 32.903 7.30042 31.6865 7.97899C29.7501 9.06305 28.1695 10.5691 26.6634 12.158C26.4897 12.3483 26.4648 12.58 26.4648 12.8283V16.2459C26.4648 17.57 26.8289 18.7865 27.5572 19.8954C28.9309 21.9642 30.9583 23.1475 33.234 23.9668C33.4822 24.0578 33.7388 23.9999 33.987 23.9088C34.9635 23.5695 35.8821 23.1062 36.751 22.5434C38.3067 21.509 39.5397 20.2098 40.1769 18.4058C40.5989 17.2307 40.5327 16.006 40.5245 14.7813ZM38.8694 14.8888H38.8446C38.8446 15.4929 38.886 16.097 38.828 16.7011C38.6956 18.1989 37.9343 19.3823 36.8337 20.3588C35.9483 21.1366 34.9387 21.7242 33.8464 22.171C33.6312 22.2621 33.4409 22.2869 33.2174 22.1958C31.8934 21.6249 30.6769 20.8967 29.6756 19.8457C28.6412 18.7617 28.1199 17.479 28.1282 15.9811C28.1282 15.2033 28.153 14.4254 28.1199 13.6558C28.0951 13.2255 28.2192 12.9111 28.5254 12.6132C29.6591 11.5291 30.8259 10.4864 32.1582 9.63404C33.0685 9.05478 33.9374 9.05478 34.8477 9.63404C36.271 10.536 37.5206 11.6284 38.6874 12.8283C38.828 12.9772 38.8777 13.1427 38.8777 13.3413C38.8612 13.8544 38.8694 14.3758 38.8694 14.8888Z" fill="#2D0C3E"/>
</svg>
