<svg width="54" height="46" viewBox="0 0 54 46" fill="none" xmlns="http://www.w3.org/2000/svg">
<path d="M23.7369 5.82689C23.856 6.24928 23.7477 6.63919 23.3795 6.92078C23.1737 7.08325 22.9354 7.1049 22.6863 7.1049C18.7548 7.1049 14.8232 7.11574 10.8808 7.1049C10.2202 7.1049 9.80859 6.69334 9.80859 6.10848C9.81942 5.54528 10.2526 5.13372 10.9133 5.13372C12.8628 5.12289 14.8232 5.13372 16.7727 5.13372H22.708C23.217 5.13372 23.5853 5.35033 23.7369 5.82689Z" fill="#2D0C3E"/>
<path d="M23.7696 9.92252C23.7588 10.5399 23.358 10.8756 22.6215 10.8756C20.6828 10.8865 18.7441 10.8756 16.8054 10.8756C14.8667 10.8756 12.9388 10.8865 11.0001 10.8756C10.242 10.8756 9.79796 10.5074 9.80879 9.8792C9.81962 9.28351 10.2528 8.92609 10.9785 8.92609C14.8451 8.91526 18.7225 8.91526 22.589 8.92609C23.3689 8.92609 23.7804 9.27267 23.7696 9.92252Z" fill="#2D0C3E"/>
<path d="M53.848 18.1956C53.8263 14.6215 51.1836 11.9896 47.6203 11.9896C43.8296 11.9788 40.0388 11.9896 36.248 11.9788C34.8509 11.9788 33.6595 12.4445 32.6631 13.4085C32.1649 13.8958 31.6558 14.3616 31.1468 14.8381C31.0493 14.9248 30.9843 15.0764 30.8002 15.0331C30.3994 14.9464 29.7388 14.1341 29.7388 13.7117V1.47298C29.7388 0.29243 29.4355 0 28.255 0H5.36965C4.14577 0 3.875 0.270778 3.875 1.51631V16.6252C3.875 17.914 4.12409 18.1523 5.41295 18.1523C11.3482 18.1523 17.2834 18.1631 23.2187 18.1523C23.6952 18.1523 24.0635 18.2606 24.4534 18.5531C25.7314 19.5495 27.0744 20.4918 28.3525 21.4882C30.0096 22.7879 31.7208 22.9828 33.5729 21.9647C34.0927 21.6831 34.6126 21.3799 35.2191 21.2066C35.2191 26.3187 35.2083 31.3766 35.2191 36.4346C35.2191 36.7379 35.2191 37.0519 35.2408 37.3552C35.3924 39.0123 36.2589 40.1712 37.7752 40.7885C39.2915 41.4059 40.6995 41.1135 41.9125 40.0412C42.2374 39.7596 42.3674 39.7055 42.714 40.0304C43.8512 41.0701 45.2051 41.3734 46.678 40.8644C48.1294 40.3553 49.0283 39.3156 49.3532 37.7993C49.4399 37.3877 49.4507 36.987 49.4507 36.5754V26.6761C51.9093 27.4884 53.9671 25.658 53.8697 23.3294C53.7938 21.6182 53.8588 19.9069 53.848 18.1956ZM22.493 16.1595H21.8648C16.7527 16.1595 11.6298 16.1486 6.50686 16.1703C5.94366 16.1703 5.85702 16.0078 5.86785 15.4988C5.87868 11.199 5.87868 6.88835 5.86785 2.58854C5.85702 2.09033 5.99782 1.98204 6.47437 1.99287C13.3411 2.0037 20.2186 2.0037 27.0961 1.99287C27.5835 1.98204 27.7459 2.09034 27.7459 2.61021C27.7243 5.91358 27.7351 9.21695 27.7351 12.6395C26.3379 11.8055 25.0166 11.7514 23.7711 12.672C22.6122 13.5168 22.2331 14.7081 22.493 16.1595ZM51.8443 23.5893C51.8335 24.4125 51.3353 24.8999 50.6204 24.889C49.9056 24.8782 49.4507 24.3583 49.4507 23.5352C49.4399 22.2572 49.4616 20.9683 49.4399 19.6794C49.4291 18.8455 48.7792 18.3364 48.0752 18.618C47.5337 18.8346 47.4362 19.3004 47.4362 19.8202C47.447 21.6506 47.4362 23.4919 47.4362 25.3223C47.4362 29.1563 47.447 32.9904 47.4362 36.8245C47.4362 38.2866 46.4831 39.2073 45.1617 39.0773C44.0895 38.9582 43.3314 38.135 43.3314 37.0086C43.3205 34.2251 43.3314 31.4525 43.3314 28.6798C43.3314 28.3765 43.3314 28.0624 43.1472 27.8025C42.909 27.4451 42.5624 27.3151 42.14 27.3909C41.7392 27.4559 41.4685 27.6942 41.3818 28.0841C41.3277 28.3224 41.3277 28.5715 41.3277 28.8098C41.3277 31.4849 41.3385 34.1601 41.3277 36.8245C41.3168 38.2866 40.3637 39.2073 39.0424 39.0773C37.9701 38.9582 37.212 38.1242 37.212 37.0086C37.2012 34.1277 37.212 31.2575 37.212 28.3765C37.212 28.3765 37.212 28.3765 37.2012 28.3765C37.2012 25.5605 37.212 22.7445 37.2012 19.9286C37.2012 18.6505 36.5513 18.2606 35.3924 18.8238C34.396 19.322 33.3887 19.8203 32.3923 20.3185C31.4934 20.7734 30.6377 20.7084 29.8254 20.091C28.255 18.9213 26.6845 17.7624 25.1249 16.5818C24.3234 15.9753 24.1609 15.1955 24.67 14.5348C25.179 13.885 26.0022 13.8417 26.782 14.4374C27.9084 15.3147 29.0348 16.1919 30.1612 17.0584C30.7894 17.535 31.2118 17.5133 31.775 16.9826C32.5331 16.2678 33.3021 15.5529 34.0386 14.8273C34.6451 14.2424 35.3599 13.9717 36.1939 13.9717C40.028 13.9608 43.8621 13.95 47.6961 13.9717C50.0464 13.9825 51.7468 15.5963 51.8335 17.9682C51.8985 19.8419 51.866 21.7156 51.8443 23.5893Z" fill="#2D0C3E"/>
<path d="M30.3027 35.8109C30.0103 35.7026 29.7071 35.6159 29.393 35.5076C31.7324 32.5833 30.9634 29.3991 29.2197 27.5904C27.3026 25.6084 24.205 25.2726 21.8981 26.8106C20.75 27.5687 19.9594 28.6085 19.5695 29.9298C18.963 31.9985 19.4287 33.8505 20.8042 35.5401C19.2013 35.8975 18.0099 36.7207 17.0676 38.0204C16.1361 36.7207 14.9014 35.8867 13.3526 35.5293C15.8004 32.4534 14.8581 29.15 13.0061 27.4171C10.8399 25.4026 7.66652 25.3159 5.37041 27.168C3.49669 28.6843 2.11035 32.1718 4.72056 35.5185C2.0237 36.2983 0.399095 37.9879 0.0850039 40.7497C-0.0666263 42.0602 0.0308304 43.4033 0.0308304 44.7246C0.0308304 45.6236 0.399079 46.0026 1.2872 46.0026H32.8588C33.7253 46.0026 34.0827 45.6452 34.0935 44.7787C34.1043 43.6307 34.1152 42.4935 34.0935 41.3454C34.0177 38.746 32.6097 36.699 30.3027 35.8109ZM9.04201 27.8395C11.1432 27.8395 12.8653 29.5508 12.8544 31.6303C12.8436 33.7206 11.1215 35.4102 9.02036 35.3993C6.90836 35.3885 5.2621 33.7097 5.27293 31.5869C5.28376 29.5074 6.96251 27.8395 9.04201 27.8395ZM15.6921 44.0098C15.0206 43.9881 14.3383 43.9881 13.6667 44.0098C13.3418 44.0206 13.2443 43.9015 13.2552 43.5765C13.2768 42.8834 13.2768 42.1902 13.2552 41.497C13.2443 40.8364 12.8436 40.4031 12.2804 40.414C11.7281 40.414 11.2948 40.8689 11.284 41.5079C11.2731 42.201 11.2731 42.8942 11.284 43.5874C11.2948 43.9014 11.2082 44.0098 10.8832 44.0098C9.68103 43.9881 8.4788 43.9881 7.27659 44.0098C6.93001 44.0098 6.81089 43.9123 6.82172 43.5657C6.84338 42.9267 6.83255 42.2985 6.82172 41.6703C6.81089 40.8797 6.39931 40.3923 5.79279 40.414C5.20793 40.4248 4.81803 40.9014 4.81803 41.6487C4.8072 42.2877 4.79637 42.9159 4.81803 43.5441C4.82886 43.8798 4.75305 44.0206 4.38481 44.0098C3.73496 43.9773 3.08512 43.9881 2.42445 44.0098C2.15368 44.0098 2.01288 43.9556 2.02371 43.6415C2.04538 42.7426 2.00203 41.8436 2.06701 40.9447C2.20781 38.9735 3.79994 37.4788 5.77114 37.4355C6.87587 37.403 7.96976 37.4247 9.0745 37.4247C10.1792 37.4247 11.2732 37.403 12.3779 37.4355C14.3924 37.4897 16.017 39.1576 16.0603 41.1721C16.0712 41.9953 16.0495 42.8076 16.0712 43.6199C16.0712 43.9123 15.9845 44.0098 15.6921 44.0098ZM25.0607 27.8395C27.1618 27.8287 28.8839 29.5399 28.8948 31.6194C28.8948 33.7097 27.1727 35.4102 25.0715 35.3993C22.9595 35.3885 21.2916 33.7206 21.3024 31.5978C21.3132 29.5183 22.9812 27.8503 25.0607 27.8395ZM31.6132 44.0098C30.9959 43.9773 30.3894 43.9773 29.772 44.0098C29.4146 44.0206 29.2738 43.9231 29.2846 43.5332C29.3171 42.8617 29.3063 42.1902 29.2955 41.5187C29.2738 40.8472 28.8839 40.414 28.3207 40.4032C27.7467 40.4032 27.3243 40.8797 27.3134 41.562C27.3134 42.2335 27.3026 42.905 27.3243 43.5765C27.3243 43.869 27.281 44.0098 26.9236 44.0098C25.7105 43.9881 24.4866 43.9881 23.2628 44.0098C22.9162 44.0098 22.8512 43.8798 22.8512 43.5765C22.8729 42.9267 22.8729 42.266 22.862 41.6162C22.8404 40.8797 22.4288 40.4032 21.8439 40.4032C21.2482 40.414 20.8583 40.9013 20.8475 41.6378C20.8367 42.2877 20.8258 42.9484 20.8475 43.5982C20.8583 43.9231 20.75 44.0206 20.436 44.0098C19.7861 43.9881 19.1254 43.9881 18.4756 44.0098C18.1507 44.0206 18.0424 43.9123 18.0532 43.5874C18.0857 42.6884 18.0423 41.7895 18.1073 40.9014C18.2481 38.9735 19.8511 37.4788 21.7898 37.4355C22.8945 37.403 23.9993 37.4247 25.0932 37.4247C26.1979 37.4247 27.3026 37.403 28.3965 37.4355C30.4219 37.4897 32.0573 39.1468 32.0898 41.1613C32.1006 41.9628 32.0682 42.7534 32.1115 43.5441C32.1223 43.9556 31.9598 44.0206 31.6132 44.0098Z" fill="#2D0C3E"/>
<path d="M42.3229 0C39.3553 0 36.875 2.46941 36.875 5.43703C36.8642 8.42631 39.3228 10.8741 42.3121 10.8741C45.3338 10.8849 47.7491 8.46964 47.7491 5.4587C47.7491 2.45859 45.3122 0 42.3229 0ZM42.3229 8.9137C40.4492 8.92454 38.8787 7.35408 38.8787 5.4587C38.8679 3.55249 40.4059 2.00369 42.3229 2.00369C44.2074 2.00369 45.7887 3.56331 45.7887 5.44786C45.7887 7.32157 44.1966 8.9137 42.3229 8.9137Z" fill="#2D0C3E"/>
<path d="M9.80859 6.10848C9.81942 5.54528 10.2526 5.13372 10.9133 5.13372C12.8628 5.12289 14.8232 5.13372 16.7727 5.13372H22.708C23.217 5.13372 23.5853 5.35033 23.7369 5.82689C23.856 6.24928 23.7477 6.63919 23.3795 6.92078C23.1737 7.08325 22.9354 7.1049 22.6863 7.1049C18.7548 7.1049 14.8232 7.11574 10.8808 7.1049C10.2202 7.1049 9.80859 6.69334 9.80859 6.10848Z" fill="#2D0C3E"/>
<path d="M23.7696 9.92252C23.7588 10.5399 23.358 10.8756 22.6215 10.8756C20.6828 10.8865 18.7441 10.8756 16.8054 10.8756C14.8667 10.8756 12.9388 10.8865 11.0001 10.8756C10.242 10.8756 9.79796 10.5074 9.80879 9.8792C9.81962 9.28351 10.2528 8.92609 10.9785 8.92609C14.8451 8.91526 18.7225 8.91526 22.589 8.92609C23.3689 8.92609 23.7804 9.27267 23.7696 9.92252Z" fill="#2D0C3E"/>
<path d="M23.7696 9.92252C23.7588 10.5399 23.358 10.8756 22.6215 10.8756C20.6828 10.8865 18.7441 10.8756 16.8054 10.8756C14.8667 10.8756 12.9388 10.8865 11.0001 10.8756C10.242 10.8756 9.79796 10.5074 9.80879 9.8792C9.81962 9.28351 10.2528 8.92609 10.9785 8.92609C14.8451 8.91526 18.7225 8.91526 22.589 8.92609C23.3689 8.92609 23.7804 9.27267 23.7696 9.92252Z" fill="#2D0C3E"/>
<path d="M23.3795 6.92078C23.1737 7.08325 22.9354 7.1049 22.6863 7.1049C18.7548 7.1049 14.8232 7.11574 10.8808 7.1049C10.2202 7.1049 9.80859 6.69334 9.80859 6.10848C9.81942 5.54528 10.2526 5.13372 10.9133 5.13372C12.8628 5.12289 14.8232 5.13372 16.7727 5.13372H22.708C23.217 5.13372 23.5853 5.35033 23.7369 5.82689C23.856 6.24928 23.7477 6.63919 23.3795 6.92078Z" fill="#2D0C3E"/>
</svg>
