<svg width="46" height="46" viewBox="0 0 46 46" fill="none" xmlns="http://www.w3.org/2000/svg">
<path d="M18.561 27.1444C18.2303 27.13 17.8996 27.1444 17.576 27.1444C17.2309 27.1444 16.8858 27.13 16.5407 27.1444C16.1309 27.1659 15.8361 27.4751 15.8218 27.8561C15.8146 28.23 16.0518 28.5535 16.4616 28.5895C17.1878 28.6686 17.9211 28.6614 18.6473 28.5967C19.0643 28.5607 19.3375 28.2084 19.3087 27.8346C19.28 27.4535 18.9708 27.1659 18.561 27.1444ZM18.561 27.1444C18.2303 27.13 17.8996 27.1444 17.576 27.1444C17.2309 27.1444 16.8858 27.13 16.5407 27.1444C16.1309 27.1659 15.8361 27.4751 15.8218 27.8561C15.8146 28.23 16.0518 28.5535 16.4616 28.5895C17.1878 28.6686 17.9211 28.6614 18.6473 28.5967C19.0643 28.5607 19.3375 28.2084 19.3087 27.8346C19.28 27.4535 18.9708 27.1659 18.561 27.1444ZM18.561 27.1444C18.2303 27.13 17.8996 27.1444 17.576 27.1444C17.2309 27.1444 16.8858 27.13 16.5407 27.1444C16.1309 27.1659 15.8361 27.4751 15.8218 27.8561C15.8146 28.23 16.0518 28.5535 16.4616 28.5895C17.1878 28.6686 17.9211 28.6614 18.6473 28.5967C19.0643 28.5607 19.3375 28.2084 19.3087 27.8346C19.28 27.4535 18.9708 27.1659 18.561 27.1444ZM18.561 27.1444C18.2303 27.13 17.8996 27.1444 17.576 27.1444C17.2309 27.1444 16.8858 27.13 16.5407 27.1444C16.1309 27.1659 15.8361 27.4751 15.8218 27.8561C15.8146 28.23 16.0518 28.5535 16.4616 28.5895C17.1878 28.6686 17.9211 28.6614 18.6473 28.5967C19.0643 28.5607 19.3375 28.2084 19.3087 27.8346C19.28 27.4535 18.9708 27.1659 18.561 27.1444ZM35.4495 21.8384C35.1332 21.7737 35.0325 21.6587 35.0325 21.3208C35.0541 19.509 35.0469 17.6972 35.0397 15.8854C35.0397 15.4037 34.8024 15.1089 34.3926 15.0729C33.9109 15.0226 33.5946 15.3462 33.5946 15.9141C33.5874 17.7259 33.5802 19.5377 33.6018 21.3495C33.609 21.6874 33.4867 21.7809 33.1919 21.8312C31.7396 22.0972 30.5462 22.8162 29.6187 23.9594C29.4461 24.1679 29.2736 24.2397 29.0148 24.2397C19.9989 24.2326 10.9831 24.2326 1.9745 24.2397C1.6294 24.2397 1.52872 24.1679 1.52872 23.8012C1.5431 18.3083 1.53592 12.8154 1.53592 7.31531C1.53592 6.61791 1.78038 6.37348 2.47059 6.36629C4.37585 6.36629 6.27389 6.38785 8.17915 6.35909C8.57458 6.3519 8.66805 6.4957 8.72557 6.83361C9.04192 8.77482 10.7603 10.069 12.8452 9.97549C14.6067 9.88921 16.21 8.29311 16.3466 6.47413C16.4976 4.56168 15.2969 2.88649 13.4204 2.39759C11.6589 1.93745 9.78246 2.82898 9.00598 4.54011C8.87656 4.8277 8.72558 4.88522 8.44519 4.88522C6.52555 4.87085 4.6131 4.87803 2.69347 4.87803C1.17645 4.87803 0.550947 5.33098 0.0836196 6.79048C0.07643 6.81205 0.0332877 6.81923 0.0117188 6.83361V6.91989C0.0979946 7.09244 0.0548549 7.27217 0.0548549 7.45191V24.9228C0.0548549 25.6993 0.0476723 26.4829 0.0620516 27.2522C0.0692412 28.0215 0.0117082 28.798 0.0907944 29.5673C0.17707 30.6529 1.11173 31.5372 2.20455 31.5372C5.16669 31.5444 8.13603 31.5372 11.0982 31.5372H14.5564C14.7649 31.5372 14.9159 31.5229 14.9159 31.8248C14.8943 33.0255 14.9015 34.219 14.9087 35.4196C14.9159 35.6425 14.8368 35.7 14.6283 35.6929C14.0747 35.6857 13.5139 35.6857 12.9603 35.6929C12.4283 35.7 12.0688 36.002 12.0688 36.4334C12.0688 36.872 12.4282 37.1883 12.9531 37.1883H22.163C22.7094 37.1883 23.0402 36.8863 23.0402 36.4406C23.0474 35.9876 22.7094 35.7 22.163 35.6929C21.6526 35.6857 21.1421 35.6713 20.6316 35.7001C20.3153 35.7144 20.2003 35.6497 20.2074 35.2902C20.2362 34.183 20.2362 33.0758 20.2146 31.9686C20.2074 31.6235 20.2865 31.5301 20.646 31.5301C23.4716 31.5444 26.3043 31.5444 29.137 31.5301C29.4246 31.5301 29.6187 31.6091 29.8272 31.832C31.3155 33.4353 33.1704 34.104 35.3345 33.7517C38.2319 33.2915 40.3457 30.768 40.3744 27.8202C40.4104 24.9012 38.3326 22.3704 35.4495 21.8384ZM12.4858 3.76362C13.823 3.76362 14.8799 4.80613 14.8871 6.13622C14.8871 7.43754 13.7943 8.53755 12.4929 8.53036C11.1988 8.52317 10.1348 7.45912 10.1276 6.16498C10.1276 4.81333 11.1557 3.77081 12.4858 3.76362ZM18.7695 35.3406C18.7767 35.6138 18.7048 35.7072 18.4244 35.7001C17.842 35.6785 17.2597 35.6785 16.6773 35.6929C16.4257 35.7072 16.3466 35.6353 16.3538 35.3765C16.3754 34.7798 16.361 34.183 16.361 33.5863C16.361 33.0039 16.3682 32.4216 16.3538 31.8392C16.3466 31.6163 16.3969 31.5229 16.6414 31.5301C17.2525 31.5516 17.8708 31.5516 18.4819 31.5301C18.7336 31.5229 18.7695 31.6307 18.7695 31.8464C18.7623 33.0111 18.7551 34.1758 18.7695 35.3406ZM2.61437 30.0274C1.73723 30.0274 1.53592 29.8333 1.53592 28.9562C1.53592 27.9856 1.5431 27.015 1.52872 26.0372C1.52872 25.7783 1.57905 25.6777 1.86664 25.6849C2.52809 25.7136 3.18234 25.6992 3.84379 25.6992H28.6121C28.1161 27.1587 28.1376 28.5823 28.6768 30.0274H2.61437ZM34.2992 32.3569C31.7612 32.3497 29.7337 30.3078 29.7337 27.7627C29.7409 25.2319 31.8115 23.1757 34.3351 23.1829C36.8515 23.1901 38.9149 25.2679 38.9077 27.7986C38.9005 30.3294 36.8443 32.3641 34.2992 32.3569ZM18.561 27.1444C18.2303 27.13 17.8996 27.1444 17.576 27.1444C17.2309 27.1444 16.8858 27.13 16.5407 27.1444C16.1309 27.1659 15.8361 27.4751 15.8218 27.8561C15.8146 28.23 16.0518 28.5535 16.4616 28.5895C17.1878 28.6686 17.9211 28.6614 18.6473 28.5967C19.0643 28.5607 19.3375 28.2084 19.3087 27.8346C19.28 27.4535 18.9708 27.1659 18.561 27.1444ZM18.561 27.1444C18.2303 27.13 17.8996 27.1444 17.576 27.1444C17.2309 27.1444 16.8858 27.13 16.5407 27.1444C16.1309 27.1659 15.8361 27.4751 15.8218 27.8561C15.8146 28.23 16.0518 28.5535 16.4616 28.5895C17.1878 28.6686 17.9211 28.6614 18.6473 28.5967C19.0643 28.5607 19.3375 28.2084 19.3087 27.8346C19.28 27.4535 18.9708 27.1659 18.561 27.1444ZM18.561 27.1444C18.2303 27.13 17.8996 27.1444 17.576 27.1444C17.2309 27.1444 16.8858 27.13 16.5407 27.1444C16.1309 27.1659 15.8361 27.4751 15.8218 27.8561C15.8146 28.23 16.0518 28.5535 16.4616 28.5895C17.1878 28.6686 17.9211 28.6614 18.6473 28.5967C19.0643 28.5607 19.3375 28.2084 19.3087 27.8346C19.28 27.4535 18.9708 27.1659 18.561 27.1444Z" fill="#2D0C3E"/>
<path d="M45.9197 43.5704C45.8837 43.2252 45.7472 42.9089 45.589 42.6069C42.936 37.3944 36.9974 34.6408 31.3247 36.0572C27.5573 36.999 24.7749 39.2494 22.9703 42.7004C22.5102 43.5847 22.5821 44.4187 23.186 45.2168C23.4808 45.6122 23.9409 45.7632 24.3507 46.0004H35.0346C35.1784 45.9142 35.3293 45.9573 35.4731 45.9573C36.8535 45.9501 38.2412 45.9501 39.6216 45.9501H39.6503C40.7288 45.9501 41.7928 45.9501 42.8713 45.9573C43.2236 45.9573 43.5831 45.8998 43.9282 46.0004H44.1079C45.3014 45.7704 45.9197 45.1089 45.9485 44.0233V43.9945C45.9413 43.8507 45.9772 43.707 45.9197 43.5704ZM43.7125 44.5122C42.9648 44.541 42.217 44.5338 41.4693 44.5338H34.33V44.5409H25.2135C24.207 44.5409 23.9122 44.0592 24.3795 43.1749C26.4573 39.2134 30.8358 36.7761 35.2431 37.2147C39.2621 37.6173 42.2602 39.6376 44.223 43.1749C44.2733 43.2612 44.3236 43.3547 44.3668 43.4481C44.6112 44.0017 44.3236 44.4906 43.7125 44.5122Z" fill="#2D0C3E"/>
<path d="M36.4805 2.54896e-10C36.9119 0.179741 37.3505 0.352278 37.674 0.72614C38.0767 1.19347 38.242 1.73271 38.242 2.33664C38.242 5.40662 38.2564 8.47659 38.2348 11.5394C38.2276 12.9629 37.3217 13.8545 35.891 13.8616C32.4328 13.8688 28.9746 13.8617 25.5163 13.8688C25.0921 13.8688 24.7327 13.7754 24.6176 13.308C24.5313 12.9485 24.6608 12.6682 24.9915 12.4812C25.1712 12.3806 25.3653 12.4021 25.5595 12.4021C28.9386 12.4021 32.3249 12.4021 35.7041 12.4021C36.5381 12.4021 36.7537 12.1865 36.7537 11.3381C36.7537 8.37593 36.7537 5.4138 36.7537 2.44448C36.7537 1.69675 36.5165 1.4595 35.7616 1.4595C30.5563 1.4595 25.3438 1.4595 20.1385 1.4595C19.3907 1.4595 19.1463 1.71112 19.1463 2.45885C19.1463 4.2994 19.1463 6.13997 19.1463 7.98052C19.1463 8.53412 18.8731 8.87203 18.4273 8.87922C17.9816 8.88641 17.694 8.55569 17.6868 8.00208C17.6796 6.08964 17.6868 4.16999 17.6868 2.25754C17.6868 1.20785 18.2044 0.510468 19.1463 0.115037C19.211 0.0862784 19.2973 0.10064 19.3188 0.00717473C25.0418 -1.49198e-05 30.7576 2.54896e-10 36.4805 2.54896e-10Z" fill="#2D0C3E"/>
<path d="M0.0117188 6.91797C0.169891 6.98268 0.097991 7.12646 0.097991 7.22712C0.105181 13.0507 0.097991 18.8744 0.097991 24.698C0.097991 24.7555 0.0908093 24.8202 0.0836196 24.8777C0.0620507 24.9209 0.0404774 24.928 0.0117188 24.8849C0.0117188 18.8959 0.0117188 12.9069 0.0117188 6.91797Z" fill="#2D0C3E"/>
<path d="M0.00719667 24.8852C0.0287656 24.878 0.0575286 24.8708 0.0790976 24.878C0.0790976 26.4381 0.0862723 27.9983 0.0862723 29.5584L0.0431361 29.5441L0 29.5513C0.00718965 27.9983 0.00719667 26.4453 0.00719667 24.8852Z" fill="#2D0C3E"/>
<path d="M35.043 46C35.1724 45.8562 35.3521 45.9137 35.5103 45.9137C36.8835 45.9065 38.2567 45.9137 39.6299 45.9137C39.6587 45.9353 39.6659 45.9569 39.6587 45.9712C39.6515 45.9928 39.6371 46 39.6299 46C38.0986 46 36.5672 46 35.043 46Z" fill="#2D0C3E"/>
<path d="M39.6211 45.9985C39.6211 45.9697 39.6211 45.941 39.6211 45.9122C40.9009 45.9122 42.1878 45.9122 43.4676 45.9122C43.6257 45.9122 43.7983 45.8475 43.9277 45.9985C42.4969 45.9985 41.059 45.9985 39.6211 45.9985Z" fill="#2D0C3E"/>
<path d="M24.8121 6.49834C24.9559 6.09572 24.9128 5.75778 24.5461 5.51334C24.1291 5.23294 23.6474 5.43427 23.4461 5.95911C23.0866 6.90815 22.7343 7.85717 22.3964 8.80621C22.3245 9.00033 22.2886 9.11535 22.0298 9.04346C21.0663 8.76306 20.2395 9.03628 19.5277 9.72648C19.1107 10.1363 18.6794 10.5317 18.2768 10.9487C18.0683 11.1572 17.8598 11.2435 17.565 11.2363C15.1277 11.2291 12.6832 11.2291 10.2459 11.2363C8.24718 11.2435 6.52167 12.6095 6.11905 14.5579C5.77395 16.2547 5.48636 17.9658 5.23472 19.677C5.04779 20.8992 5.82427 21.7332 7.0537 21.7332C8.32627 21.7404 9.59883 21.7332 10.8714 21.7332H14.6028C15.9113 21.7332 16.5944 21.0574 16.5944 19.756C16.6016 18.6776 16.6159 17.5991 16.5872 16.5207C16.5728 16.1324 16.7022 16.0462 17.0617 16.0749C17.4931 16.1037 17.9245 16.0749 18.363 16.0821C19.348 16.0893 20.2108 15.7586 20.9369 15.1043C21.6559 14.4429 22.3605 13.7742 23.0435 13.084C23.7697 12.3435 23.9494 11.452 23.5899 10.4814C23.5036 10.2369 23.5108 10.0428 23.5971 9.81275C24.0141 8.71274 24.4023 7.59835 24.8121 6.49834ZM21.886 12.1566C21.2964 12.7318 20.6925 13.2926 20.1101 13.8677C19.5781 14.3998 18.9454 14.6298 18.2121 14.6226H16.0983C15.3362 14.6298 15.1061 14.8527 15.1061 15.6076C15.1061 16.9952 15.0917 18.39 15.1133 19.7776C15.1205 20.1658 14.9767 20.2737 14.6172 20.2665C13.8839 20.2521 13.1505 20.2593 12.4172 20.2593C11.6695 20.2593 10.9218 20.2593 10.174 20.2665C9.94396 20.2737 9.85768 20.2162 9.90082 19.9645C10.1021 18.8789 10.2747 17.7861 10.4688 16.7004C10.5551 16.2043 10.3394 15.8089 9.92956 15.7298C9.46942 15.6364 9.10275 15.9024 9.00928 16.42C8.81516 17.5416 8.62825 18.656 8.46289 19.7776C8.40537 20.1227 8.33347 20.3312 7.91647 20.2737C7.60731 20.2234 7.29097 20.2665 6.97462 20.2593C6.73737 20.2449 6.63671 20.1227 6.67985 19.8711C6.96743 18.2103 7.23344 16.5423 7.54979 14.8886C7.77267 13.7167 8.75766 12.8612 9.94395 12.7389C10.8642 12.6455 11.7917 12.703 12.7191 12.6958C14.4878 12.6886 16.2493 12.6886 18.0179 12.703C18.4062 12.703 18.7009 12.5952 18.9742 12.3148C19.4918 11.7971 20.0238 11.2938 20.5559 10.7905C21.0663 10.3088 21.6127 10.2801 22.0154 10.7043C22.4324 11.15 22.3892 11.6605 21.886 12.1566Z" fill="#2D0C3E"/>
<path d="M29.5377 4.84912C28.5527 4.84912 27.5606 4.84912 26.5756 4.84912C26.0076 4.84912 25.6912 4.5903 25.6841 4.13016C25.6697 3.65564 25.9932 3.36805 26.5756 3.36086C28.5312 3.35367 30.4939 3.35367 32.4495 3.36086C33.0391 3.36086 33.377 3.64126 33.377 4.10139C33.377 4.56153 33.0319 4.84193 32.4495 4.84193C31.4789 4.84912 30.5083 4.84912 29.5377 4.84912Z" fill="#2D0C3E"/>
<path d="M30.1308 6.19922C30.936 6.19922 31.7413 6.19922 32.5465 6.19922C33.0498 6.19922 33.3733 6.50118 33.3661 6.93975C33.3589 7.36394 33.0498 7.65152 32.5609 7.65152C30.936 7.65871 29.304 7.65871 27.6791 7.65152C27.1615 7.65152 26.8523 7.35675 26.8595 6.91099C26.8667 6.47242 27.183 6.19922 27.7007 6.19922C28.5203 6.19922 29.3255 6.19922 30.1308 6.19922Z" fill="#2D0C3E"/>
<path d="M30.8003 10.4976C30.2467 10.4976 29.6931 10.5048 29.1467 10.4976C28.6003 10.4904 28.2695 10.2028 28.2695 9.75703C28.2695 9.30408 28.5931 9.0093 29.1395 9.0093C30.2611 9.00211 31.3755 9.00211 32.497 9.0093C33.0435 9.01649 33.3814 9.31126 33.3814 9.74983C33.3814 10.1956 33.0435 10.4904 32.5042 10.4976C31.9363 10.5048 31.3683 10.4976 30.8003 10.4976Z" fill="#2D0C3E"/>
<path d="M19.3035 27.8333C19.3323 28.2072 19.0591 28.5595 18.6421 28.5954C17.916 28.6601 17.1826 28.6673 16.4565 28.5882C16.0466 28.5523 15.8094 28.2287 15.8166 27.8549C15.8309 27.4738 16.1257 27.1647 16.5355 27.1431C16.8806 27.1287 17.2257 27.1431 17.5708 27.1431C17.8944 27.1431 18.2251 27.1287 18.5558 27.1431C18.9656 27.1647 19.2748 27.4523 19.3035 27.8333Z" fill="#2D0C3E"/>
<path d="M19.3035 27.8333C19.3323 28.2072 19.0591 28.5595 18.6421 28.5954C17.916 28.6601 17.1826 28.6673 16.4565 28.5882C16.0466 28.5523 15.8094 28.2287 15.8166 27.8549C15.8309 27.4738 16.1257 27.1647 16.5355 27.1431C16.8806 27.1287 17.2257 27.1431 17.5708 27.1431C17.8944 27.1431 18.2251 27.1287 18.5558 27.1431C18.9656 27.1647 19.2748 27.4523 19.3035 27.8333Z" fill="#2D0C3E"/>
</svg>
