<svg width="13" height="16" viewBox="0 0 13 16" fill="none" xmlns="http://www.w3.org/2000/svg">
<path d="M3.17414 4.75059C3.17414 3.50102 3.17414 2.24803 3.17414 0.998456C3.17414 0.377085 3.478 0.0698133 4.09254 0.0698133C5.60841 0.0698133 7.12087 0.0732345 8.63674 0.0664062C8.98498 0.0664062 9.26835 0.175655 9.44589 0.489755C9.53807 0.653633 9.54148 0.831167 9.54148 1.01212C9.54148 3.53174 9.54148 6.05478 9.53807 8.57441C9.53807 8.7417 9.57562 8.7895 9.74974 8.7895C10.4462 8.77925 11.1393 8.78608 11.8358 8.78608C12.2113 8.78608 12.4981 8.92606 12.6552 9.27771C12.7986 9.60206 12.7234 9.91275 12.4332 10.203C10.6135 12.0227 8.79038 13.839 6.97065 15.6553C6.59509 16.0274 6.12736 16.0274 5.75522 15.6553C3.93207 13.839 2.11234 12.0227 0.292614 10.203C0.00241338 9.91275 -0.0726953 9.60547 0.070698 9.27771C0.227748 8.92606 0.514532 8.78267 0.890086 8.78267C1.59681 8.78609 2.30354 8.77925 3.01367 8.78608C3.15365 8.78608 3.18779 8.74853 3.18779 8.61197C3.17072 7.32825 3.17414 6.03771 3.17414 4.75059Z" fill="#FBF5FD"/>
</svg>
