<svg width="20" height="24" viewBox="0 0 20 24" fill="none" xmlns="http://www.w3.org/2000/svg">
<path d="M20 2.65092C20 1.54317 19.5135 0.734818 18.503 0.240823C18.286 0.136036 18.0465 0.106098 17.8219 0.03125H15.337C15.0675 0.0761587 14.9777 0.300706 14.8729 0.502795C14.1993 1.79766 12.8221 2.20932 11.5946 1.79018C10.8985 1.55066 10.397 1.07913 10.0752 0.420473C9.98536 0.240838 9.88807 0.0761587 9.67102 0.03125H7.09625C6.99146 0.113583 6.84924 0.106101 6.72948 0.151009C5.68161 0.502794 5.00051 1.44588 4.99303 2.58356C4.98554 4.44727 4.98553 6.30349 5.0005 8.1672C5.0005 8.34683 4.94812 8.45163 4.80591 8.54893C4.52897 8.73605 4.267 8.94562 4.00503 9.1552C3.22662 9.75398 2.41077 10.3004 1.78205 11.0713C0.7267 12.3587 0.0904806 13.8257 0.0380872 15.4948C-0.0367606 17.8076 0.0231186 20.1204 0.0156338 22.4332C0.0156338 22.4856 0.0231332 22.5455 0.0306179 22.5979C0.097981 23.3763 0.726688 23.9601 1.51259 23.9676C3.85532 23.9676 6.19806 23.9676 8.53331 23.9676C9.16204 23.9676 9.70095 23.5709 9.9255 22.9796C10.0303 22.7026 10.0153 22.4107 10.0078 22.1263C10.0078 21.9916 10.0303 21.9317 10.1875 21.8943C11.4674 21.6174 12.4329 20.4871 12.4928 19.1848C12.5227 18.5561 12.5077 17.9273 12.5152 17.2911C12.5152 16.9618 12.5152 16.9618 12.8371 17.0067C12.8595 17.0067 12.882 17.0142 12.9044 17.0217C13.8774 17.1864 14.5735 17.7103 14.9927 18.5935C15.105 18.833 15.2621 18.9902 15.5391 18.9902C16.2052 18.9902 16.8639 18.9902 17.53 18.9827C17.7471 18.9827 17.9641 18.9528 18.1737 18.8929C19.3114 18.5636 20 17.6055 20 16.3481C20 12.9724 20 9.60428 20 6.22864C20 5.03856 20 3.84849 20 2.65092ZM11.4449 19.4243C11.2802 20.2925 10.4869 20.9288 9.57371 20.9737C9.16953 20.9961 9.00485 21.1608 8.99737 21.5724C8.98988 21.8494 9.00485 22.1338 8.99737 22.4108C8.98988 22.7775 8.81774 22.9571 8.4435 22.9571C6.15316 22.9646 3.85533 22.9646 1.56499 22.9571C1.20572 22.9571 1.01861 22.7625 1.01861 22.4033C1.01861 20.1952 0.981182 17.9797 1.03358 15.7717C1.07848 13.6985 1.96168 12.0144 3.59336 10.7345C4.04244 10.3827 4.5065 10.0384 5.0005 9.67165C5.0005 10.5923 5.0005 11.468 5.0005 12.3362C5.0005 12.4485 4.93314 12.5009 4.86578 12.5683C4.31939 13.0697 3.773 13.5712 3.22661 14.0727C3.13679 14.155 3.04698 14.2448 3.01704 14.3721C2.97213 14.5966 3.03201 14.7912 3.2341 14.9185C3.43619 15.0457 3.63828 15.0382 3.81791 14.881C4.13227 14.6116 4.43167 14.3272 4.73106 14.0502C6.25795 12.6506 7.78484 11.2435 9.30425 9.83631C9.45394 9.70159 9.51383 9.73902 9.61862 9.87375C10.1875 10.5998 10.1276 11.6401 9.46144 12.3213C8.8926 12.9051 8.3013 13.4814 7.72497 14.0577C7.463 14.3197 7.44055 14.4694 7.58276 14.8062C8.0543 15.914 7.91207 16.9469 7.17108 17.8899C6.82678 18.3241 6.46005 18.7357 6.11575 19.1698C5.87623 19.4767 6.02591 19.8884 6.40015 19.9782C6.60224 20.0231 6.76691 19.9482 6.90164 19.7985C7.07379 19.5965 7.25342 19.4019 7.4106 19.1923C7.52287 19.0351 7.65761 18.9902 7.84473 18.9977C8.33124 19.0126 8.81027 18.9827 9.29678 19.0052C9.66353 19.0201 9.89556 18.8854 10.0453 18.5486C10.3372 17.9199 10.8237 17.4708 11.5048 17.1939C11.4748 17.9423 11.5796 18.6908 11.4449 19.4243ZM18.997 5.87686C18.997 5.98913 18.9596 6.02656 18.8473 6.01907C18.7201 6.01159 18.6003 6.01159 18.4731 6.01907C18.2036 6.03404 18.0016 6.22865 17.9941 6.49062C17.9791 6.76007 18.1587 6.96216 18.4282 7.00707C18.4731 7.01455 18.518 7.01454 18.5704 7.02203C18.997 7.037 18.997 7.037 18.997 7.47112C18.997 10.4126 18.997 13.3617 18.997 16.3032C18.997 17.3735 18.3833 17.9872 17.3205 17.9872C16.8863 17.9872 16.4447 17.9798 16.0106 17.9872C15.8684 17.9872 15.7936 17.9498 15.7187 17.8226C14.9627 16.5801 13.84 15.9514 12.3955 15.9888C11.0482 16.0262 10.0003 16.6549 9.29678 17.8151C9.21444 17.9498 9.13959 17.9947 8.9899 17.9872C8.80278 17.9723 8.61566 17.9872 8.42854 17.9798C8.41357 17.9798 8.39859 17.9723 8.36865 17.9648C8.92252 16.9169 9.04977 15.8466 8.65307 14.7314C8.60817 14.6041 8.67553 14.5442 8.75038 14.4769C9.22941 13.9979 9.71593 13.5263 10.1875 13.0398C11.2353 11.9695 11.3177 10.3677 10.4045 9.21509C9.86561 8.54146 9.2818 8.50402 8.65307 9.08783C7.79232 9.88871 6.9241 10.6821 6.06335 11.4755C6.00347 11.4231 6.02591 11.3632 6.02591 11.3108C6.02591 9.95607 6.02593 8.60133 6.01844 7.24659C6.01844 7.05947 6.07083 6.99957 6.25047 7.02203C6.36274 7.037 6.4825 7.02204 6.60225 7.00707C6.85673 6.96964 7.02139 6.76008 7.01391 6.49811C7.00642 6.25111 6.80434 6.04902 6.55735 6.02656C6.54986 6.02656 6.54238 6.02656 6.53489 6.02656C6.37023 6.01159 6.16065 6.10141 6.06335 5.99662C5.95856 5.88435 6.0334 5.67477 6.0334 5.50262C6.0334 4.53708 6.02592 3.57155 6.0334 2.60602C6.0334 1.70036 6.63219 1.07913 7.53785 1.04919C8.04681 1.03422 8.55578 1.04918 9.05726 1.0417C9.16205 1.0417 9.22193 1.07913 9.27432 1.16895C10.0453 2.42639 11.1754 3.07007 12.6574 3.02516C13.9972 2.98025 15.0077 2.34406 15.7187 1.21386C15.801 1.07913 15.8759 1.03421 16.0256 1.03421C16.5495 1.04918 17.0735 1.01925 17.5899 1.04919C18.3833 1.0941 18.9821 1.70035 18.997 2.48626C19.0045 3.62394 18.9896 4.75414 18.997 5.87686Z" fill="#A5A5A5"/>
<path d="M15.756 7.00695C15.1198 7.02192 14.4761 7.02192 13.8399 7.00695C13.5554 6.99946 13.3608 6.75995 13.3758 6.4905C13.3908 6.22853 13.6078 6.01895 13.8848 6.01895C14.1916 6.01147 14.491 6.01895 14.7979 6.01895C15.1048 6.01895 15.4042 6.01895 15.7111 6.01895C15.9955 6.02644 16.2125 6.21355 16.2275 6.483C16.25 6.75994 16.0554 6.99946 15.756 7.00695Z" fill="#A5A5A5"/>
<path d="M11.6257 6.50612C11.6332 6.76809 11.4386 7.0076 11.1541 7.01508C10.5179 7.03005 9.87425 7.03005 9.23804 7.01508C8.94614 7.0076 8.774 6.78306 8.78148 6.50612C8.78897 6.22918 8.99105 6.03458 9.28295 6.03458C9.58983 6.02709 9.88922 6.03458 10.1961 6.03458C10.503 6.03458 10.8024 6.03458 11.1092 6.03458C11.4011 6.02709 11.6182 6.22918 11.6257 6.50612Z" fill="#A5A5A5"/>
</svg>
