<svg width="13" height="16" viewBox="0 0 13 16" fill="none" xmlns="http://www.w3.org/2000/svg">
<path d="M10.6753 14.8426C8.0812 16.9192 4.43825 15.4198 3.82229 12.3435C3.68502 11.6677 3.69206 10.9673 3.69558 10.2739C3.6991 9.59108 3.69558 8.90473 3.70262 8.2219C3.70614 8.05999 3.66742 8.00367 3.49495 8.01071C3.19225 8.02479 2.88955 8.02127 2.59037 8.01423C1.69283 7.9896 1.15783 7.21172 1.46405 6.3705C1.64708 5.87069 2.06241 5.69471 2.55166 5.65951C2.8614 5.63839 3.17465 5.64191 3.48439 5.64895C3.63574 5.65247 3.70261 5.63838 3.69909 5.45536C3.68853 4.62821 3.69206 3.80107 3.69558 2.97745C3.69558 2.74162 3.58646 2.59731 3.3612 2.57971C3.14297 2.56212 3.01978 2.68882 2.98458 2.90705C2.96346 3.04784 2.93883 3.18863 2.89307 3.32238C2.69949 3.8961 2.16448 4.20584 1.55204 4.10377C1.01704 4.01577 0.605222 3.51597 0.601703 2.94929C0.587624 1.56954 1.63652 0.369296 2.98107 0.221466C4.42769 0.0595569 5.74056 0.985257 6.0151 2.37908C6.10662 2.84017 6.09254 3.31534 6.08902 3.78699C6.0855 4.34663 6.09253 4.90627 6.08549 5.46592C6.08197 5.61727 6.12773 5.65599 6.27556 5.65599C7.10975 5.64895 7.94745 5.64191 8.78164 5.65599C9.67214 5.67007 10.2107 6.50073 9.86924 7.32084C9.68973 7.75025 9.33776 7.9368 8.89779 8.00015C8.30295 8.08463 7.70811 8.00015 7.11327 8.02127C6.84577 8.03183 6.58179 8.02831 6.31429 8.02127C6.1559 8.01423 6.08197 8.04239 6.08549 8.23246C6.09605 9.33414 6.08549 10.4358 6.09605 11.5375C6.10309 12.333 6.67682 13.0721 7.45821 13.3256C8.2396 13.579 9.02802 13.3432 9.53135 12.699C9.56303 12.6568 9.58766 12.611 9.61582 12.5653C8.87667 12.2591 8.4367 11.7311 8.32055 10.9392C8.14808 9.74244 9.27793 8.61259 10.4782 8.76394C11.5095 8.89417 12.2521 9.61925 12.3225 10.7209C12.4246 12.3717 11.9846 13.7937 10.6753 14.8426Z" fill="#49A700"/>
</svg>
