<svg width="19" height="18" viewBox="0 0 19 18" fill="none" xmlns="http://www.w3.org/2000/svg">
<path d="M17.8225 2.96387C17.9205 2.83145 18.0039 2.69577 18.0317 2.53065V2.17918C17.999 1.80317 17.7685 1.59719 17.4285 1.48602C17.3157 1.45006 17.1963 1.4566 17.0786 1.4566H9.77603C9.71064 1.4566 9.64688 1.45496 9.58312 1.45496C9.47359 1.4566 9.42292 1.40592 9.42292 1.29639C9.42292 1.15579 9.42292 1.0152 9.42128 0.874613C9.41638 0.384176 9.20386 0.114435 8.73467 0H0.670262C0.289356 0.0457741 0.0686611 0.258296 0 0.632662V17.3647C0.0408697 17.3827 0.0310592 17.4236 0.0441375 17.4546C0.207616 17.878 0.647374 18.0955 1.07078 17.9598C1.43861 17.8421 1.64296 17.5266 1.64296 17.0705C1.64296 14.8684 1.6446 12.6663 1.63969 10.4643C1.63969 10.3237 1.67729 10.2926 1.81298 10.2943C3.09302 10.2992 4.37142 10.2975 5.64982 10.2975C6.29557 10.2975 6.93968 10.3008 7.58542 10.2943C7.69985 10.2926 7.73745 10.3237 7.73091 10.4398C7.7211 10.6098 7.72601 10.7798 7.72928 10.9498C7.74235 11.4778 8.08239 11.8097 8.61043 11.8097C11.4566 11.8097 14.3011 11.8097 17.1473 11.8097C17.2225 11.8097 17.2993 11.8048 17.3745 11.7917C17.7211 11.7263 17.9058 11.4828 18.0317 11.1803V10.7929C18.0023 10.6556 17.9516 10.5297 17.865 10.4152C17.4465 9.85777 17.0345 9.29704 16.6193 8.73794C16.1403 8.09384 15.6629 7.45137 15.1839 6.80726C15.1038 6.69936 15.1038 6.62416 15.1855 6.51627C16.0618 5.33105 16.9397 4.14419 17.8225 2.96387ZM7.74072 5.1316C7.74072 6.2498 7.73908 7.36799 7.74399 8.48619C7.74562 8.6186 7.7113 8.64966 7.57888 8.64966C5.65473 8.64639 3.73058 8.64803 1.80644 8.65457C1.67075 8.65457 1.64623 8.61533 1.64623 8.48945C1.6495 6.25797 1.65114 4.02812 1.6446 1.79664C1.6446 1.6446 1.692 1.61844 1.8326 1.62008C3.73876 1.62498 5.64656 1.62498 7.55272 1.61844C7.70966 1.61844 7.74562 1.65768 7.74399 1.81135C7.73745 2.9181 7.74072 4.02485 7.74072 5.1316ZM13.3905 7.20615C14.0755 8.13471 14.7638 9.06 15.4504 9.98529C15.488 10.036 15.5239 10.0866 15.5812 10.1667H15.4062C13.4576 10.1667 11.5089 10.1651 9.56188 10.17C9.42128 10.17 9.37387 10.1439 9.37387 9.99182C9.37878 7.76524 9.37878 5.5403 9.37551 3.31372C9.37551 3.20092 9.39022 3.14861 9.52427 3.15024C11.5024 3.15514 13.4805 3.15351 15.4569 3.15351C15.4896 3.15351 15.5256 3.13879 15.5632 3.18293C15.197 3.67827 14.8292 4.17525 14.4597 4.67223C14.1033 5.15122 13.7469 5.63021 13.3922 6.11247C13.1143 6.48848 13.1126 6.83015 13.3905 7.20615Z" fill="#FEFCFF"/>
</svg>
